STARTFONT 2.1
COMMENT
COMMENT Converted from OpenType font "Lato-Bold.ttf" by "otf2bdf 3.0".
COMMENT
FONT -FreeType-Lato-Bold-R-Normal--80-580-100-100-P-420-ISO10646-1
SIZE 58 100 100
FONTBOUNDINGBOX 151 109 -42 -22
STARTPROPERTIES 19
FOUNDRY "FreeType"
FAMILY_NAME "Lato"
WEIGHT_NAME "Bold"
SLANT "R"
SETWIDTH_NAME "Normal"
ADD_STYLE_NAME ""
PIXEL_SIZE 80
POINT_SIZE 580
RESOLUTION_X 100
RESOLUTION_Y 100
SPACING "P"
AVERAGE_WIDTH 420
CHARSET_REGISTRY "ISO10646"
CHARSET_ENCODING "1"
FONT_ASCENT 79
FONT_DESCENT 17
COPYRIGHT "Copyright (c) 2011-2015 by tyPoland Lukasz Dziedzic (http://www.typoland.com/) with Reserved Font Name "Lato". Licensed under the SIL Open Font License, Version 1.1 (http://scripts.sil.org/OFL). "
_OTF_FONTFILE "Lato-Bold.ttf"
_OTF_PSNAME "Lato-Bold"
ENDPROPERTIES
CHARS 2164
STARTCHAR 0000
ENCODING 0
SWIDTH 0 0
DWIDTH 0 0
BBX 0 0 0 0
BITMAP
ENDCHAR
STARTCHAR 0020
ENCODING 32
SWIDTH 248 0
DWIDTH 20 0
BBX 0 0 0 0
BITMAP
ENDCHAR
STARTCHAR 0021
ENCODING 33
SWIDTH 285 0
DWIDTH 23 0
BBX 12 59 5 -1
BITMAP
3FE0
3FE0
3FE0
3FE0
3FE0
3FE0
3FE0
3FE0
3FE0
3FE0
3FE0
3FE0
3FE0
3FE0
3FE0
3FE0
3FE0
3FE0
3FE0
3FE0
3FE0
3FE0
3FE0
3FE0
3FE0
3FE0
3FE0
3FE0
3FE0
3FE0
3FE0
3FE0
3FE0
3FC0
1FC0
1FC0
1FC0
1FC0
0000
0000
0000
0000
0000
0000
0000
0000
0000
0F80
3FC0
7FE0
7FF0
FFF0
FFF0
FFF0
FFF0
7FF0
7FE0
3FC0
0F80
ENDCHAR
STARTCHAR 0022
ENCODING 34
SWIDTH 397 0
DWIDTH 32 0
BBX 24 22 4 36
BITMAP
FF81FF
FF81FF
FF81FF
FF81FF
FF81FF
FF81FF
FF81FF
FF81FF
FF81FF
FF81FF
FF81FF
FF81FF
FF81FF
FF81FF
7F80FF
7F00FE
7F00FE
7F00FE
7F00FE
7F00FE
3E007C
1C0038
ENDCHAR
STARTCHAR 0023
ENCODING 35
SWIDTH 583 0
DWIDTH 47 0
BBX 45 58 1 0
BITMAP
00007E01FC00
0001FE01FE00
0001FE01FE00
0003FE01FE00
0003FC01FE00
0003FC03FE00
0003FC03FE00
0003FC03FC00
0007FC03FC00
0007F803FC00
0007F803FC00
0007F807FC00
0007F807FC00
0007F807F800
000FF807F800
000FF007F800
000FF00FF800
07FFFFFFFFF8
0FFFFFFFFFF8
1FFFFFFFFFF0
1FFFFFFFFFF0
1FFFFFFFFFF0
3FFFFFFFFFF0
3FFFFFFFFFC0
001FE01FF000
001FE01FE000
003FE01FE000
003FC01FE000
003FC03FE000
003FC03FC000
003FC03FC000
007FC03FC000
007F803FC000
007F807FC000
7FFFFFFFFF80
7FFFFFFFFFC0
7FFFFFFFFFC0
7FFFFFFFFFC0
FFFFFFFFFFC0
7FFFFFFFFFC0
7FFFFFFFFF80
00FF00FF0000
01FF00FF0000
01FF00FF0000
01FE00FF0000
01FE01FF0000
01FE01FF0000
01FE01FE0000
03FE01FE0000
03FC01FE0000
03FC01FE0000
03FC03FE0000
03FC03FC0000
07FC03FC0000
07FC03FC0000
07F803FC0000
07F803FC0000
07E001FC0000
ENDCHAR
STARTCHAR 0024
ENCODING 36
SWIDTH 583 0
DWIDTH 47 0
BBX 41 75 3 -9
BITMAP
000003F00000
000007E00000
000007E00000
000007E00000
000007E00000
000007E00000
000007E00000
0000FFE00000
0007FFFE0000
001FFFFF8000
007FFFFFE000
00FFFFFFF800
01FFFFFFFC00
03FFFFFFFF00
07FFFFFFFE00
0FFFFFFFFC00
0FFF8FC7FC00
1FFE0FC1F800
1FFC0FC07000
1FF80FC00000
3FF00FC00000
3FF01FC00000
3FF01FC00000
3FF01F800000
3FF01F800000
3FF01F800000
3FF01F800000
3FF81F800000
1FFC1F800000
1FFF1F800000
1FFFDF800000
0FFFFF800000
0FFFFF800000
07FFFFE00000
03FFFFFC0000
01FFFFFF0000
00FFFFFFC000
003FFFFFF000
000FFFFFF800
0001FFFFFC00
00003FFFFE00
00003FFFFE00
00003F7FFF00
00003F1FFF00
00003F07FF00
00007F03FF80
00007F03FF80
00007F01FF80
00007E01FF80
00007E01FF80
00007E01FF80
00007E01FF80
00007E01FF00
04007E01FF00
1F007E03FF00
3F807E07FE00
3FE07E0FFE00
7FF8FE1FFE00
FFFFFEFFFC00
FFFFFFFFF800
7FFFFFFFF000
3FFFFFFFF000
0FFFFFFFC000
07FFFFFF8000
01FFFFFF0000
003FFFFC0000
0001FFE00000
0000FC000000
0000FC000000
0001FC000000
0001FC000000
0001F8000000
0001F8000000
0001F8000000
0001F0000000
ENDCHAR
STARTCHAR 0025
ENCODING 37
SWIDTH 819 0
DWIDTH 66 0
BBX 60 60 3 -1
BITMAP
003F800000000000
01FFF0000000FF80
03FFFC000001FF00
0FFFFE000003FE00
1FFFFF000007FE00
1FFFFF80000FFC00
3FE0FF80000FF800
3FC07FC0001FF000
7F803FC0003FE000
7F801FC0007FE000
7F001FE0007FC000
FF001FE000FF8000
FF001FE001FF0000
FF001FE003FF0000
FF001FE007FE0000
FF001FE007FC0000
FF001FE00FF80000
FF001FE01FF00000
7F001FE03FF00000
7F801FC03FE00000
7F803FC07FC00000
7FC07FC0FF800000
3FE0FF81FF800000
1FFFFF01FF000000
1FFFFF03FE000000
0FFFFE07FC000000
07FFF80FFC000000
01FFF01FF8000000
003F801FF0000000
0000003FE0000000
0000007FC0000000
000000FFC01FC000
000000FF80FFF800
000001FF01FFFE00
000003FE07FFFF00
000007FE0FFFFF80
000007FC0FFFFFC0
00000FF81FF07FC0
00001FF01FE03FE0
00003FF03FC01FE0
00007FE03FC00FF0
00007FC03F800FF0
0000FF807F800FF0
0001FF007F800FF0
0003FF007F800FF0
0003FE007F8007F0
0007FC007F800FF0
000FF8007F800FF0
001FF8007F800FF0
001FF0003F800FF0
003FE0003FC00FF0
007FC0003FC01FE0
00FFC0001FE01FE0
01FF80001FF07FC0
01FF00000FFFFFC0
03FE00000FFFFF80
07FC000007FFFF00
0FFC000001FFFE00
1FF8000000FFF800
00000000001FC000
ENDCHAR
STARTCHAR 0026
ENCODING 38
SWIDTH 732 0
DWIDTH 59 0
BBX 55 60 3 -1
BITMAP
00000FF8000000
00007FFE000000
0001FFFF800000
0007FFFFE00000
000FFFFFF00000
001FFFFFF80000
003FFFFFF80000
003FFFFFFC0000
007FF81FFE0000
007FF007FE0000
00FFE007FE0000
00FFC003FF0000
00FFC001FF0000
00FF8001FF0000
00FF8000E00000
00FF8000000000
00FF8000000000
00FF8000000000
00FFC000000000
00FFC000000000
007FE000000000
007FE000000000
007FF000000000
003FF800000000
001FFC00000000
001FFE00000000
000FFF00000000
003FFF80007F80
00FFFFC0007F80
01FFFFE0007F80
03FFFFF000FF80
07FFFFF800FF80
0FFF7FFC00FF00
1FFC3FFE00FF00
3FF81FFE00FF00
3FF00FFF01FF00
7FF007FF81FF00
7FE003FFC1FE00
7FE001FFE3FE00
FFE000FFF3FE00
FFC0007FFFFC00
FFC0003FFFFC00
FFC0001FFFF800
FFC0000FFFF800
FFC00007FFF000
FFE00003FFF000
FFE00003FFE000
7FE00001FFF000
7FF00001FFF800
7FF80007FFFC00
3FFC001FFFFE00
3FFF80FFFFFF00
1FFFFFFFFFFF80
0FFFFFFFFFFFC0
07FFFFFFE3FFE0
03FFFFFFC1FFF0
01FFFFFF00FFF8
007FFFFC007FFC
001FFFF0001FFE
0003FF00000000
ENDCHAR
STARTCHAR 0027
ENCODING 39
SWIDTH 211 0
DWIDTH 17 0
BBX 9 22 4 36
BITMAP
FF80
FF80
FF80
FF80
FF80
FF80
FF80
FF80
FF80
FF80
FF80
FF80
FF80
FF80
7F80
7F00
7F00
7F00
7F00
7F00
3E00
1C00
ENDCHAR
STARTCHAR 0028
ENCODING 40
SWIDTH 273 0
DWIDTH 22 0
BBX 17 77 3 -13
BITMAP
001000
003800
003E00
007F00
007F80
00FF80
00FF80
01FF00
03FF00
03FE00
03FE00
07FC00
07FC00
0FF800
0FF800
0FF800
1FF000
1FF000
1FF000
3FE000
3FE000
3FE000
3FE000
7FC000
7FC000
7FC000
7FC000
7FC000
7F8000
FF8000
FF8000
FF8000
FF8000
FF8000
FF8000
FF8000
FF8000
FF8000
FF8000
FF8000
FF8000
FF8000
FF8000
FF8000
FF8000
FF8000
FF8000
FF8000
7F8000
7F8000
7FC000
7FC000
7FC000
7FC000
3FC000
3FE000
3FE000
3FE000
1FF000
1FF000
1FF000
0FF800
0FF800
0FF800
07FC00
07FC00
03FE00
03FE00
03FF00
01FF00
01FF80
00FF80
00FF80
007F00
003E00
003800
001000
ENDCHAR
STARTCHAR 0029
ENCODING 41
SWIDTH 273 0
DWIDTH 22 0
BBX 17 77 2 -13
BITMAP
020000
0E0000
1E0000
7F0000
FF8000
FF8000
7FC000
7FC000
3FE000
3FE000
3FF000
1FF000
1FF000
0FF800
0FF800
07FC00
07FC00
07FC00
03FC00
03FE00
03FE00
03FE00
01FF00
01FF00
01FF00
01FF00
01FF00
00FF00
00FF80
00FF80
00FF80
00FF80
00FF80
00FF80
00FF80
00FF80
007F80
007F80
007F80
007F80
007F80
00FF80
00FF80
00FF80
00FF80
00FF80
00FF80
00FF80
00FF80
00FF00
01FF00
01FF00
01FF00
01FF00
01FF00
03FE00
03FE00
03FE00
03FE00
07FC00
07FC00
07FC00
0FF800
0FF800
1FF800
1FF000
1FF000
3FE000
3FE000
7FC000
7FC000
FF8000
FF8000
7F0000
3F0000
0E0000
040000
ENDCHAR
STARTCHAR 002A
ENCODING 42
SWIDTH 422 0
DWIDTH 34 0
BBX 26 27 4 34
BITMAP
001F0000
001F0000
001F0000
001F0000
001F0000
301F0100
7C1F0780
7E1F1FC0
FF9F7FC0
7FDEFF80
1FFFFE00
07FFF800
01FFF000
007F8000
01FFF000
07FFF800
1FFFFE00
3FFEFF80
FF9F7FC0
7E1F1FC0
7C1F0780
301F0300
001F0000
001F0000
001F0000
001F0000
001F0000
ENDCHAR
STARTCHAR 002B
ENCODING 43
SWIDTH 583 0
DWIDTH 47 0
BBX 39 41 4 7
BITMAP
0001FF0000
0001FF0000
0001FF0000
0001FF0000
0001FF0000
0001FF0000
0001FF0000
0001FF0000
0001FF0000
0001FF0000
0001FF0000
0001FF0000
0001FF0000
0001FF0000
0001FF0000
0001FF0000
0001FF0000
FFFFFFFFFE
FFFFFFFFFE
FFFFFFFFFE
FFFFFFFFFE
FFFFFFFFFE
FFFFFFFFFE
FFFFFFFFFE
FFFFFFFFFE
0001FF0000
0001FF0000
0001FF0000
0001FF0000
0001FF0000
0001FF0000
0001FF0000
0001FF0000
0001FF0000
0001FF0000
0001FF0000
0001FF0000
0001FF0000
0001FF0000
0001FF0000
0001FF0000
ENDCHAR
STARTCHAR 002C
ENCODING 44
SWIDTH 235 0
DWIDTH 19 0
BBX 12 23 3 -12
BITMAP
0F80
3FC0
7FE0
7FF0
7FF0
FFF0
7FF0
7FF0
7FF0
3FF0
0FF0
03F0
03E0
07E0
07C0
0FC0
1F80
3F80
7F00
7E00
7C00
3800
1000
ENDCHAR
STARTCHAR 002D
ENCODING 45
SWIDTH 372 0
DWIDTH 30 0
BBX 21 8 5 20
BITMAP
FFFFF8
FFFFF8
FFFFF8
FFFFF8
FFFFF8
FFFFF8
FFFFF8
FFFFF8
ENDCHAR
STARTCHAR 002E
ENCODING 46
SWIDTH 235 0
DWIDTH 19 0
BBX 13 12 3 -1
BITMAP
0F80
3FE0
3FF0
7FF0
7FF8
FFF8
FFF8
7FF8
7FF0
3FF0
3FE0
0F80
ENDCHAR
STARTCHAR 002F
ENCODING 47
SWIDTH 471 0
DWIDTH 38 0
BBX 33 63 2 -3
BITMAP
0000001F80
0000007F80
000000FF00
000000FF00
000000FF00
000001FE00
000001FE00
000003FC00
000003FC00
000003FC00
000007F800
000007F800
00000FF000
00000FF000
00000FF000
00001FE000
00001FE000
00003FE000
00003FC000
00003FC000
00007F8000
00007F8000
0000FF8000
0000FF0000
0000FF0000
0001FE0000
0001FE0000
0001FE0000
0003FC0000
0003FC0000
0007F80000
0007F80000
0007F80000
000FF00000
000FF00000
001FE00000
001FE00000
001FE00000
003FC00000
003FC00000
007F800000
007F800000
007F800000
00FF000000
00FF000000
01FF000000
01FE000000
01FE000000
03FC000000
03FC000000
07FC000000
07F8000000
07F8000000
0FF0000000
0FF0000000
1FF0000000
1FE0000000
1FE0000000
3FC0000000
3FC0000000
3FC0000000
7F80000000
FF00000000
ENDCHAR
STARTCHAR 0030
ENCODING 48
SWIDTH 583 0
DWIDTH 47 0
BBX 43 60 2 -1
BITMAP
00007FC00000
0003FFF80000
000FFFFE0000
003FFFFF8000
007FFFFFC000
00FFFFFFE000
01FFFFFFF000
03FFFFFFF800
07FFE0FFFC00
07FF003FFC00
0FFE000FFE00
0FFC000FFE00
1FFC0007FF00
1FF80003FF00
3FF80003FF80
3FF00001FF80
3FF00001FF80
7FF00001FFC0
7FE00001FFC0
7FE00000FFC0
7FE00000FFC0
7FE00000FFC0
FFE00000FFC0
FFE00000FFE0
FFE00000FFE0
FFC00000FFE0
FFC000007FE0
FFC000007FE0
FFC000007FE0
FFC000007FE0
FFC000007FE0
FFC000007FE0
FFC000007FE0
FFC000007FE0
FFC00000FFE0
FFE00000FFE0
FFE00000FFE0
FFE00000FFE0
7FE00000FFC0
7FE00000FFC0
7FE00000FFC0
7FE00001FFC0
7FF00001FFC0
3FF00001FF80
3FF00001FF80
3FF80003FF80
1FF80003FF00
1FFC0007FF00
0FFC000FFE00
0FFE000FFE00
07FF003FFC00
07FFC0FFFC00
03FFFFFFF800
01FFFFFFF000
00FFFFFFE000
007FFFFFC000
003FFFFF8000
000FFFFE0000
0003FFF80000
00007FC00000
ENDCHAR
STARTCHAR 0031
ENCODING 49
SWIDTH 583 0
DWIDTH 47 0
BBX 37 58 5 0
BITMAP
00003FC000
0000FFC000
0001FFC000
0003FFC000
0007FFC000
000FFFC000
001FFFC000
007FFFC000
00FFFFC000
01FFFFC000
03FFFFC000
07FFFFC000
0FFFFFC000
3FFFFFC000
7FFEFFC000
FFFCFFC000
7FF0FFC000
3FE0FFC000
1FC0FFC000
1F80FFC000
0600FFC000
0000FFC000
0000FFC000
0000FFC000
0000FFC000
0000FFC000
0000FFC000
0000FFC000
0000FFC000
0000FFC000
0000FFC000
0000FFC000
0000FFC000
0000FFC000
0000FFC000
0000FFC000
0000FFC000
0000FFC000
0000FFC000
0000FFC000
0000FFC000
0000FFC000
0000FFC000
0000FFC000
0000FFC000
0000FFC000
0000FFC000
0000FFC000
0000FFC000
0000FFC000
07FFFFFFF8
07FFFFFFF8
07FFFFFFF8
07FFFFFFF8
07FFFFFFF8
07FFFFFFF8
07FFFFFFF8
07FFFFFFF8
ENDCHAR
STARTCHAR 0032
ENCODING 50
SWIDTH 583 0
DWIDTH 47 0
BBX 40 59 3 0
BITMAP
0000FFC000
0007FFF800
003FFFFE00
007FFFFF80
01FFFFFFC0
03FFFFFFE0
07FFFFFFF0
07FFFFFFF8
0FFF80FFF8
1FFE003FFC
1FFC001FFC
3FF8000FFE
3FF0000FFE
3FF00007FE
7FE00007FE
7FE00007FE
7FC00007FE
03800007FE
00000007FE
00000007FE
0000000FFE
0000000FFE
0000000FFC
0000001FFC
0000001FFC
0000003FF8
0000003FF8
0000007FF0
000000FFE0
000001FFE0
000001FFC0
000003FF80
000007FF00
00000FFE00
00001FFE00
00003FFC00
00007FF800
0000FFF000
0001FFE000
0003FFC000
0007FF8000
000FFF0000
001FFE0000
003FFC0000
007FF80000
00FFF00000
01FFE00000
03FFC00000
07FF800000
0FFF000000
1FFE7FFFFE
3FFFFFFFFF
7FFFFFFFFF
FFFFFFFFFF
FFFFFFFFFF
FFFFFFFFFF
FFFFFFFFFF
FFFFFFFFFF
FFFFFFFFFF
ENDCHAR
STARTCHAR 0033
ENCODING 51
SWIDTH 583 0
DWIDTH 47 0
BBX 40 60 3 -1
BITMAP
0000FFC000
0007FFF800
003FFFFF00
007FFFFF80
00FFFFFFC0
03FFFFFFE0
03FFFFFFF0
07FFFFFFF8
0FFF80FFF8
0FFE003FFC
1FFC001FFC
1FF8000FFE
3FF8000FFE
3FF00007FE
3FF00007FE
3FE00007FE
7FE00007FE
01800007FE
00000007FE
00000007FE
00000007FC
0000000FFC
0000000FF8
0000001FF8
0000007FF0
000003FFE0
00007FFFC0
00007FFF00
00007FFC00
00007FFF00
00007FFFC0
00007FFFF0
00007FFFF8
000001FFFC
0000003FFC
0000000FFE
00000007FE
00000007FF
00000003FF
00000003FF
00000003FF
00000003FF
00000003FF
1F800003FF
FFC00003FF
FFC00003FF
FFE00007FF
7FE00007FE
7FF0000FFE
3FF8001FFE
3FFC003FFC
1FFF80FFFC
1FFFFFFFF8
0FFFFFFFF0
07FFFFFFE0
03FFFFFFC0
01FFFFFF80
007FFFFE00
001FFFF800
0003FF8000
ENDCHAR
STARTCHAR 0034
ENCODING 52
SWIDTH 583 0
DWIDTH 47 0
BBX 45 58 0 0
BITMAP
0000000FFC00
0000001FFC00
0000003FFC00
0000007FFC00
0000007FFC00
000000FFFC00
000001FFFC00
000003FFFC00
000003FFFC00
000007FFFC00
00000FFFFC00
00001FFFFC00
00001FF7FC00
00003FF7FC00
00007FE7FC00
0000FFC7FC00
0000FF87FC00
0001FF87FC00
0003FF07FC00
0007FE07FC00
000FFC07FC00
000FFC07FC00
001FF807FC00
003FF007FC00
007FF007FC00
007FE007FC00
00FFC007FC00
01FF8007FC00
03FF8007FC00
03FF0007FC00
07FE0007FC00
0FFC0007FC00
1FFC0007FC00
1FF80007FC00
3FF00007FC00
7FE00007FC00
FFFFFFFFFFF8
7FFFFFFFFFF8
7FFFFFFFFFF8
7FFFFFFFFFF8
7FFFFFFFFFF8
7FFFFFFFFFF8
3FFFFFFFFFF8
1FFFFFFFFFF0
00000007FC00
00000007FC00
00000007FC00
00000007FC00
00000007FC00
00000007FC00
00000007FC00
00000007FC00
00000007FC00
00000007FC00
00000007FC00
00000007FC00
00000007FC00
00000007FC00
ENDCHAR
STARTCHAR 0035
ENCODING 53
SWIDTH 583 0
DWIDTH 47 0
BBX 38 59 4 -1
BITMAP
01FFFFFFF0
01FFFFFFF0
01FFFFFFF0
01FFFFFFF0
01FFFFFFF0
01FFFFFFF0
03FFFFFFF0
03FFFFFFE0
03FFFFFFC0
03FC000000
03FC000000
03FC000000
07FC000000
07FC000000
07FC000000
07F8000000
07F8000000
07F8000000
0FF8000000
0FF8000000
0FF8000000
0FF3FF8000
0FFFFFF000
0FFFFFFC00
1FFFFFFF00
1FFFFFFF80
1FFFFFFFC0
1FFFFFFFE0
1FFFFFFFF0
07F803FFF0
00C000FFF8
0000007FF8
0000003FFC
0000001FFC
0000000FFC
0000000FFC
0000000FFC
0000000FFC
0000000FFC
0000000FFC
0000000FFC
0000000FFC
0000000FFC
0000000FFC
0000001FFC
0000001FF8
0000003FF8
1E00003FF8
3F80007FF0
3FE001FFE0
7FF807FFE0
FFFFFFFFC0
FFFFFFFF80
7FFFFFFF00
3FFFFFFE00
0FFFFFFC00
03FFFFF000
00FFFF8000
000FFC0000
ENDCHAR
STARTCHAR 0036
ENCODING 54
SWIDTH 583 0
DWIDTH 47 0
BBX 41 59 3 -1
BITMAP
000000FFF000
000003FFC000
000007FFC000
00000FFF8000
00000FFF0000
00001FFE0000
00003FFC0000
00007FF80000
00007FF80000
0000FFF00000
0001FFE00000
0003FFC00000
0003FF800000
0007FF800000
000FFF000000
001FFE000000
001FFC000000
003FF8000000
007FF8000000
00FFF0000000
00FFE0000000
01FFC0000000
03FF8FF00000
03FF7FFE0000
07FFFFFF8000
0FFFFFFFE000
0FFFFFFFF000
1FFFFFFFF800
1FFFFFFFFC00
3FFFFFFFFE00
3FFF80FFFE00
3FFE001FFF00
7FF8000FFF00
7FF00007FF00
7FF00003FF80
7FE00003FF80
FFE00001FF80
FFC00001FF80
FFC00001FF80
FFC00001FF80
FFC00001FF80
7FC00001FF80
7FC00001FF80
7FC00001FF80
7FE00001FF80
7FE00003FF00
3FE00007FF00
3FF00007FF00
3FF8000FFE00
1FFC003FFE00
0FFF80FFFC00
0FFFFFFFF800
07FFFFFFF000
03FFFFFFE000
01FFFFFFC000
00FFFFFF8000
003FFFFE0000
000FFFF80000
0000FFC00000
ENDCHAR
STARTCHAR 0037
ENCODING 55
SWIDTH 583 0
DWIDTH 47 0
BBX 40 58 4 0
BITMAP
FFFFFFFFFF
FFFFFFFFFF
FFFFFFFFFF
FFFFFFFFFF
FFFFFFFFFF
FFFFFFFFFF
FFFFFFFFFF
FFFFFFFFFF
7FFFFFFFFE
00000003FE
00000007FC
0000000FFC
0000000FFC
0000001FF8
0000003FF8
0000003FF0
0000007FF0
0000007FE0
000000FFE0
000000FFC0
000001FFC0
000001FF80
000003FF80
000003FF00
000007FF00
000007FE00
00000FFE00
00000FFC00
00001FFC00
00001FF800
00003FF800
00003FF000
00007FF000
00007FE000
0000FFE000
0000FFC000
0001FFC000
0001FF8000
0003FF8000
0003FF0000
0007FF0000
0007FE0000
000FFE0000
000FFC0000
001FFC0000
001FF80000
003FF80000
003FF00000
007FF00000
007FE00000
00FFE00000
00FFC00000
01FFC00000
01FF800000
03FF800000
03FF000000
07FE000000
0FFC000000
ENDCHAR
STARTCHAR 0038
ENCODING 56
SWIDTH 583 0
DWIDTH 47 0
BBX 41 60 3 -1
BITMAP
0000FF800000
000FFFF80000
003FFFFE0000
007FFFFF0000
01FFFFFFC000
03FFFFFFE000
07FFFFFFF000
07FFFFFFF000
0FFF80FFF800
1FFE003FF800
1FFC001FFC00
1FF8000FFC00
3FF8000FFE00
3FF00007FE00
3FF00007FE00
3FF00007FE00
3FF00007FE00
3FF00007FE00
3FF00007FE00
3FF00007FC00
1FF8000FFC00
1FF8000FFC00
0FFC001FF800
0FFE003FF800
07FF80FFF000
03FFFFFFE000
01FFFFFFC000
00FFFFFF8000
003FFFFE0000
007FFFFF0000
01FFFFFFC000
07FFFFFFF000
0FFFFFFFF800
1FFF80FFFC00
3FFC001FFE00
3FF8000FFE00
7FF00007FF00
7FF00007FF00
7FE00003FF00
FFE00003FF00
FFE00003FF80
FFE00003FF80
FFC00001FF80
FFC00003FF80
FFE00003FF80
FFE00003FF80
FFE00003FF00
7FF00007FF00
7FF00007FF00
7FF8000FFF00
3FFC003FFE00
3FFF80FFFE00
1FFFFFFFFC00
0FFFFFFFF800
07FFFFFFF000
03FFFFFFE000
01FFFFFFC000
007FFFFF0000
001FFFFC0000
0001FFC00000
ENDCHAR
STARTCHAR 0039
ENCODING 57
SWIDTH 583 0
DWIDTH 47 0
BBX 40 59 3 0
BITMAP
0000FF8000
000FFFF800
003FFFFE00
00FFFFFF00
01FFFFFFC0
03FFFFFFE0
07FFFFFFF0
0FFFFFFFF0
0FFF80FFF8
1FFE003FFC
3FF8001FFC
3FF0000FFC
7FF00007FE
7FE00007FE
7FE00003FE
7FE00003FF
7FC00003FF
FFC00003FF
FFC00003FF
FFC00003FF
FFE00003FF
FFE00003FF
7FE00007FF
7FE00007FE
7FF0000FFE
7FF8001FFE
3FFC003FFE
3FFF80FFFE
1FFFFFFFFC
1FFFFFFFFC
0FFFFFFFF8
07FFFFFFF8
03FFFFFFF0
00FFFFFFF0
007FFF7FE0
000FF8FFE0
000000FFC0
000001FF80
000003FF80
000007FF00
00000FFE00
00000FFE00
00001FFC00
00003FF800
00007FF000
0000FFF000
0000FFE000
0001FFC000
0003FFC000
0007FF8000
000FFF0000
000FFF0000
001FFE0000
003FFC0000
007FF80000
00FFF80000
01FFF00000
01FFE00000
07FF800000
ENDCHAR
STARTCHAR 003A
ENCODING 58
SWIDTH 260 0
DWIDTH 21 0
BBX 13 41 4 -1
BITMAP
0F80
3FE0
3FF0
7FF0
7FF8
FFF8
FFF8
7FF8
7FF0
3FF0
3FE0
0F80
0000
0000
0000
0000
0000
0000
0000
0000
0000
0000
0000
0000
0000
0000
0000
0000
0000
0F80
3FE0
3FF0
7FF0
7FF8
FFF8
FFF8
7FF8
7FF0
3FF0
3FE0
0F80
ENDCHAR
STARTCHAR 003B
ENCODING 59
SWIDTH 273 0
DWIDTH 22 0
BBX 13 52 4 -12
BITMAP
0F80
3FE0
3FF0
7FF0
7FF8
FFF8
FFF8
7FF8
7FF0
3FF0
3FE0
0F80
0000
0000
0000
0000
0000
0000
0000
0000
0000
0000
0000
0000
0000
0000
0000
0000
0000
07C0
1FE0
3FF0
3FF8
3FF8
7FF8
3FF8
3FF8
3FF8
1FF8
07F8
01F8
01F0
03F0
03E0
07E0
0FC0
1FC0
3F80
3F00
3E00
1C00
0800
ENDCHAR
STARTCHAR 003C
ENCODING 60
SWIDTH 583 0
DWIDTH 47 0
BBX 32 37 6 9
BITMAP
00000001
00000007
0000001F
0000007F
000001FF
000003FF
00000FFF
00003FFF
0000FFFF
0003FFFE
000FFFF8
003FFFE0
00FFFF80
03FFFE00
0FFFF800
3FFFE000
FFFF8000
FFFE0000
FFF00000
FFFC0000
FFFF0000
3FFFC000
1FFFF000
07FFFC00
01FFFF00
007FFFC0
001FFFF0
0007FFFC
0001FFFF
00007FFF
00001FFF
000007FF
000001FF
0000007F
0000003F
0000000F
00000003
ENDCHAR
STARTCHAR 003D
ENCODING 61
SWIDTH 583 0
DWIDTH 47 0
BBX 35 22 6 16
BITMAP
FFFFFFFFE0
FFFFFFFFE0
FFFFFFFFE0
FFFFFFFFE0
FFFFFFFFE0
FFFFFFFFE0
FFFFFFFFE0
FFFFFFFFE0
0000000000
0000000000
0000000000
0000000000
0000000000
0000000000
FFFFFFFFE0
FFFFFFFFE0
FFFFFFFFE0
FFFFFFFFE0
FFFFFFFFE0
FFFFFFFFE0
FFFFFFFFE0
FFFFFFFFE0
ENDCHAR
STARTCHAR 003E
ENCODING 62
SWIDTH 583 0
DWIDTH 47 0
BBX 32 37 9 9
BITMAP
80000000
E0000000
F8000000
FE000000
FF000000
FFC00000
FFF00000
FFFC0000
FFFF0000
7FFFC000
1FFFF000
07FFFC00
01FFFF00
007FFFC0
001FFFF0
0007FFFC
0001FFFF
00007FFF
00000FFF
00003FFF
0000FFFF
0003FFFC
000FFFF0
003FFFE0
00FFFF80
03FFFE00
0FFFF800
3FFFE000
FFFF8000
FFFE0000
FFF80000
FFE00000
FF800000
FE000000
FC000000
F0000000
C0000000
ENDCHAR
STARTCHAR 003F
ENCODING 63
SWIDTH 459 0
DWIDTH 37 0
BBX 31 60 3 -1
BITMAP
003FF000
01FFFE00
07FFFF80
1FFFFFC0
3FFFFFE0
FFFFFFF0
FFFFFFF8
7FFFFFFC
7FE03FFC
3F001FFC
1E000FFE
000007FE
000003FE
000003FE
000003FE
000003FE
000003FE
000007FE
000007FC
00000FFC
00001FFC
00003FF8
00007FF8
0000FFF0
0001FFE0
0007FFC0
000FFF80
001FFE00
001FFC00
003FF800
003FF000
003FE000
003FC000
003FC000
003FC000
003FC000
003FC000
003FC000
001F8000
00000000
00000000
00000000
00000000
00000000
00000000
00000000
00000000
00000000
001F0000
003FC000
007FE000
00FFE000
00FFF000
00FFF000
00FFF000
00FFF000
00FFE000
007FE000
003FC000
001F0000
ENDCHAR
STARTCHAR 0040
ENCODING 64
SWIDTH 844 0
DWIDTH 68 0
BBX 61 65 4 -10
BITMAP
0000003FFC000000
000003FFFFC00000
00001FFFFFF00000
00007FFFFFFC0000
0001FFFFFFFF0000
0003FFFFFFFFC000
000FFFE007FFE000
001FFE00007FF000
003FF800001FF800
007FE0000007FC00
00FFC0000001FE00
01FF00000000FF00
03FE000000007F80
03FC000000003F80
07F8000000003FC0
0FF0000000001FC0
0FF0000000000FE0
1FE00000FFC00FE0
1FC0000FFFFC07F0
3FC0003FFFFC07F0
3F8000FFFFFC07F0
7F8001FFFFFC07F8
7F8007FFFFF803F8
7F000FFF03F803F8
7F000FFC07F803F8
FF001FF007F803F8
FE003FE007F003F8
FE003FC007F003F8
FE007F800FF003F8
FE007F800FE003F8
FE00FF000FE003F8
FE00FF000FE003F8
FE00FF001FE003F8
FE00FE001FC007F0
FE01FE001FC007F0
FE01FE003FC007F0
FE01FE003FC00FF0
FE01FE003FC00FE0
FF01FE007FC01FE0
FF00FF007FC03FC0
7F00FF00FFC07F80
7F00FF83FFE0FF80
7F80FFFFFFFFFF00
7F807FFFFFFFFE00
3F803FFFE7FFFC00
3FC01FFFC3FFF800
1FC00FFF01FFE000
1FE003F8007F0000
0FF0000000000000
0FF0000000000000
07F8000000000000
07FC000000000000
03FE000000000000
01FF000000000000
00FFC00000000400
007FE00000001E00
003FF8000000FE00
001FFF000007FF00
000FFFF0007FFF00
0003FFFFFFFFFF00
0001FFFFFFFFFC00
00007FFFFFFFF000
00000FFFFFFF8000
000001FFFFFC0000
0000001FFF800000
ENDCHAR
STARTCHAR 0041
ENCODING 65
SWIDTH 695 0
DWIDTH 56 0
BBX 57 58 0 0
BITMAP
000003FFC0000000
000003FFC0000000
000003FFE0000000
000007FFE0000000
000007FFE0000000
00000FFFF0000000
00000FFFF0000000
00000FFFF8000000
00001FFFF8000000
00001FFFF8000000
00003FFFFC000000
00003FFFFC000000
00003FE7FE000000
00007FE7FE000000
00007FE7FE000000
0000FFC3FF000000
0000FFC3FF000000
0000FFC1FF800000
0001FF81FF800000
0001FF81FF800000
0003FF80FFC00000
0003FF00FFC00000
0003FF00FFE00000
0007FF007FE00000
0007FE007FE00000
000FFE003FF00000
000FFC003FF00000
000FFC003FF80000
001FFC001FF80000
001FF8001FF80000
003FF8001FFC0000
003FF8000FFC0000
003FF0000FFE0000
007FF00007FE0000
007FE00007FE0000
00FFE00007FF0000
00FFFFFFFFFF0000
00FFFFFFFFFF8000
01FFFFFFFFFF8000
01FFFFFFFFFF8000
03FFFFFFFFFFC000
03FFFFFFFFFFC000
03FFFFFFFFFFE000
07FFFFFFFFFFE000
07FF000000FFE000
07FE0000007FF000
0FFE0000007FF000
0FFE0000003FF800
1FFC0000003FF800
1FFC0000003FF800
1FFC0000001FFC00
3FF80000001FFC00
3FF80000001FFE00
7FF00000000FFE00
7FF00000000FFE00
7FF000000007FF00
FFE000000007FF00
FFC000000003FF80
ENDCHAR
STARTCHAR 0042
ENCODING 66
SWIDTH 657 0
DWIDTH 53 0
BBX 43 58 7 0
BITMAP
FFFFFFE00000
FFFFFFFE0000
FFFFFFFF8000
FFFFFFFFE000
FFFFFFFFF800
FFFFFFFFFC00
FFFFFFFFFE00
FFFFFFFFFE00
FFC000FFFF00
FFC0001FFF00
FFC0000FFF80
FFC00007FF80
FFC00003FF80
FFC00003FF80
FFC00003FF80
FFC00003FF80
FFC00003FF80
FFC00003FF80
FFC00003FF80
FFC00003FF80
FFC00003FF00
FFC00007FF00
FFC0000FFE00
FFC0001FFC00
FFC000FFF800
FFFFFFFFF000
FFFFFFFFE000
FFFFFFFF8000
FFFFFFFF0000
FFFFFFFFE000
FFFFFFFFF800
FFFFFFFFFE00
FFFFFFFFFF00
FFC0003FFF80
FFC00007FF80
FFC00003FFC0
FFC00001FFC0
FFC00001FFE0
FFC00000FFE0
FFC00000FFE0
FFC00000FFE0
FFC00000FFE0
FFC00000FFE0
FFC00000FFE0
FFC00000FFE0
FFC00001FFC0
FFC00001FFC0
FFC00003FFC0
FFC0000FFF80
FFC0003FFF80
FFFFFFFFFF00
FFFFFFFFFE00
FFFFFFFFFC00
FFFFFFFFF800
FFFFFFFFF000
FFFFFFFFC000
FFFFFFFE0000
FFFFFFE00000
ENDCHAR
STARTCHAR 0043
ENCODING 67
SWIDTH 670 0
DWIDTH 54 0
BBX 50 60 3 -1
BITMAP
000001FFE00000
00001FFFFE0000
00007FFFFF8000
0001FFFFFFE000
0007FFFFFFF800
001FFFFFFFFE00
003FFFFFFFFF00
007FFFFFFFFF80
00FFFFFFFFFF00
01FFFF803FFE00
03FFFC0007FE00
03FFF00001FC00
07FFC00000F800
0FFF8000003000
0FFF0000000000
1FFE0000000000
1FFE0000000000
3FFC0000000000
3FFC0000000000
3FF80000000000
7FF80000000000
7FF00000000000
7FF00000000000
7FF00000000000
FFF00000000000
FFF00000000000
FFE00000000000
FFE00000000000
FFE00000000000
FFE00000000000
FFE00000000000
FFE00000000000
FFE00000000000
FFE00000000000
FFF00000000000
FFF00000000000
7FF00000000000
7FF00000000000
7FF00000000000
7FF80000000000
3FF80000000000
3FFC0000000000
3FFC0000000000
1FFE0000000000
1FFF0000000000
0FFF0000000000
0FFF8000003800
07FFE000007C00
07FFF00001FE00
03FFFC0003FF00
01FFFF801FFF80
00FFFFFFFFFFC0
007FFFFFFFFF00
003FFFFFFFFE00
001FFFFFFFFC00
000FFFFFFFF800
0003FFFFFFE000
0000FFFFFF8000
00001FFFFE0000
000003FFE00000
ENDCHAR
STARTCHAR 0044
ENCODING 68
SWIDTH 769 0
DWIDTH 62 0
BBX 52 58 7 0
BITMAP
FFFFFFF0000000
FFFFFFFF000000
FFFFFFFFE00000
FFFFFFFFF80000
FFFFFFFFFE0000
FFFFFFFFFF0000
FFFFFFFFFF8000
FFFFFFFFFFE000
FFC0003FFFF000
FFC00003FFF800
FFC00000FFF800
FFC000007FFC00
FFC000003FFE00
FFC000001FFE00
FFC000000FFF00
FFC0000007FF80
FFC0000007FF80
FFC0000003FF80
FFC0000003FFC0
FFC0000001FFC0
FFC0000001FFC0
FFC0000001FFE0
FFC0000000FFE0
FFC0000000FFE0
FFC0000000FFE0
FFC0000000FFE0
FFC0000000FFE0
FFC0000000FFE0
FFC0000000FFF0
FFC0000000FFF0
FFC0000000FFE0
FFC0000000FFE0
FFC0000000FFE0
FFC0000000FFE0
FFC0000000FFE0
FFC0000000FFE0
FFC0000001FFE0
FFC0000001FFC0
FFC0000001FFC0
FFC0000003FFC0
FFC0000003FF80
FFC0000007FF80
FFC0000007FF80
FFC000000FFF00
FFC000001FFF00
FFC000003FFE00
FFC000007FFC00
FFC00000FFF800
FFC00003FFF800
FFC0003FFFF000
FFFFFFFFFFE000
FFFFFFFFFFC000
FFFFFFFFFF0000
FFFFFFFFFE0000
FFFFFFFFF80000
FFFFFFFFE00000
FFFFFFFF000000
FFFFFFF0000000
ENDCHAR
STARTCHAR 0045
ENCODING 69
SWIDTH 583 0
DWIDTH 47 0
BBX 36 58 7 0
BITMAP
FFFFFFFFF0
FFFFFFFFF0
FFFFFFFFF0
FFFFFFFFF0
FFFFFFFFF0
FFFFFFFFF0
FFFFFFFFF0
FFFFFFFFF0
FFC0000000
FFC0000000
FFC0000000
FFC0000000
FFC0000000
FFC0000000
FFC0000000
FFC0000000
FFC0000000
FFC0000000
FFC0000000
FFC0000000
FFC0000000
FFC0000000
FFC0000000
FFC0000000
FFC0000000
FFFFFFFE00
FFFFFFFE00
FFFFFFFE00
FFFFFFFE00
FFFFFFFE00
FFFFFFFE00
FFFFFFFE00
FFFFFFFE00
FFC0000000
FFC0000000
FFC0000000
FFC0000000
FFC0000000
FFC0000000
FFC0000000
FFC0000000
FFC0000000
FFC0000000
FFC0000000
FFC0000000
FFC0000000
FFC0000000
FFC0000000
FFC0000000
FFC0000000
FFFFFFFFF0
FFFFFFFFF0
FFFFFFFFF0
FFFFFFFFF0
FFFFFFFFF0
FFFFFFFFF0
FFFFFFFFF0
FFFFFFFFF0
ENDCHAR
STARTCHAR 0046
ENCODING 70
SWIDTH 571 0
DWIDTH 46 0
BBX 36 58 7 0
BITMAP
FFFFFFFFF0
FFFFFFFFF0
FFFFFFFFF0
FFFFFFFFF0
FFFFFFFFF0
FFFFFFFFF0
FFFFFFFFF0
FFFFFFFFF0
FFC0000000
FFC0000000
FFC0000000
FFC0000000
FFC0000000
FFC0000000
FFC0000000
FFC0000000
FFC0000000
FFC0000000
FFC0000000
FFC0000000
FFC0000000
FFC0000000
FFC0000000
FFC0000000
FFC0000000
FFC0000000
FFFFFFFF00
FFFFFFFF00
FFFFFFFF00
FFFFFFFF00
FFFFFFFF00
FFFFFFFF00
FFFFFFFF00
FFFFFFFF00
FFC0000000
FFC0000000
FFC0000000
FFC0000000
FFC0000000
FFC0000000
FFC0000000
FFC0000000
FFC0000000
FFC0000000
FFC0000000
FFC0000000
FFC0000000
FFC0000000
FFC0000000
FFC0000000
FFC0000000
FFC0000000
FFC0000000
FFC0000000
FFC0000000
FFC0000000
FFC0000000
FFC0000000
ENDCHAR
STARTCHAR 0047
ENCODING 71
SWIDTH 732 0
DWIDTH 59 0
BBX 52 60 3 -1
BITMAP
000000FFF80000
00000FFFFF8000
00007FFFFFF000
0001FFFFFFFC00
0007FFFFFFFF00
000FFFFFFFFF80
003FFFFFFFFFE0
007FFFFFFFFFF0
00FFFFFFFFFFE0
01FFFF801FFFC0
03FFFC0001FFC0
03FFF000007F80
07FFE000001F80
0FFFC000000600
0FFF8000000000
1FFF0000000000
1FFE0000000000
3FFC0000000000
3FFC0000000000
3FF80000000000
7FF80000000000
7FF80000000000
7FF00000000000
7FF00000000000
FFF00000000000
FFF00000000000
FFE00000000000
FFE00000000000
FFE00000000000
FFE00000000000
FFE00000FFFFF0
FFE00000FFFFF0
FFE00000FFFFF0
FFE00000FFFFF0
FFE00000FFFFF0
FFF00000FFFFF0
7FF00000FFFFF0
7FF000007FFFF0
7FF00000003FF0
7FF80000003FF0
3FF80000003FF0
3FF80000003FF0
3FFC0000003FF0
1FFE0000003FF0
1FFE0000003FF0
0FFF0000003FF0
0FFF8000003FF0
07FFC000003FF0
03FFE000003FF0
01FFF800003FF0
00FFFE0001FFF0
007FFFC00FFFF0
003FFFFFFFFFF0
001FFFFFFFFFF0
000FFFFFFFFFE0
0003FFFFFFFFC0
0000FFFFFFFF00
00003FFFFFFC00
000007FFFFE000
0000007FFC0000
ENDCHAR
STARTCHAR 0048
ENCODING 72
SWIDTH 769 0
DWIDTH 62 0
BBX 49 58 7 0
BITMAP
FFC0000003FF80
FFC0000003FF80
FFC0000003FF80
FFC0000003FF80
FFC0000003FF80
FFC0000003FF80
FFC0000003FF80
FFC0000003FF80
FFC0000003FF80
FFC0000003FF80
FFC0000003FF80
FFC0000003FF80
FFC0000003FF80
FFC0000003FF80
FFC0000003FF80
FFC0000003FF80
FFC0000003FF80
FFC0000003FF80
FFC0000003FF80
FFC0000003FF80
FFC0000003FF80
FFC0000003FF80
FFC0000003FF80
FFC0000003FF80
FFC0000003FF80
FFFFFFFFFFFF80
FFFFFFFFFFFF80
FFFFFFFFFFFF80
FFFFFFFFFFFF80
FFFFFFFFFFFF80
FFFFFFFFFFFF80
FFFFFFFFFFFF80
FFFFFFFFFFFF80
FFC0000003FF80
FFC0000003FF80
FFC0000003FF80
FFC0000003FF80
FFC0000003FF80
FFC0000003FF80
FFC0000003FF80
FFC0000003FF80
FFC0000003FF80
FFC0000003FF80
FFC0000003FF80
FFC0000003FF80
FFC0000003FF80
FFC0000003FF80
FFC0000003FF80
FFC0000003FF80
FFC0000003FF80
FFC0000003FF80
FFC0000003FF80
FFC0000003FF80
FFC0000003FF80
FFC0000003FF80
FFC0000003FF80
FFC0000003FF80
FFC0000003FF80
ENDCHAR
STARTCHAR 0049
ENCODING 73
SWIDTH 297 0
DWIDTH 24 0
BBX 10 58 7 0
BITMAP
FFC0
FFC0
FFC0
FFC0
FFC0
FFC0
FFC0
FFC0
FFC0
FFC0
FFC0
FFC0
FFC0
FFC0
FFC0
FFC0
FFC0
FFC0
FFC0
FFC0
FFC0
FFC0
FFC0
FFC0
FFC0
FFC0
FFC0
FFC0
FFC0
FFC0
FFC0
FFC0
FFC0
FFC0
FFC0
FFC0
FFC0
FFC0
FFC0
FFC0
FFC0
FFC0
FFC0
FFC0
FFC0
FFC0
FFC0
FFC0
FFC0
FFC0
FFC0
FFC0
FFC0
FFC0
FFC0
FFC0
FFC0
FFC0
ENDCHAR
STARTCHAR 004A
ENCODING 74
SWIDTH 434 0
DWIDTH 35 0
BBX 28 59 1 -1
BITMAP
00007FF0
00007FF0
00007FF0
00007FF0
00007FF0
00007FF0
00007FF0
00007FF0
00007FF0
00007FF0
00007FF0
00007FF0
00007FF0
00007FF0
00007FF0
00007FF0
00007FF0
00007FF0
00007FF0
00007FF0
00007FF0
00007FF0
00007FF0
00007FF0
00007FF0
00007FF0
00007FF0
00007FF0
00007FF0
00007FF0
00007FF0
00007FF0
00007FF0
00007FF0
00007FF0
00007FF0
00007FF0
00007FF0
00007FF0
00007FF0
00007FF0
00007FF0
00007FF0
0000FFE0
0000FFE0
0000FFE0
0001FFE0
0003FFC0
0007FFC0
201FFF80
7FFFFF80
FFFFFF00
FFFFFF00
FFFFFE00
FFFFFC00
FFFFF800
FFFFE000
FFFF8000
1FFC0000
ENDCHAR
STARTCHAR 004B
ENCODING 75
SWIDTH 695 0
DWIDTH 56 0
BBX 49 58 7 0
BITMAP
FFC000000FFF00
FFC000003FFE00
FFC000007FFC00
FFC00000FFF800
FFC00000FFF000
FFC00001FFE000
FFC00003FFC000
FFC00007FFC000
FFC0000FFF8000
FFC0000FFF0000
FFC0001FFE0000
FFC0003FFC0000
FFC0007FF80000
FFC000FFF80000
FFC000FFF00000
FFC001FFE00000
FFC003FFC00000
FFC007FF800000
FFC00FFF000000
FFC01FFF000000
FFC01FFE000000
FFC03FFC000000
FFC07FF8000000
FFC0FFF0000000
FFFFFFE0000000
FFFFFFC0000000
FFFFFF80000000
FFFFFFC0000000
FFFFFFE0000000
FFFFFFF0000000
FFFFFFF8000000
FFFFFFFC000000
FFC07FFC000000
FFC03FFE000000
FFC01FFF000000
FFC00FFF800000
FFC00FFF800000
FFC007FFC00000
FFC003FFE00000
FFC001FFF00000
FFC001FFF00000
FFC000FFF80000
FFC0007FFC0000
FFC0003FFC0000
FFC0001FFE0000
FFC0001FFF0000
FFC0000FFF8000
FFC00007FF8000
FFC00003FFC000
FFC00003FFE000
FFC00001FFF000
FFC00000FFF000
FFC000007FF800
FFC000007FFC00
FFC000003FFE00
FFC000001FFE00
FFC000000FFF00
FFC0000007FF80
ENDCHAR
STARTCHAR 004C
ENCODING 76
SWIDTH 521 0
DWIDTH 42 0
BBX 34 58 7 0
BITMAP
FFC0000000
FFC0000000
FFC0000000
FFC0000000
FFC0000000
FFC0000000
FFC0000000
FFC0000000
FFC0000000
FFC0000000
FFC0000000
FFC0000000
FFC0000000
FFC0000000
FFC0000000
FFC0000000
FFC0000000
FFC0000000
FFC0000000
FFC0000000
FFC0000000
FFC0000000
FFC0000000
FFC0000000
FFC0000000
FFC0000000
FFC0000000
FFC0000000
FFC0000000
FFC0000000
FFC0000000
FFC0000000
FFC0000000
FFC0000000
FFC0000000
FFC0000000
FFC0000000
FFC0000000
FFC0000000
FFC0000000
FFC0000000
FFC0000000
FFC0000000
FFC0000000
FFC0000000
FFC0000000
FFC0000000
FFC0000000
FFC0000000
FFFFFFFFC0
FFFFFFFFC0
FFFFFFFFC0
FFFFFFFFC0
FFFFFFFFC0
FFFFFFFFC0
FFFFFFFFC0
FFFFFFFFC0
FFFFFFFFC0
ENDCHAR
STARTCHAR 004D
ENCODING 77
SWIDTH 955 0
DWIDTH 77 0
BBX 63 58 7 0
BITMAP
FFC0000000000FFE
FFE0000000001FFE
FFF0000000001FFE
FFF0000000003FFE
FFF8000000003FFE
FFF8000000007FFE
FFFC000000007FFE
FFFE00000000FFFE
FFFE00000001FFFE
FFFF00000001FFFE
FFFF00000003FFFE
FFFF80000003FFFE
FFFF80000007FFFE
FFFFC0000007FFFE
FFFFC000000FFFFE
FFFFE000000FFFFE
FFBFE000001FFBFE
FFBFF000001FFBFE
FF9FF800003FF7FE
FF9FF800003FF7FE
FF8FFC00007FE7FE
FF8FFC0000FFE7FE
FF87FE0000FFC7FE
FF87FE0001FFC7FE
FF83FF0001FF87FE
FF83FF0003FF87FE
FF81FF8003FF07FE
FF81FF8007FE07FE
FF80FFC007FE07FE
FF807FC00FFC07FE
FF807FE00FFC07FE
FF803FF01FF807FE
FF803FF01FF807FE
FF801FF83FF007FE
FF801FF83FF007FE
FF800FFC7FE007FE
FF800FFC7FE007FE
FF8007FEFFC007FE
FF8007FEFF8007FE
FF8003FFFF8007FE
FF8003FFFF0007FE
FF8001FFFF0007FE
FF8001FFFE0007FE
FF8000FFFE0007FE
FF80007FFC0007FE
FF80007FFC0007FE
FF80003FF80007FE
FF80003FF80007FE
FF80001FF00007FE
FF80001FE00007FE
FF800007C00007FE
FF800000000007FE
FF800000000007FE
FF800000000007FE
FF800000000007FE
FF800000000007FE
FF800000000007FE
FF800000000007FE
ENDCHAR
STARTCHAR 004E
ENCODING 78
SWIDTH 769 0
DWIDTH 62 0
BBX 49 58 7 0
BITMAP
FF00000001FF80
FF80000001FF80
FF80000001FF80
FFC0000001FF80
FFE0000001FF80
FFF0000001FF80
FFF8000001FF80
FFF8000001FF80
FFFC000001FF80
FFFE000001FF80
FFFF000001FF80
FFFF800001FF80
FFFF800001FF80
FFFFC00001FF80
FFFFE00001FF80
FFFFF00001FF80
FFFFF00001FF80
FFFFF80001FF80
FFFFFC0001FF80
FFBFFE0001FF80
FF9FFF0001FF80
FF8FFF0001FF80
FF87FF8001FF80
FF87FFC001FF80
FF83FFE001FF80
FF81FFE001FF80
FF80FFF001FF80
FF807FF801FF80
FF807FFC01FF80
FF803FFE01FF80
FF801FFE01FF80
FF800FFF01FF80
FF8007FF81FF80
FF8007FFC1FF80
FF8003FFE1FF80
FF8001FFE1FF80
FF8000FFF1FF80
FF80007FF9FF80
FF80007FFDFF80
FF80003FFDFF80
FF80001FFEFF80
FF80000FFFFF80
FF800007FFFF80
FF800007FFFF80
FF800003FFFF80
FF800001FFFF80
FF800000FFFF80
FF8000007FFF80
FF8000007FFF80
FF8000003FFF80
FF8000001FFF80
FF8000000FFF80
FF80000007FF80
FF80000007FF80
FF80000003FF80
FF80000001FF80
FF80000000FF80
FF800000007F80
ENDCHAR
STARTCHAR 004F
ENCODING 79
SWIDTH 806 0
DWIDTH 65 0
BBX 59 60 3 -1
BITMAP
000000FFE0000000
00000FFFFF000000
00007FFFFFC00000
0001FFFFFFF00000
0007FFFFFFFC0000
000FFFFFFFFF0000
003FFFFFFFFF8000
007FFFFFFFFFC000
00FFFFFFFFFFE000
01FFFF803FFFF000
03FFFC0003FFF800
03FFF00001FFFC00
07FFC000007FFC00
0FFF8000003FFE00
0FFF0000001FFF00
1FFE0000000FFF00
1FFE00000007FF80
3FFC00000007FF80
3FFC00000003FF80
3FF800000003FFC0
7FF800000001FFC0
7FF000000001FFC0
7FF000000001FFE0
7FF000000000FFE0
FFF000000000FFE0
FFE000000000FFE0
FFE000000000FFE0
FFE000000000FFE0
FFE000000000FFE0
FFE000000000FFE0
FFE000000000FFE0
FFE000000000FFE0
FFE000000000FFE0
FFE000000000FFE0
FFE000000000FFE0
FFF000000000FFE0
7FF000000000FFE0
7FF000000001FFE0
7FF000000001FFC0
7FF800000001FFC0
3FF800000003FFC0
3FFC00000003FF80
3FFC00000007FF80
1FFE00000007FF80
1FFE0000000FFF00
0FFF0000001FFF00
0FFF8000003FFE00
07FFC000007FFC00
03FFF00001FFFC00
03FFFC0003FFF800
01FFFF803FFFF000
00FFFFFFFFFFE000
007FFFFFFFFFC000
003FFFFFFFFF8000
000FFFFFFFFF0000
0007FFFFFFFC0000
0001FFFFFFF80000
00007FFFFFC00000
00000FFFFF000000
000000FFF0000000
ENDCHAR
STARTCHAR 0050
ENCODING 80
SWIDTH 620 0
DWIDTH 50 0
BBX 41 58 7 0
BITMAP
FFFFFF800000
FFFFFFF80000
FFFFFFFF0000
FFFFFFFFC000
FFFFFFFFE000
FFFFFFFFF000
FFFFFFFFF800
FFFFFFFFFC00
FFC001FFFE00
FFC0003FFE00
FFC0001FFF00
FFC0000FFF00
FFC00007FF80
FFC00007FF80
FFC00003FF80
FFC00003FF80
FFC00003FF80
FFC00003FF80
FFC00003FF80
FFC00003FF80
FFC00003FF80
FFC00003FF80
FFC00003FF80
FFC00007FF80
FFC00007FF00
FFC0000FFF00
FFC0001FFF00
FFC0007FFE00
FFC001FFFE00
FFFFFFFFFC00
FFFFFFFFF800
FFFFFFFFF000
FFFFFFFFE000
FFFFFFFF8000
FFFFFFFE0000
FFFFFFF80000
FFFFFF800000
FFC000000000
FFC000000000
FFC000000000
FFC000000000
FFC000000000
FFC000000000
FFC000000000
FFC000000000
FFC000000000
FFC000000000
FFC000000000
FFC000000000
FFC000000000
FFC000000000
FFC000000000
FFC000000000
FFC000000000
FFC000000000
FFC000000000
FFC000000000
FFC000000000
ENDCHAR
STARTCHAR 0051
ENCODING 81
SWIDTH 806 0
DWIDTH 65 0
BBX 62 71 3 -12
BITMAP
000000FFE0000000
00000FFFFF000000
00007FFFFFC00000
0001FFFFFFF00000
0007FFFFFFFC0000
000FFFFFFFFF0000
003FFFFFFFFF8000
007FFFFFFFFFC000
00FFFFFFFFFFE000
01FFFF803FFFF000
01FFFC0003FFF800
03FFF00001FFFC00
07FFE000007FFC00
0FFF8000003FFE00
0FFF0000001FFF00
1FFE0000000FFF00
1FFE00000007FF80
3FFC00000007FF80
3FFC00000003FF80
3FF800000003FFC0
7FF800000001FFC0
7FF000000001FFC0
7FF000000001FFE0
7FF000000000FFE0
FFF000000000FFE0
FFF000000000FFE0
FFE000000000FFE0
FFE000000000FFE0
FFE000000000FFE0
FFE000000000FFE0
FFE000000000FFE0
FFE000000000FFE0
FFE000000000FFE0
FFE000000000FFE0
FFF000000000FFE0
7FF000000000FFE0
7FF000000000FFE0
7FF000000001FFE0
7FF000000001FFC0
7FF800000001FFC0
3FF800000003FFC0
3FFC00000003FFC0
3FFC00000007FF80
1FFE00000007FF80
1FFE0000000FFF00
0FFF0000001FFF00
0FFF8000003FFE00
07FFC000007FFE00
03FFF00000FFFC00
01FFFC0003FFF800
01FFFF803FFFF000
00FFFFFFFFFFE000
007FFFFFFFFFC000
003FFFFFFFFF8000
000FFFFFFFFF0000
0007FFFFFFFF0000
0001FFFFFFFF8000
00007FFFFFFFC000
00000FFFFFFFE000
000000FFF1FFF000
0000000000FFF800
00000000007FFC00
00000000003FFE00
00000000001FFF00
00000000000FFF00
00000000000FFF80
000000000007FFC0
000000000003FFE0
000000000001FFF0
000000000000FFF8
0000000000003FFC
ENDCHAR
STARTCHAR 0052
ENCODING 82
SWIDTH 645 0
DWIDTH 52 0
BBX 45 58 7 0
BITMAP
FFFFFF000000
FFFFFFF00000
FFFFFFFE0000
FFFFFFFF8000
FFFFFFFFC000
FFFFFFFFF000
FFFFFFFFF800
FFFFFFFFF800
FFC003FFFC00
FFC0007FFC00
FFC0001FFE00
FFC0001FFE00
FFC0000FFE00
FFC00007FF00
FFC00007FF00
FFC00007FF00
FFC00007FF00
FFC00007FF00
FFC00007FF00
FFC00007FF00
FFC00007FE00
FFC0000FFE00
FFC0000FFE00
FFC0001FFC00
FFC0003FFC00
FFC000FFF800
FFC003FFF800
FFFFFFFFF000
FFFFFFFFE000
FFFFFFFFC000
FFFFFFFF0000
FFFFFFFC0000
FFFFFFF00000
FFFFFFF00000
FFFFFFF80000
FFC03FFC0000
FFC01FFE0000
FFC01FFE0000
FFC00FFF0000
FFC007FF8000
FFC007FF8000
FFC003FFC000
FFC001FFE000
FFC001FFE000
FFC000FFF000
FFC0007FF800
FFC0007FF800
FFC0003FFC00
FFC0001FFE00
FFC0001FFF00
FFC0000FFF00
FFC00007FF80
FFC00007FFC0
FFC00003FFC0
FFC00001FFE0
FFC00001FFF0
FFC00000FFF0
FFC000007FF8
ENDCHAR
STARTCHAR 0053
ENCODING 83
SWIDTH 546 0
DWIDTH 44 0
BBX 39 60 2 -1
BITMAP
0000FFE000
0007FFFE00
001FFFFF80
007FFFFFE0
00FFFFFFF0
01FFFFFFFC
03FFFFFFFC
07FFFFFFFC
07FFFFFFF8
0FFFC07FF8
0FFE000FF0
1FFC0003F0
1FF80000E0
1FF8000000
3FF8000000
3FF0000000
3FF0000000
3FF8000000
3FF8000000
3FF8000000
1FFC000000
1FFE000000
1FFF800000
1FFFF00000
0FFFFE0000
0FFFFFC000
07FFFFF000
03FFFFFE00
01FFFFFF80
00FFFFFFC0
003FFFFFE0
000FFFFFF0
0003FFFFF8
00007FFFFC
000007FFFC
000001FFFE
0000007FFE
0000001FFE
0000000FFE
00000007FE
00000007FE
00000007FE
00000007FE
00000007FE
00000007FE
00000007FE
0F00000FFE
1F80000FFC
3FE0001FFC
3FF8003FFC
7FFE01FFF8
FFFFFFFFF8
FFFFFFFFF0
7FFFFFFFE0
3FFFFFFFC0
0FFFFFFF80
03FFFFFF00
00FFFFFC00
003FFFF000
0003FF0000
ENDCHAR
STARTCHAR 0054
ENCODING 84
SWIDTH 608 0
DWIDTH 49 0
BBX 46 58 1 0
BITMAP
FFFFFFFFFFFC
FFFFFFFFFFFC
FFFFFFFFFFFC
FFFFFFFFFFFC
FFFFFFFFFFFC
FFFFFFFFFFFC
FFFFFFFFFFFC
FFFFFFFFFFFC
FFFFFFFFFFFC
00003FF80000
00003FF80000
00003FF80000
00003FF80000
00003FF80000
00003FF80000
00003FF80000
00003FF80000
00003FF80000
00003FF80000
00003FF80000
00003FF80000
00003FF80000
00003FF80000
00003FF80000
00003FF80000
00003FF80000
00003FF80000
00003FF80000
00003FF80000
00003FF80000
00003FF80000
00003FF80000
00003FF80000
00003FF80000
00003FF80000
00003FF80000
00003FF80000
00003FF80000
00003FF80000
00003FF80000
00003FF80000
00003FF80000
00003FF80000
00003FF80000
00003FF80000
00003FF80000
00003FF80000
00003FF80000
00003FF80000
00003FF80000
00003FF80000
00003FF80000
00003FF80000
00003FF80000
00003FF80000
00003FF80000
00003FF80000
00003FF80000
ENDCHAR
STARTCHAR 0055
ENCODING 85
SWIDTH 744 0
DWIDTH 60 0
BBX 48 59 6 -1
BITMAP
FFE0000007FF
FFE0000007FF
FFE0000007FF
FFE0000007FF
FFE0000007FF
FFE0000007FF
FFE0000007FF
FFE0000007FF
FFE0000007FF
FFE0000007FF
FFE0000007FF
FFE0000007FF
FFE0000007FF
FFE0000007FF
FFE0000007FF
FFE0000007FF
FFE0000007FF
FFE0000007FF
FFE0000007FF
FFE0000007FF
FFE0000007FF
FFE0000007FF
FFE0000007FF
FFE0000007FF
FFE0000007FF
FFE0000007FF
FFE0000007FF
FFE0000007FF
FFE0000007FF
FFE0000007FF
FFE0000007FF
FFE0000007FF
FFE0000007FF
FFE0000007FF
FFE0000007FF
FFE0000007FF
FFE0000007FF
FFE0000007FF
FFE0000007FF
FFE0000007FF
FFE0000007FF
7FF000000FFF
7FF000000FFE
7FF800000FFE
7FF800001FFE
3FFC00003FFC
3FFE00007FFC
1FFF0000FFF8
1FFF8001FFF8
0FFFF00FFFF0
07FFFFFFFFE0
03FFFFFFFFE0
01FFFFFFFFC0
00FFFFFFFF00
007FFFFFFE00
003FFFFFFC00
000FFFFFF000
0001FFFF8000
00003FFC0000
ENDCHAR
STARTCHAR 0056
ENCODING 86
SWIDTH 695 0
DWIDTH 56 0
BBX 57 58 0 0
BITMAP
FFC000000003FF80
FFE000000007FF00
7FF00000000FFF00
7FF00000000FFE00
7FF80000001FFE00
3FF80000001FFC00
3FFC0000001FFC00
1FFC0000003FFC00
1FFC0000003FF800
1FFE0000003FF800
0FFE0000007FF000
0FFE0000007FF000
07FF000000FFF000
07FF000000FFE000
07FF800000FFE000
03FF800001FFC000
03FF800001FFC000
01FFC00003FFC000
01FFC00003FF8000
00FFE00003FF8000
00FFE00007FF0000
00FFE00007FF0000
007FF00007FF0000
007FF0000FFE0000
003FF8000FFE0000
003FF8001FFC0000
003FF8001FFC0000
001FFC001FFC0000
001FFC003FF80000
000FFC003FF80000
000FFE007FF00000
000FFE007FF00000
0007FF007FE00000
0007FF00FFE00000
0003FF00FFE00000
0003FF81FFC00000
0003FF81FFC00000
0001FFC1FF800000
0001FFC3FF800000
0000FFC3FF800000
0000FFE3FF000000
0000FFE7FF000000
00007FE7FE000000
00007FF7FE000000
00003FF7FE000000
00003FFFFC000000
00001FFFFC000000
00001FFFF8000000
00001FFFF8000000
00000FFFF8000000
00000FFFF0000000
000007FFF0000000
000007FFE0000000
000007FFE0000000
000003FFC0000000
000003FFC0000000
000001FFC0000000
000001FF80000000
ENDCHAR
STARTCHAR 0057
ENCODING 87
SWIDTH 1055 0
DWIDTH 85 0
BBX 83 58 1 0
BITMAP
FFE0000003F80000007FE0
FFF0000007FE000000FFE0
FFF0000007FE000001FFE0
7FF800000FFF000001FFC0
7FF800000FFF000001FFC0
7FF800000FFF000003FFC0
3FFC00001FFF000003FF80
3FFC00001FFF800003FF80
3FFC00001FFF800003FF80
1FFC00003FFF800007FF00
1FFE00003FFFC00007FF00
1FFE00003FFFC00007FF00
0FFE00007FFFC0000FFF00
0FFF00007FFFE0000FFE00
0FFF00007FFFE0000FFE00
07FF0000FFFFE0000FFE00
07FF0000FFBFF0001FFC00
07FF8000FFBFF0001FFC00
07FF8001FF9FF0001FFC00
03FF8001FF1FF8003FF800
03FFC001FF1FF8003FF800
03FFC003FF0FF8003FF800
01FFC003FE0FFC003FF000
01FFC003FE0FFC007FF000
01FFE007FE0FFC007FF000
00FFE007FC07FE007FE000
00FFE007FC07FE00FFE000
00FFF00FFC07FE00FFE000
007FF00FF803FF00FFE000
007FF00FF803FF00FFC000
007FF01FF803FF01FFC000
003FF81FF001FF81FFC000
003FF81FF001FF81FF8000
003FF83FF001FF83FF8000
003FFC3FE000FFC3FF8000
001FFC3FE000FFC3FF0000
001FFC7FE000FFC3FF0000
001FFC7FC0007FE7FF0000
000FFE7FC0007FE7FE0000
000FFE7FC0007FE7FE0000
000FFEFF80003FF7FE0000
0007FEFF80003FFFFC0000
0007FFFF80003FFFFC0000
0007FFFF80001FFFFC0000
0003FFFF00001FFFFC0000
0003FFFF00001FFFF80000
0003FFFF00000FFFF80000
0001FFFE00000FFFF80000
0001FFFE00000FFFF00000
0001FFFE000007FFF00000
0001FFFC000007FFF00000
0000FFFC000007FFE00000
0000FFFC000003FFE00000
0000FFF8000003FFE00000
00007FF8000003FFC00000
00007FF8000001FFC00000
00007FF0000001FFC00000
00003FF0000001FF800000
ENDCHAR
STARTCHAR 0058
ENCODING 88
SWIDTH 670 0
DWIDTH 54 0
BBX 54 58 0 0
BITMAP
7FFC0000003FFC
3FFC0000007FF8
1FFE000000FFF0
1FFF000000FFE0
0FFF000001FFE0
07FF800003FFC0
07FFC00003FF80
03FFC00007FF80
03FFE0000FFF00
01FFE0000FFE00
00FFF0001FFE00
00FFF8001FFC00
007FF8003FF800
003FFC007FF800
003FFC007FF000
001FFE00FFE000
000FFF01FFE000
000FFF01FFC000
0007FF83FF8000
0003FFC7FF8000
0003FFC7FF0000
0001FFEFFE0000
0000FFEFFC0000
0000FFFFFC0000
00007FFFF80000
00003FFFF00000
00003FFFF00000
00001FFFE00000
00000FFFE00000
00001FFFF00000
00003FFFF00000
00003FFFF80000
00007FFFFC0000
0000FFFFFC0000
0000FFFFFE0000
0001FFCFFF0000
0003FFCFFF0000
0003FF87FF8000
0007FF03FFC000
000FFF03FFC000
000FFE01FFE000
001FFC01FFE000
003FFC00FFF000
003FF8007FF800
007FF8007FF800
00FFF0003FFC00
00FFE0003FFE00
01FFE0001FFE00
03FFC0000FFF00
03FF80000FFF80
07FF800007FF80
0FFF000003FFC0
0FFE000003FFE0
1FFE000001FFE0
3FFC000001FFF0
3FF8000000FFF0
7FF80000007FF8
FFF00000003FFC
ENDCHAR
STARTCHAR 0059
ENCODING 89
SWIDTH 645 0
DWIDTH 52 0
BBX 54 58 -1 0
BITMAP
FFF00000003FFC
7FF80000007FF8
3FFC0000007FF8
1FFC000000FFF0
1FFE000000FFE0
0FFE000001FFE0
0FFF000001FFC0
07FF000003FFC0
03FF800007FF80
03FFC00007FF00
01FFC0000FFF00
01FFE0000FFE00
00FFE0001FFE00
007FF0001FFC00
007FF0003FF800
003FF8003FF800
003FF8007FF000
001FFC007FF000
000FFC00FFE000
000FFE01FFC000
0007FF01FFC000
0007FF03FF8000
0003FF83FF8000
0003FF87FF0000
0001FFC7FE0000
0000FFCFFE0000
0000FFEFFC0000
00007FEFFC0000
00007FFFF80000
00003FFFF00000
00001FFFF00000
00001FFFE00000
00000FFFE00000
00000FFFC00000
000007FF800000
000003FF800000
000003FF800000
000003FF800000
000003FF800000
000003FF800000
000003FF800000
000003FF800000
000003FF800000
000003FF800000
000003FF800000
000003FF800000
000003FF800000
000003FF800000
000003FF800000
000003FF800000
000003FF800000
000003FF800000
000003FF800000
000003FF800000
000003FF800000
000003FF800000
000003FF800000
000003FF800000
ENDCHAR
STARTCHAR 005A
ENCODING 90
SWIDTH 608 0
DWIDTH 49 0
BBX 45 58 2 0
BITMAP
3FFFFFFFFFF8
3FFFFFFFFFF8
3FFFFFFFFFF8
3FFFFFFFFFF8
3FFFFFFFFFF8
3FFFFFFFFFF8
3FFFFFFFFFF0
3FFFFFFFFFF0
00000003FFE0
00000003FFC0
00000007FFC0
0000000FFF80
0000000FFF00
0000001FFF00
0000003FFE00
0000007FFC00
0000007FF800
000000FFF800
000001FFF000
000001FFE000
000003FFE000
000007FFC000
000007FF8000
00000FFF0000
00001FFF0000
00003FFE0000
00003FFC0000
00007FFC0000
0000FFF80000
0000FFF00000
0001FFF00000
0003FFE00000
0007FFC00000
0007FF800000
000FFF800000
001FFF000000
001FFE000000
003FFE000000
007FFC000000
007FF8000000
00FFF0000000
01FFF0000000
03FFE0000000
03FFC0000000
07FFC0000000
0FFF80000000
0FFF00000000
1FFF00000000
3FFE00000000
7FFC00000000
7FFFFFFFFFF0
FFFFFFFFFFF0
FFFFFFFFFFF0
FFFFFFFFFFF0
FFFFFFFFFFF0
FFFFFFFFFFF0
FFFFFFFFFFF0
FFFFFFFFFFF0
ENDCHAR
STARTCHAR 005B
ENCODING 91
SWIDTH 310 0
DWIDTH 25 0
BBX 16 75 7 -12
BITMAP
FFFF
FFFF
FFFF
FFFF
FFFF
FFFE
FF00
FF00
FF00
FF00
FF00
FF00
FF00
FF00
FF00
FF00
FF00
FF00
FF00
FF00
FF00
FF00
FF00
FF00
FF00
FF00
FF00
FF00
FF00
FF00
FF00
FF00
FF00
FF00
FF00
FF00
FF00
FF00
FF00
FF00
FF00
FF00
FF00
FF00
FF00
FF00
FF00
FF00
FF00
FF00
FF00
FF00
FF00
FF00
FF00
FF00
FF00
FF00
FF00
FF00
FF00
FF00
FF00
FF00
FF00
FF00
FF00
FF00
FF00
FFFE
FFFF
FFFF
FFFF
FFFF
FFFF
ENDCHAR
STARTCHAR 005C
ENCODING 92
SWIDTH 471 0
DWIDTH 38 0
BBX 33 63 2 -3
BITMAP
FE00000000
7F00000000
7F80000000
3FC0000000
3FC0000000
1FE0000000
1FE0000000
1FE0000000
0FF0000000
0FF0000000
0FF8000000
07F8000000
07F8000000
03FC000000
03FC000000
03FC000000
01FE000000
01FE000000
00FF000000
00FF000000
00FF000000
007F800000
007F800000
003FC00000
003FC00000
003FC00000
001FE00000
001FE00000
000FF00000
000FF00000
000FF00000
0007F80000
0007F80000
0003FC0000
0003FC0000
0003FC0000
0001FE0000
0001FE0000
0001FF0000
0000FF0000
0000FF0000
00007F8000
00007F8000
00007FC000
00003FC000
00003FC000
00001FE000
00001FE000
00001FE000
00000FF000
00000FF000
000007F800
000007F800
000007F800
000003FC00
000003FC00
000001FE00
000001FE00
000001FE00
000000FF00
000000FF00
0000007F80
0000003F80
ENDCHAR
STARTCHAR 005D
ENCODING 93
SWIDTH 310 0
DWIDTH 25 0
BBX 17 75 2 -12
BITMAP
FFFF80
FFFF80
FFFF80
FFFF80
FFFF80
7FFF80
00FF80
00FF80
00FF80
00FF80
00FF80
00FF80
00FF80
00FF80
00FF80
00FF80
00FF80
00FF80
00FF80
00FF80
00FF80
00FF80
00FF80
00FF80
00FF80
00FF80
00FF80
00FF80
00FF80
00FF80
00FF80
00FF80
00FF80
00FF80
00FF80
00FF80
00FF80
00FF80
00FF80
00FF80
00FF80
00FF80
00FF80
00FF80
00FF80
00FF80
00FF80
00FF80
00FF80
00FF80
00FF80
00FF80
00FF80
00FF80
00FF80
00FF80
00FF80
00FF80
00FF80
00FF80
00FF80
00FF80
00FF80
00FF80
00FF80
00FF80
00FF80
00FF80
00FF80
7FFF80
FFFF80
FFFF80
FFFF80
FFFF80
FFFF80
ENDCHAR
STARTCHAR 005E
ENCODING 94
SWIDTH 583 0
DWIDTH 47 0
BBX 39 31 4 27
BITMAP
0000FE0000
0001FE0000
0001FF0000
0003FF0000
0003FF8000
0007FF8000
0007FFC000
000FFFE000
000FFFE000
001FEFF000
001FEFF000
003FEFF800
003FC7F800
007FC7FC00
007F83FC00
00FF83FE00
00FF01FE00
01FF01FF00
03FE00FF00
03FE00FF80
07FC007F80
07FC007FC0
0FFC003FC0
0FF8003FE0
1FF8001FF0
1FF0001FF0
3FF0000FF8
3FE0000FF8
7FE00007FC
7FC00007FC
FF800003FE
ENDCHAR
STARTCHAR 005F
ENCODING 95
SWIDTH 471 0
DWIDTH 38 0
BBX 32 6 3 -12
BITMAP
FFFFFFFF
FFFFFFFF
FFFFFFFF
FFFFFFFF
FFFFFFFF
FFFFFFFF
ENDCHAR
STARTCHAR 0060
ENCODING 96
SWIDTH 397 0
DWIDTH 32 0
BBX 19 12 3 47
BITMAP
FFF000
3FF800
1FFC00
0FFC00
0FFE00
07FE00
03FF00
01FF80
00FF80
007FC0
003FC0
001FE0
ENDCHAR
STARTCHAR 0061
ENCODING 97
SWIDTH 508 0
DWIDTH 41 0
BBX 35 43 2 -1
BITMAP
0003FF0000
003FFFC000
00FFFFF000
03FFFFFC00
07FFFFFE00
1FFFFFFE00
3FFFFFFF00
3FFFFFFF80
1FFC07FF80
1FF003FFC0
0FC001FFC0
070000FFC0
000000FFC0
0000007FE0
0000007FE0
0000007FE0
0000007FE0
0000007FE0
0000007FE0
00007FFFE0
000FFFFFE0
007FFFFFE0
01FFFFFFE0
07FFFFFFE0
0FFFFFFFE0
1FFFC07FE0
3FFC007FE0
7FF0007FE0
7FE0007FE0
FFC0007FE0
FFC0007FE0
FFC0007FE0
FFC000FFE0
FFC001FFE0
FFE007FFE0
FFF01FFFE0
7FFFFFFFE0
7FFFFFBFE0
3FFFFF3FE0
1FFFFE1FE0
0FFFF81FE0
07FFF00FE0
00FF800000
ENDCHAR
STARTCHAR 0062
ENCODING 98
SWIDTH 571 0
DWIDTH 46 0
BBX 38 61 5 -1
BITMAP
FFC0000000
FFC0000000
FFC0000000
FFC0000000
FFC0000000
FFC0000000
FFC0000000
FFC0000000
FFC0000000
FFC0000000
FFC0000000
FFC0000000
FFC0000000
FFC0000000
FFC0000000
FFC0000000
FFC0000000
FFC0000000
FFC03FC000
FFC0FFF800
FFC3FFFE00
FFC7FFFF00
FFDFFFFF80
FFFFFFFFC0
FFFFFFFFE0
FFFFFFFFE0
FFFF03FFF0
FFFC00FFF0
FFF0007FF8
FFE0003FF8
FFC0003FF8
FFC0001FF8
FFC0001FFC
FFC0001FFC
FFC0000FFC
FFC0000FFC
FFC0000FFC
FFC0000FFC
FFC0000FFC
FFC0000FFC
FFC0000FFC
FFC0000FFC
FFC0000FFC
FFC0001FFC
FFC0001FFC
FFC0001FF8
FFC0001FF8
FFC0003FF8
FFC0003FF8
FFC0007FF0
FFE000FFF0
FFF001FFE0
FFFE07FFE0
FFFFFFFFC0
FFFFFFFFC0
FFBFFFFF80
FFBFFFFF00
FF9FFFFE00
FF87FFF800
FF03FFE000
00007F8000
ENDCHAR
STARTCHAR 0063
ENCODING 99
SWIDTH 484 0
DWIDTH 39 0
BBX 35 43 3 -1
BITMAP
0001FF8000
000FFFF000
007FFFFC00
00FFFFFE00
01FFFFFF80
07FFFFFFC0
07FFFFFFC0
0FFFFFFF80
1FFF80FF80
3FFE003F00
3FFC000E00
3FF8000000
7FF0000000
7FE0000000
7FE0000000
FFE0000000
FFC0000000
FFC0000000
FFC0000000
FFC0000000
FFC0000000
FFC0000000
FFC0000000
FFC0000000
FFC0000000
FFC0000000
FFC0000000
FFE0000000
7FE0000000
7FE0000000
7FF0000000
3FF8000600
3FFC000F00
3FFE003F80
1FFF80FFC0
0FFFFFFFE0
0FFFFFFFC0
07FFFFFF80
03FFFFFF00
00FFFFFE00
007FFFF800
001FFFE000
0003FF0000
ENDCHAR
STARTCHAR 0064
ENCODING 100
SWIDTH 571 0
DWIDTH 46 0
BBX 38 61 3 -1
BITMAP
0000000FFC
0000000FFC
0000000FFC
0000000FFC
0000000FFC
0000000FFC
0000000FFC
0000000FFC
0000000FFC
0000000FFC
0000000FFC
0000000FFC
0000000FFC
0000000FFC
0000000FFC
0000000FFC
0000000FFC
0000000FFC
0007FC0FFC
001FFF0FFC
007FFFCFFC
01FFFFEFFC
03FFFFFFFC
07FFFFFFFC
0FFFFFFFFC
0FFFFFFFFC
1FFF81FFFC
1FFE007FFC
3FFC001FFC
3FF8000FFC
7FF0000FFC
7FF0000FFC
7FE0000FFC
FFE0000FFC
FFE0000FFC
FFC0000FFC
FFC0000FFC
FFC0000FFC
FFC0000FFC
FFC0000FFC
FFC0000FFC
FFC0000FFC
FFC0000FFC
FFC0000FFC
FFC0000FFC
FFE0000FFC
FFE0000FFC
7FE0000FFC
7FF0000FFC
7FF0001FFC
7FF8003FFC
3FFC00FFFC
3FFF03FFFC
1FFFFFFFFC
1FFFFFFFFC
0FFFFFF7FC
07FFFFE7FC
03FFFF87FC
01FFFF07FC
007FFC03FC
001FE00000
ENDCHAR
STARTCHAR 0065
ENCODING 101
SWIDTH 533 0
DWIDTH 43 0
BBX 38 43 3 -1
BITMAP
0001FF0000
000FFFE000
007FFFF800
00FFFFFE00
01FFFFFF00
03FFFFFF80
07FFFFFFC0
0FFF81FFE0
1FFC007FE0
3FF8003FF0
3FF0001FF0
7FF0000FF0
7FE0000FF8
7FE0000FF8
FFC0000FF8
FFC00007F8
FFC00007FC
FFFFFFFFFC
FFFFFFFFFC
FFFFFFFFFC
FFFFFFFFFC
FFFFFFFFF8
FFFFFFFFF8
FFC0000000
FFC0000000
FFC0000000
FFC0000000
FFC0000000
7FE0000000
7FE0000000
7FF0000000
3FF8000080
3FFC0003C0
1FFE000FE0
1FFF807FF0
0FFFFFFFF8
07FFFFFFF8
03FFFFFFF0
01FFFFFFE0
00FFFFFF80
003FFFFF00
000FFFF800
0001FF8000
ENDCHAR
STARTCHAR 0066
ENCODING 102
SWIDTH 360 0
DWIDTH 29 0
BBX 27 59 2 0
BITMAP
00007F80
0003FFE0
000FFFE0
001FFFE0
003FFFE0
007FFFE0
00FFFFC0
01FFFFC0
01FFF000
01FFC000
03FF8000
03FF0000
03FF0000
03FF0000
03FF0000
03FF0000
03FF0000
03FF0000
FFFFFFC0
FFFFFFC0
FFFFFFC0
FFFFFFC0
FFFFFFC0
FFFFFFC0
3FFFFFC0
03FF0000
03FF0000
03FF0000
03FF0000
03FF0000
03FF0000
03FF0000
03FF0000
03FF0000
03FF0000
03FF0000
03FF0000
03FF0000
03FF0000
03FF0000
03FF0000
03FF0000
03FF0000
03FF0000
03FF0000
03FF0000
03FF0000
03FF0000
03FF0000
03FF0000
03FF0000
03FF0000
03FF0000
03FF0000
03FF0000
03FF0000
03FF0000
03FF0000
03FF0000
ENDCHAR
STARTCHAR 0067
ENCODING 103
SWIDTH 533 0
DWIDTH 43 0
BBX 39 56 2 -14
BITMAP
0007FE0000
003FFFC000
00FFFFFFFE
03FFFFFFFE
07FFFFFFFE
0FFFFFFFFE
0FFFFFFFFE
1FFE03FFFE
3FF801FFE0
3FF000FFC0
3FE0007FC0
3FE0007FC0
3FE0007FC0
3FE0007FC0
3FE0007FC0
3FE0007FC0
3FE0007FC0
3FF000FFC0
1FF801FF80
1FFE07FF80
0FFFFFFF00
07FFFFFE00
03FFFFFC00
00FFFFF000
01FFFFC000
03FFFE0000
07F0000000
0FF0000000
0FF0000000
1FF0000000
1FFC000000
1FFFFFF000
1FFFFFFF00
1FFFFFFFC0
0FFFFFFFF0
07FFFFFFF8
03FFFFFFF8
07FFFFFFFC
0FFFFFFFFC
3FE0007FFC
7FC0000FFE
7F800007FE
FF800007FE
FF800007FC
FF800007FC
FF800007FC
FFC0000FF8
FFE0001FF8
7FFC00FFF0
7FFFFFFFE0
3FFFFFFFE0
1FFFFFFF80
0FFFFFFF00
03FFFFFC00
00FFFFF000
000FFF0000
ENDCHAR
STARTCHAR 0068
ENCODING 104
SWIDTH 571 0
DWIDTH 46 0
BBX 36 60 5 0
BITMAP
FFC0000000
FFC0000000
FFC0000000
FFC0000000
FFC0000000
FFC0000000
FFC0000000
FFC0000000
FFC0000000
FFC0000000
FFC0000000
FFC0000000
FFC0000000
FFC0000000
FFC0000000
FFC0000000
FFC0000000
FFC0000000
FFC03FC000
FFC1FFF800
FFC7FFFC00
FFCFFFFF00
FFDFFFFF80
FFFFFFFF80
FFFFFFFFC0
FFFFFFFFC0
FFFF03FFE0
FFFC00FFE0
FFF0007FF0
FFE0007FF0
FFC0003FF0
FFC0003FF0
FFC0003FF0
FFC0003FF0
FFC0003FF0
FFC0003FF0
FFC0003FF0
FFC0003FF0
FFC0003FF0
FFC0003FF0
FFC0003FF0
FFC0003FF0
FFC0003FF0
FFC0003FF0
FFC0003FF0
FFC0003FF0
FFC0003FF0
FFC0003FF0
FFC0003FF0
FFC0003FF0
FFC0003FF0
FFC0003FF0
FFC0003FF0
FFC0003FF0
FFC0003FF0
FFC0003FF0
FFC0003FF0
FFC0003FF0
FFC0003FF0
FFC0003FF0
ENDCHAR
STARTCHAR 0069
ENCODING 105
SWIDTH 260 0
DWIDTH 21 0
BBX 13 60 4 0
BITMAP
0F80
3FC0
7FE0
7FF0
FFF0
FFF8
FFF8
FFF8
FFF0
7FF0
7FE0
3FC0
0F80
0000
0000
0000
0000
0000
0000
7FE0
7FE0
7FE0
7FE0
7FE0
7FE0
7FE0
7FE0
7FE0
7FE0
7FE0
7FE0
7FE0
7FE0
7FE0
7FE0
7FE0
7FE0
7FE0
7FE0
7FE0
7FE0
7FE0
7FE0
7FE0
7FE0
7FE0
7FE0
7FE0
7FE0
7FE0
7FE0
7FE0
7FE0
7FE0
7FE0
7FE0
7FE0
7FE0
7FE0
7FE0
ENDCHAR
STARTCHAR 006A
ENCODING 106
SWIDTH 260 0
DWIDTH 21 0
BBX 20 74 -3 -14
BITMAP
001F00
007F80
00FFC0
00FFE0
01FFE0
01FFF0
01FFF0
01FFF0
01FFE0
00FFE0
00FFC0
007F80
001F00
000000
000000
000000
000000
000000
000000
00FFC0
00FFC0
00FFC0
00FFC0
00FFC0
00FFC0
00FFC0
00FFC0
00FFC0
00FFC0
00FFC0
00FFC0
00FFC0
00FFC0
00FFC0
00FFC0
00FFC0
00FFC0
00FFC0
00FFC0
00FFC0
00FFC0
00FFC0
00FFC0
00FFC0
00FFC0
00FFC0
00FFC0
00FFC0
00FFC0
00FFC0
00FFC0
00FFC0
00FFC0
00FFC0
00FFC0
00FFC0
00FFC0
00FFC0
00FFC0
00FFC0
00FFC0
00FFC0
00FFC0
00FFC0
01FFC0
03FFC0
7FFF80
FFFF80
FFFF80
FFFF00
FFFE00
FFFC00
FFF000
7FC000
ENDCHAR
STARTCHAR 006B
ENCODING 107
SWIDTH 533 0
DWIDTH 43 0
BBX 38 60 5 0
BITMAP
FFC0000000
FFC0000000
FFC0000000
FFC0000000
FFC0000000
FFC0000000
FFC0000000
FFC0000000
FFC0000000
FFC0000000
FFC0000000
FFC0000000
FFC0000000
FFC0000000
FFC0000000
FFC0000000
FFC0000000
FFC0000000
FFC0000000
FFC0003FFC
FFC0007FF0
FFC000FFE0
FFC001FFE0
FFC003FFC0
FFC003FF80
FFC007FF00
FFC00FFE00
FFC01FFC00
FFC03FF800
FFC07FF000
FFC07FF000
FFC0FFE000
FFC1FFC000
FFC3FF8000
FFFFFF0000
FFFFFE0000
FFFFFC0000
FFFFFE0000
FFFFFF0000
FFFFFF0000
FFFFFF8000
FFC3FFC000
FFC1FFC000
FFC0FFE000
FFC07FF000
FFC07FF000
FFC03FF800
FFC01FFC00
FFC01FFC00
FFC00FFE00
FFC007FF00
FFC007FF00
FFC003FF80
FFC001FFC0
FFC001FFE0
FFC000FFE0
FFC0007FF0
FFC0007FF8
FFC0003FF8
FFC0001FFC
ENDCHAR
STARTCHAR 006C
ENCODING 108
SWIDTH 248 0
DWIDTH 20 0
BBX 10 60 5 0
BITMAP
FFC0
FFC0
FFC0
FFC0
FFC0
FFC0
FFC0
FFC0
FFC0
FFC0
FFC0
FFC0
FFC0
FFC0
FFC0
FFC0
FFC0
FFC0
FFC0
FFC0
FFC0
FFC0
FFC0
FFC0
FFC0
FFC0
FFC0
FFC0
FFC0
FFC0
FFC0
FFC0
FFC0
FFC0
FFC0
FFC0
FFC0
FFC0
FFC0
FFC0
FFC0
FFC0
FFC0
FFC0
FFC0
FFC0
FFC0
FFC0
FFC0
FFC0
FFC0
FFC0
FFC0
FFC0
FFC0
FFC0
FFC0
FFC0
FFC0
FFC0
ENDCHAR
STARTCHAR 006D
ENCODING 109
SWIDTH 844 0
DWIDTH 68 0
BBX 58 42 5 0
BITMAP
00007F0000FF0000
FF03FFC007FFE000
FF07FFE01FFFF800
FF9FFFF03FFFFC00
FFBFFFF87FFFFE00
FFBFFFFCFFFFFF00
FFFFFFFDFFFFFF00
FFFFFFFDFFFFFF80
FFFE0FFFFE0FFF80
FFF803FFF803FF80
FFF001FFF001FFC0
FFE001FFE001FFC0
FFC000FFE000FFC0
FFC000FFC000FFC0
FFC000FFC000FFC0
FFC000FFC000FFC0
FFC000FFC000FFC0
FFC000FFC000FFC0
FFC000FFC000FFC0
FFC000FFC000FFC0
FFC000FFC000FFC0
FFC000FFC000FFC0
FFC000FFC000FFC0
FFC000FFC000FFC0
FFC000FFC000FFC0
FFC000FFC000FFC0
FFC000FFC000FFC0
FFC000FFC000FFC0
FFC000FFC000FFC0
FFC000FFC000FFC0
FFC000FFC000FFC0
FFC000FFC000FFC0
FFC000FFC000FFC0
FFC000FFC000FFC0
FFC000FFC000FFC0
FFC000FFC000FFC0
FFC000FFC000FFC0
FFC000FFC000FFC0
FFC000FFC000FFC0
FFC000FFC000FFC0
FFC000FFC000FFC0
FFC000FFC000FFC0
ENDCHAR
STARTCHAR 006E
ENCODING 110
SWIDTH 571 0
DWIDTH 46 0
BBX 36 42 5 0
BITMAP
00001FC000
FF00FFF800
FF03FFFC00
FF8FFFFF00
FF9FFFFF80
FFBFFFFF80
FFFFFFFFC0
FFFFFFFFC0
FFFF03FFE0
FFFC00FFE0
FFF0007FF0
FFE0007FF0
FFC0003FF0
FFC0003FF0
FFC0003FF0
FFC0003FF0
FFC0003FF0
FFC0003FF0
FFC0003FF0
FFC0003FF0
FFC0003FF0
FFC0003FF0
FFC0003FF0
FFC0003FF0
FFC0003FF0
FFC0003FF0
FFC0003FF0
FFC0003FF0
FFC0003FF0
FFC0003FF0
FFC0003FF0
FFC0003FF0
FFC0003FF0
FFC0003FF0
FFC0003FF0
FFC0003FF0
FFC0003FF0
FFC0003FF0
FFC0003FF0
FFC0003FF0
FFC0003FF0
FFC0003FF0
ENDCHAR
STARTCHAR 006F
ENCODING 111
SWIDTH 583 0
DWIDTH 47 0
BBX 41 43 3 -1
BITMAP
0001FF800000
000FFFF80000
003FFFFE0000
00FFFFFF0000
01FFFFFFC000
03FFFFFFE000
07FFFFFFF000
0FFFFFFFF800
1FFF80FFF800
1FFE003FFC00
3FF8001FFC00
3FF8000FFE00
7FF00007FE00
7FE00007FF00
7FE00003FF00
FFE00003FF00
FFC00003FF00
FFC00003FF80
FFC00003FF80
FFC00003FF80
FFC00003FF80
FFC00003FF80
FFC00003FF80
FFC00003FF80
FFC00003FF80
FFC00003FF80
FFC00003FF00
FFE00003FF00
7FE00003FF00
7FE00007FF00
7FF00007FE00
3FF0000FFE00
3FF8001FFC00
1FFE003FFC00
1FFF80FFF800
0FFFFFFFF800
07FFFFFFF000
03FFFFFFE000
01FFFFFFC000
00FFFFFF8000
003FFFFE0000
000FFFF80000
0001FF800000
ENDCHAR
STARTCHAR 0070
ENCODING 112
SWIDTH 571 0
DWIDTH 46 0
BBX 38 55 5 -13
BITMAP
00001FE000
FF00FFF800
FF03FFFE00
FF87FFFF00
FF8FFFFF80
FFBFFFFFC0
FFBFFFFFE0
FFFFFFFFE0
FFFF03FFF0
FFFC00FFF0
FFF0007FF8
FFE0003FF8
FFC0003FF8
FFC0001FF8
FFC0001FFC
FFC0001FFC
FFC0000FFC
FFC0000FFC
FFC0000FFC
FFC0000FFC
FFC0000FFC
FFC0000FFC
FFC0000FFC
FFC0000FFC
FFC0000FFC
FFC0000FFC
FFC0001FFC
FFC0001FFC
FFC0001FF8
FFC0003FF8
FFC0003FF8
FFC0007FF0
FFE000FFF0
FFF001FFE0
FFFE07FFE0
FFFFFFFFC0
FFFFFFFFC0
FFFFFFFF80
FFFFFFFF00
FFDFFFFE00
FFCFFFF800
FFC3FFE000
FFC0FF8000
FFC0000000
FFC0000000
FFC0000000
FFC0000000
FFC0000000
FFC0000000
FFC0000000
FFC0000000
FFC0000000
FFC0000000
FFC0000000
FFC0000000
ENDCHAR
STARTCHAR 0071
ENCODING 113
SWIDTH 571 0
DWIDTH 46 0
BBX 38 55 3 -13
BITMAP
0007FC0000
001FFF03FC
007FFFC3FC
01FFFFE7FC
03FFFFF7FC
07FFFFFFFC
0FFFFFFFFC
0FFFFFFFFC
1FFF81FFFC
1FFE007FFC
3FFC001FFC
3FF8000FFC
7FF0000FFC
7FF0000FFC
7FE0000FFC
FFE0000FFC
FFE0000FFC
FFC0000FFC
FFC0000FFC
FFC0000FFC
FFC0000FFC
FFC0000FFC
FFC0000FFC
FFC0000FFC
FFC0000FFC
FFC0000FFC
FFC0000FFC
FFE0000FFC
FFE0000FFC
7FE0000FFC
7FF0000FFC
7FF0001FFC
7FF8003FFC
3FFC00FFFC
3FFF03FFFC
1FFFFFFFFC
1FFFFFFFFC
0FFFFFFFFC
07FFFFEFFC
03FFFF8FFC
01FFFF0FFC
007FFC0FFC
001FF00FFC
0000000FFC
0000000FFC
0000000FFC
0000000FFC
0000000FFC
0000000FFC
0000000FFC
0000000FFC
0000000FFC
0000000FFC
0000000FFC
0000000FFC
ENDCHAR
STARTCHAR 0072
ENCODING 114
SWIDTH 372 0
DWIDTH 30 0
BBX 25 42 5 0
BITMAP
00007E00
FF01FF80
FF83FF80
FF87FF80
FF8FFF80
FF9FFF80
FFBFFF80
FFBFFF00
FFFFFF00
FFFFFF00
FFFF0000
FFFC0000
FFF80000
FFF00000
FFE00000
FFE00000
FFC00000
FFC00000
FFC00000
FFC00000
FFC00000
FFC00000
FFC00000
FFC00000
FFC00000
FFC00000
FFC00000
FFC00000
FFC00000
FFC00000
FFC00000
FFC00000
FFC00000
FFC00000
FFC00000
FFC00000
FFC00000
FFC00000
FFC00000
FFC00000
FFC00000
FFC00000
ENDCHAR
STARTCHAR 0073
ENCODING 115
SWIDTH 446 0
DWIDTH 36 0
BBX 31 43 2 -1
BITMAP
000FF800
007FFF80
01FFFFE0
03FFFFF0
0FFFFFF8
0FFFFFFE
1FFFFFFC
3FFFFFF8
3FFC07F8
3FF001F0
7FE00020
7FE00000
7FE00000
7FE00000
7FE00000
7FF80000
3FFC0000
3FFF8000
1FFFF000
1FFFFE00
0FFFFF80
07FFFFE0
01FFFFF0
007FFFF8
001FFFFC
0001FFFC
00007FFE
00001FFE
000007FE
000007FE
000003FE
000003FE
000007FE
1E0007FC
3F800FFC
7FE03FFC
7FFFFFF8
FFFFFFF0
7FFFFFE0
3FFFFFC0
0FFFFF80
03FFFE00
003FF000
ENDCHAR
STARTCHAR 0074
ENCODING 116
SWIDTH 372 0
DWIDTH 30 0
BBX 29 55 1 -1
BITMAP
001F8000
007F8000
007F8000
007F8000
007F8000
00FF8000
00FF8000
00FF8000
00FF8000
00FF8000
00FF8000
01FF8000
01FF8000
0FFFFFF0
FFFFFFF0
FFFFFFF0
FFFFFFF0
FFFFFFF0
FFFFFFF0
7FFFFFF0
01FF8000
01FF8000
01FF8000
01FF8000
01FF8000
01FF8000
01FF8000
01FF8000
01FF8000
01FF8000
01FF8000
01FF8000
01FF8000
01FF8000
01FF8000
01FF8000
01FF8000
01FF8000
01FF8000
01FF8000
01FF8000
01FF8000
01FF8000
01FF8000
01FF8000
01FF8000
01FFC3C0
01FFFFC0
01FFFFE0
00FFFFF0
00FFFFF0
007FFFF8
003FFFE0
001FFF80
0003FC00
ENDCHAR
STARTCHAR 0075
ENCODING 117
SWIDTH 571 0
DWIDTH 46 0
BBX 36 42 5 -1
BITMAP
FFC0003FF0
FFC0003FF0
FFC0003FF0
FFC0003FF0
FFC0003FF0
FFC0003FF0
FFC0003FF0
FFC0003FF0
FFC0003FF0
FFC0003FF0
FFC0003FF0
FFC0003FF0
FFC0003FF0
FFC0003FF0
FFC0003FF0
FFC0003FF0
FFC0003FF0
FFC0003FF0
FFC0003FF0
FFC0003FF0
FFC0003FF0
FFC0003FF0
FFC0003FF0
FFC0003FF0
FFC0003FF0
FFC0003FF0
FFC0003FF0
FFC0003FF0
FFC0003FF0
FFC0003FF0
FFC0007FF0
FFE000FFF0
FFF003FFF0
7FFC0FFFF0
7FFFFFFFF0
3FFFFFFFF0
3FFFFFDFF0
1FFFFF9FF0
0FFFFF1FF0
07FFFC1FF0
01FFF80FF0
007FC00000
ENDCHAR
STARTCHAR 0076
ENCODING 118
SWIDTH 533 0
DWIDTH 43 0
BBX 42 41 0 0
BITMAP
FFC000007FC0
7FE00000FFC0
7FF00001FF80
3FF00001FF80
3FF00001FF80
1FF80003FF00
1FF80003FF00
1FFC0003FE00
0FFC0007FE00
0FFC0007FE00
07FE0007FC00
07FE000FFC00
07FE000FF800
03FF001FF800
03FF001FF800
01FF001FF000
01FF803FF000
01FF803FE000
00FFC03FE000
00FFC07FE000
007FC07FC000
007FE0FFC000
007FE0FF8000
003FE0FF8000
003FF1FF8000
001FF1FF0000
001FF1FF0000
001FFBFE0000
000FFBFE0000
000FFBFE0000
0007FBFC0000
0007FFFC0000
0007FFF80000
0003FFF80000
0003FFF80000
0001FFF00000
0001FFF00000
0001FFE00000
0000FFE00000
0000FFE00000
00007FC00000
ENDCHAR
STARTCHAR 0077
ENCODING 119
SWIDTH 806 0
DWIDTH 65 0
BBX 63 41 1 0
BITMAP
FF80000FF00003FE
FFC0001FF80007FE
7FE0001FF80007FC
7FE0003FF8000FFC
7FE0003FFC000FFC
3FF0003FFC000FFC
3FF0007FFC000FF8
3FF0007FFC001FF8
3FF0007FFE001FF8
1FF800FFFE001FF0
1FF800FFFE003FF0
1FF800FEFF003FF0
0FF801FEFF003FE0
0FFC01FEFF003FE0
0FFC01FEFF807FE0
07FC01FC7F807FC0
07FE03FC7F807FC0
07FE03FC7F807FC0
03FE03F83FC0FF80
03FE07F83FC0FF80
03FF07F83FC0FF80
01FF07F01FE1FF00
01FF0FF01FE1FF00
01FF0FF01FE1FF00
00FF8FF01FF1FE00
00FF9FE00FF3FE00
00FF9FE00FF3FE00
007F9FE00FF3FC00
007FDFC007FBFC00
007FFFC007FFFC00
003FFFC007FFF800
003FFF8003FFF800
003FFF8003FFF800
003FFF8003FFF800
001FFF0001FFF000
001FFF0001FFF000
001FFF0001FFF000
000FFE0000FFE000
000FFE0000FFE000
000FFE0000FFE000
0007FC00007FC000
ENDCHAR
STARTCHAR 0078
ENCODING 120
SWIDTH 521 0
DWIDTH 42 0
BBX 42 41 0 0
BITMAP
7FF00001FF80
3FF80003FF00
1FFC0007FF00
1FFC0007FE00
0FFE000FFC00
07FF001FFC00
07FF001FF800
03FF803FF000
01FFC07FF000
01FFC07FE000
00FFE0FFC000
007FE0FF8000
007FF1FF8000
003FFBFF0000
001FFBFE0000
001FFFFE0000
000FFFFC0000
0007FFF80000
0007FFF80000
0003FFF00000
0003FFF00000
0007FFF80000
0007FFFC0000
000FFFFC0000
001FFFFE0000
001FFFFF0000
003FF3FF0000
007FF3FF8000
007FE1FFC000
00FFC0FFC000
01FFC0FFE000
01FF807FF000
03FF007FF000
07FF003FF800
07FE001FFC00
0FFC001FFC00
1FFC000FFE00
1FF8000FFF00
3FF00007FF00
7FF00003FF80
FFE00001FFC0
ENDCHAR
STARTCHAR 0079
ENCODING 121
SWIDTH 533 0
DWIDTH 43 0
BBX 43 54 0 -13
BITMAP
FFE000007FE0
7FF00000FFC0
7FF00000FFC0
3FF80001FF80
3FF80001FF80
1FF80003FF00
1FFC0003FF00
0FFC0003FE00
0FFE0007FE00
0FFE0007FE00
07FE000FFC00
07FF000FFC00
03FF000FF800
03FF801FF800
01FF801FF000
01FFC03FF000
00FFC03FF000
00FFC03FE000
007FE07FE000
007FE07FC000
007FF07FC000
003FF0FF8000
003FF8FF8000
001FF9FF0000
001FF9FF0000
000FFDFF0000
000FFFFE0000
0007FFFE0000
0007FFFC0000
0007FFFC0000
0003FFF80000
0003FFF80000
0001FFF80000
0001FFF00000
0000FFF00000
0000FFE00000
00007FE00000
00007FC00000
00007FC00000
0000FF800000
0000FF800000
0001FF800000
0001FF000000
0003FF000000
0003FE000000
0007FE000000
0007FC000000
000FFC000000
000FFC000000
001FF8000000
001FF8000000
003FF0000000
003FF0000000
007FE0000000
ENDCHAR
STARTCHAR 007A
ENCODING 122
SWIDTH 459 0
DWIDTH 37 0
BBX 33 41 2 0
BITMAP
7FFFFFFF80
7FFFFFFF80
7FFFFFFF80
7FFFFFFF80
7FFFFFFF80
7FFFFFFF80
7FFFFFFF00
7FFFFFFF00
000007FE00
00000FFC00
00001FF800
00001FF000
00003FF000
00007FE000
0000FFC000
0001FF8000
0001FF8000
0003FF0000
0007FE0000
000FFC0000
000FF80000
001FF80000
003FF00000
007FE00000
00FFC00000
00FFC00000
01FF800000
03FF000000
07FE000000
0FFC000000
0FFC000000
1FF8000000
3FF0000000
7FFFFFFF00
7FFFFFFF00
FFFFFFFF00
FFFFFFFF00
FFFFFFFF00
FFFFFFFF00
FFFFFFFF00
FFFFFFFF00
ENDCHAR
STARTCHAR 007B
ENCODING 123
SWIDTH 310 0
DWIDTH 25 0
BBX 20 75 2 -12
BITMAP
0007F0
003FF0
007FF0
01FFF0
03FFF0
03FFF0
07FE00
07FC00
0FF800
0FF800
0FF000
0FF000
1FF000
1FF000
1FF000
1FF000
0FF000
0FF000
0FF800
0FF800
0FF800
0FF800
0FF800
07F800
07F800
07F800
07FC00
07FC00
07FC00
07FC00
07FC00
07F800
07F800
0FF800
1FF000
FFE000
FFC000
FF8000
FF8000
FFC000
FFE000
1FF000
0FF800
07F800
07F800
07FC00
07FC00
07FC00
07FC00
07FC00
07F800
07F800
07F800
0FF800
0FF800
0FF800
0FF800
0FF000
0FF000
1FF000
1FF000
1FF000
1FF000
0FF000
0FF000
0FF800
0FF800
0FFC00
07FE00
03FFF0
03FFF0
01FFF0
007FF0
003FF0
0007F0
ENDCHAR
STARTCHAR 007C
ENCODING 124
SWIDTH 260 0
DWIDTH 21 0
BBX 7 76 7 -13
BITMAP
FE
FE
FE
FE
FE
FE
FE
FE
FE
FE
FE
FE
FE
FE
FE
FE
FE
FE
FE
FE
FE
FE
FE
FE
FE
FE
FE
FE
FE
FE
FE
FE
FE
FE
FE
FE
FE
FE
FE
FE
FE
FE
FE
FE
FE
FE
FE
FE
FE
FE
FE
FE
FE
FE
FE
FE
FE
FE
FE
FE
FE
FE
FE
FE
FE
FE
FE
FE
FE
FE
FE
FE
FE
FE
FE
FE
ENDCHAR
STARTCHAR 007D
ENCODING 125
SWIDTH 310 0
DWIDTH 25 0
BBX 20 75 2 -12
BITMAP
FE0000
FFC000
FFF000
FFF800
FFFC00
7FFE00
07FF00
01FF00
00FF80
00FF80
00FF80
007F80
007F80
007F80
007F80
00FF80
00FF80
00FF80
00FF80
00FF80
00FF80
00FF80
00FF00
00FF00
01FF00
01FF00
01FF00
01FF00
01FF00
01FF00
01FF00
01FF00
00FF00
00FF80
007FC0
007FF0
003FF0
000FF0
000FF0
001FF0
007FF0
007FC0
00FF80
00FF00
01FF00
01FF00
01FF00
01FF00
01FF00
01FF00
01FF00
00FF00
00FF00
00FF00
00FF80
00FF80
00FF80
00FF80
00FF80
00FF80
007F80
007F80
007F80
007F80
00FF80
00FF80
00FF80
01FF00
07FF00
7FFE00
FFFC00
FFFC00
FFF000
FFC000
FE0000
ENDCHAR
STARTCHAR 007E
ENCODING 126
SWIDTH 583 0
DWIDTH 47 0
BBX 39 16 4 16
BITMAP
00000001FE
00000001FE
007F0001FE
03FFE003FE
07FFF803FE
0FFFFF07FC
1FFFFFFFFC
3FFFFFFFFC
3FFFFFFFF8
7FFFFFFFF8
7FE1FFFFF0
7F803FFFE0
FF800FFF80
FF0001FE00
FF00000000
FF00000000
ENDCHAR
STARTCHAR 00A0
ENCODING 160
SWIDTH 248 0
DWIDTH 20 0
BBX 0 0 0 0
BITMAP
ENDCHAR
STARTCHAR 00A1
ENCODING 161
SWIDTH 273 0
DWIDTH 22 0
BBX 12 55 5 -13
BITMAP
1F00
3FC0
7FE0
FFE0
FFF0
FFF0
FFF0
FFF0
FFE0
7FE0
3FC0
1F00
0000
0000
0000
0000
0000
0000
0000
1F80
3FC0
3FC0
3FC0
3FC0
3FC0
3FC0
3FC0
3FC0
7FC0
7FE0
7FE0
7FE0
7FE0
7FE0
7FE0
7FE0
7FE0
7FE0
7FE0
7FE0
7FE0
7FE0
7FE0
7FE0
7FE0
7FE0
7FE0
7FE0
7FE0
7FE0
7FE0
7FE0
7FE0
7FE0
7FE0
ENDCHAR
STARTCHAR 00A2
ENCODING 162
SWIDTH 583 0
DWIDTH 47 0
BBX 37 59 5 -9
BITMAP
000003E000
000007E000
000007E000
000007E000
000007E000
000007E000
00000FE000
00000FE000
0001FFE000
000FFFFC00
003FFFFF80
00FFFFFFC0
01FFFFFFF0
03FFFFFFF8
07FFFFFFF0
0FFFFFFFF0
1FFFCFCFE0
1FFE0FC3C0
3FFC1FC000
3FF81F8000
7FF01F8000
7FE01F8000
7FE01F8000
FFE01F8000
FFC01F8000
FFC01F8000
FFC01F8000
FFC01F8000
FFC01F8000
FFC01F8000
FFC03F8000
FFC03F0000
FFC03F0000
FFC03F0000
FFC03F0000
FFC03F0000
7FE03F0000
7FE03F0000
7FF03F0000
3FF03F0000
3FF83F01C0
1FFC7F03E0
0FFF7F0FF0
0FFFFEFFF8
07FFFFFFF8
03FFFFFFF8
01FFFFFFF0
007FFFFFC0
001FFFFF80
0007FFFE00
00007FE000
00007E0000
0000FE0000
0000FE0000
0000FE0000
0000FC0000
0000FC0000
0000FC0000
0000F80000
ENDCHAR
STARTCHAR 00A3
ENCODING 163
SWIDTH 583 0
DWIDTH 47 0
BBX 43 59 2 0
BITMAP
000007FC0000
00003FFF8000
0000FFFFE000
0003FFFFF800
0007FFFFFC00
000FFFFFFE00
001FFFFFFF00
003FFFFFFF80
003FFE07FF80
007FF801FFC0
007FF000FFC0
00FFE0007F00
00FFE0007C00
00FFC0000000
00FFC0000000
01FFC0000000
01FFC0000000
01FF80000000
01FF80000000
01FF80000000
01FF80000000
01FF80000000
01FF80000000
01FF80000000
01FF80000000
01FF80000000
01FF80000000
01FF80000000
7FFFFFFFC000
FFFFFFFFC000
FFFFFFFFC000
FFFFFFFFC000
FFFFFFFFC000
FFFFFFFFC000
FFFFFFFF8000
01FF80000000
01FF80000000
01FF80000000
01FF80000000
01FF80000000
01FF80000000
01FF80000000
01FF80000000
01FF80000000
01FF80000000
01FF80000000
01FF80000000
01FF80000000
01FF00000000
03FF00000000
07FE00000000
0FFDFFFFFFE0
3FFFFFFFFFE0
FFFFFFFFFFE0
FFFFFFFFFFE0
FFFFFFFFFFE0
FFFFFFFFFFE0
FFFFFFFFFFC0
FFFFFFFFFF80
ENDCHAR
STARTCHAR 00A4
ENCODING 164
SWIDTH 583 0
DWIDTH 47 0
BBX 39 37 4 9
BITMAP
0400000040
0E000000E0
1F000001F0
3F800003F8
7FC0FE07FC
FFE7FFCFFC
3FFFFFFFF8
1FFFFFFFF0
0FFFFFFFE0
07FFFFFFC0
03FFFFFF80
03FF83FF80
03FE00FF80
07FC007FC0
07F8003FC0
07F8003FC0
07F0001FC0
07F0001FC0
07F0001FC0
07F0001FC0
07F0001FC0
07F8003FC0
07F8003FC0
07FC007FC0
03FE00FF80
03FF83FF80
01FFFFFF80
03FFFFFFC0
0FFFFFFFE0
1FFFFFFFF0
3FFFFFFFF8
7FE7FFCFFE
7FC0FE07FC
3F800003F8
1F000001F0
0E000000E0
0400000040
ENDCHAR
STARTCHAR 00A5
ENCODING 165
SWIDTH 583 0
DWIDTH 47 0
BBX 45 58 1 0
BITMAP
FFC000001FF8
FFE000003FF8
7FF000007FF0
7FF000007FF0
3FF80000FFE0
3FF80000FFE0
1FF80001FFC0
1FFC0001FFC0
0FFC0001FF80
0FFE0003FF80
07FE0003FF00
07FF0007FF00
03FF0007FE00
03FF800FFE00
01FF800FFC00
01FFC01FFC00
00FFC01FF800
00FFE03FF800
007FE03FF000
007FE03FF000
003FF07FE000
003FF07FE000
001FF8FFC000
001FF8FFC000
000FFDFF8000
000FFDFF8000
0007FDFF0000
0007FDFF0000
0003FFFE0000
0003FFFE0000
0001FFFC0000
0001FFFC0000
07FFFFFFFF00
07FFFFFFFF00
07FFFFFFFF00
07FFFFFFFF00
07FFFFFFFF00
07FFFFFFFF00
00007FF00000
00007FF00000
00007FF00000
00007FF00000
07FFFFFFFF00
07FFFFFFFF00
07FFFFFFFF00
07FFFFFFFF00
07FFFFFFFF00
07FFFFFFFF00
00007FF00000
00007FF00000
00007FF00000
00007FF00000
00007FF00000
00007FF00000
00007FF00000
00007FF00000
00007FF00000
00007FF00000
ENDCHAR
STARTCHAR 00A6
ENCODING 166
SWIDTH 260 0
DWIDTH 21 0
BBX 8 76 7 -13
BITMAP
FF
FF
FF
FF
FF
FF
FF
FF
FF
FF
FF
FF
FF
FF
FF
FF
FF
FF
FF
FF
FF
FF
FF
FF
FF
FF
FF
FF
FF
FF
FF
FF
FF
00
00
00
00
00
00
00
00
00
00
FF
FF
FF
FF
FF
FF
FF
FF
FF
FF
FF
FF
FF
FF
FF
FF
FF
FF
FF
FF
FF
FF
FF
FF
FF
FF
FF
FF
FF
FF
FF
FF
FF
ENDCHAR
STARTCHAR 00A7
ENCODING 167
SWIDTH 508 0
DWIDTH 41 0
BBX 33 64 4 -5
BITMAP
0007FC0000
003FFFC000
00FFFFE000
01FFFFF800
03FFFFFC00
07FFFFFE00
0FFFFFFE00
1FFFFFFC00
1FFE03FC00
1FF800F800
3FF0001000
3FE0000000
3FE0000000
3FE0000000
3FE0000000
3FF0000000
1FFC000000
1FFF000000
1FFFC00000
0FFFF00000
07FFFE0000
07FFFF8000
03FFFFE000
0FFFFFF000
1FFFFFFC00
3FFFFFFE00
7FC3FFFE00
7F80FFFF00
FF801FFF80
FF8007FF80
FF0003FF80
FF8001FF80
FF8000FF80
FFC0007F80
FFE0007F80
FFF8007F80
7FFE00FF80
7FFFC0FF00
3FFFF1FF00
1FFFFFFE00
0FFFFFFC00
03FFFFF000
00FFFFE000
003FFFF000
000FFFF800
0001FFFC00
00007FFC00
00001FFE00
000007FE00
000003FE00
000003FE00
000003FE00
000003FE00
000003FE00
1E0003FC00
3F8007FC00
3FE01FFC00
7FFFFFF800
FFFFFFF000
7FFFFFF000
3FFFFFC000
0FFFFF8000
03FFFE0000
003FF00000
ENDCHAR
STARTCHAR 00A8
ENCODING 168
SWIDTH 397 0
DWIDTH 32 0
BBX 28 11 2 47
BITMAP
0F000F80
3FC01FC0
7FE03FE0
7FE07FF0
7FE07FF0
FFF07FF0
7FF07FF0
7FE07FF0
7FE03FE0
3FC01FC0
0F000F80
ENDCHAR
STARTCHAR 00A9
ENCODING 169
SWIDTH 831 0
DWIDTH 67 0
BBX 60 60 3 -1
BITMAP
0000007FF0000000
000007FFFF000000
00003FFFFFC00000
0000FFFFFFF00000
0001FFFFFFFC0000
0007FF801FFF0000
000FFC0001FF8000
001FF000007FC000
003FC000001FE000
007F0000000FF000
00FE00000003F800
01FC001FF001FC00
03F800FFFE00FE00
07F003FFFF007E00
07E00FFFFFC03F00
0FC01FFFFFE03F00
0FC03FFFFFF01F80
1F807FFFFFF00F80
1F80FFFFFFE00FC0
3F01FFF01FE007C0
3F01FFC003C007E0
3E03FF80008007E0
7E03FF00000003E0
7E03FE00000003F0
7E07FE00000003F0
7C07FC00000001F0
7C07FC00000001F0
7C07FC00000001F0
7C07FC00000001F0
FC07FC00000001F0
FC07FC00000001F0
7C07FC00000001F0
7C07FC00000001F0
7C07FC00000001F0
7C07FC00000001F0
7C07FE00000003F0
7E03FE00000003F0
7E03FF00000003E0
3E03FF00010003E0
3F01FFC0078007E0
3F01FFF01FC007C0
1F80FFFFFFE00FC0
1F807FFFFFF00FC0
0FC07FFFFFF01F80
0FC03FFFFFE01F80
07E00FFFFFC03F00
07F007FFFF007E00
03F801FFFC00FE00
01FC003FE001FC00
00FE00000003F800
007F00000007F000
003FC000001FE000
001FE000007FC000
000FFC0001FF8000
0007FF801FFF0000
0001FFFFFFFC0000
0000FFFFFFF00000
00003FFFFFC00000
000007FFFF000000
0000007FF0000000
ENDCHAR
STARTCHAR 00AA
ENCODING 170
SWIDTH 372 0
DWIDTH 30 0
BBX 22 26 3 33
BITMAP
00FF00
07FFC0
1FFFE0
3FFFF0
7FFFF8
3FFFF8
1F83FC
0C01FC
0001FC
0001FC
0001FC
007FFC
03FFFC
0FFFFC
3FFFFC
7FC1FC
7F01FC
FE01FC
FE01FC
FE03FC
FF07FC
7FFFFC
7FFFFC
3FFEFC
1FFCFC
07E07C
ENDCHAR
STARTCHAR 00AB
ENCODING 171
SWIDTH 459 0
DWIDTH 37 0
BBX 28 33 4 5
BITMAP
00700380
007C03E0
00FE07F0
01FE0FF0
01FE0FF0
03FC1FE0
07F83FC0
07F83FC0
0FF07F80
0FF07F80
1FE0FF00
3FE1FF00
3FC1FE00
7F83FC00
FF87FC00
FF07F800
FF07F800
FF07F800
7F83FC00
7FC3FE00
3FC1FE00
1FE0FF00
1FE0FF00
0FF07F80
07F83FC0
07F83FC0
03FC1FE0
01FC0FE0
01FE0FF0
00FE07F0
00FC07E0
007803C0
00200100
ENDCHAR
STARTCHAR 00AC
ENCODING 172
SWIDTH 583 0
DWIDTH 47 0
BBX 36 19 5 12
BITMAP
FFFFFFFFF0
FFFFFFFFF0
FFFFFFFFF0
FFFFFFFFF0
FFFFFFFFF0
FFFFFFFFF0
FFFFFFFFF0
FFFFFFFFF0
0000000FF0
0000000FF0
0000000FF0
0000000FF0
0000000FF0
0000000FF0
0000000FF0
0000000FF0
0000000FF0
0000000FF0
0000000FF0
ENDCHAR
STARTCHAR 00AD
ENCODING 173
SWIDTH 372 0
DWIDTH 30 0
BBX 21 8 5 20
BITMAP
FFFFF8
FFFFF8
FFFFF8
FFFFF8
FFFFF8
FFFFF8
FFFFF8
FFFFF8
ENDCHAR
STARTCHAR 00AE
ENCODING 174
SWIDTH 831 0
DWIDTH 67 0
BBX 60 60 3 -1
BITMAP
0000007FF0000000
000007FFFF000000
00003FFFFFC00000
0000FFFFFFF00000
0001FFFFFFFC0000
0007FF801FFF0000
000FFC0001FF8000
001FF000007FC000
003FC000001FE000
007F0000000FF000
00FE00000003F800
01FC00000001FC00
03F87FFFF000FE00
07F07FFFFE007E00
07E07FFFFF803F00
0FC07FFFFFC03F00
0FC07FFFFFE01F80
1F807FFFFFF00F80
1F807FFFFFF00FC0
3F007FC03FF007C0
3F007FC01FF807E0
3E007FC00FF807E0
7E007FC00FF803E0
7E007FC00FF803F0
7E007FC00FF803F0
7C007FC00FF001F0
7C007FC00FF001F0
7C007FC01FF001F0
7C007FC07FE001F0
FC007FFFFFC001F0
FC007FFFFF8001F0
7C007FFFFF0001F0
7C007FFFFC0001F0
7C007FFFFC0001F0
7C007FFFFE0001F0
7C007FC3FF0003F0
7E007FC1FF0003F0
7E007FC1FF8003E0
3E007FC0FF8003E0
3F007FC0FFC007E0
3F007FC07FE007C0
1F807FC07FE00FC0
1F807FC03FF00FC0
0FC07FC01FF01F80
0FC07FC01FF81F80
07E07FC00FFC3F00
07F07FC00FFC7E00
03F87FC007FEFE00
01FC00000001FC00
00FE00000003F800
007F00000007F000
003FC000001FE000
001FE000007FC000
000FFC0001FF8000
0007FF801FFF0000
0001FFFFFFFC0000
0000FFFFFFF00000
00003FFFFFC00000
000007FFFF000000
0000007FF0000000
ENDCHAR
STARTCHAR 00AF
ENCODING 175
SWIDTH 397 0
DWIDTH 32 0
BBX 24 6 4 49
BITMAP
FFFFFF
FFFFFF
FFFFFF
FFFFFF
FFFFFF
FFFFFF
ENDCHAR
STARTCHAR 00B0
ENCODING 176
SWIDTH 422 0
DWIDTH 34 0
BBX 28 28 3 31
BITMAP
003FC000
01FFF000
03FFFC00
0FFFFE00
1FFFFF00
1FFFFF80
3FFFFFC0
7FE0FFC0
7F803FE0
FF001FE0
FF000FE0
FE000FF0
FE0007F0
FE0007F0
FE0007F0
FE0007F0
FE000FF0
FF000FE0
7F001FE0
7F803FE0
7FE0FFC0
3FFFFFC0
1FFFFF80
1FFFFF00
0FFFFE00
03FFFC00
01FFF000
003FC000
ENDCHAR
STARTCHAR 00B1
ENCODING 177
SWIDTH 583 0
DWIDTH 47 0
BBX 39 47 4 3
BITMAP
0001FF0000
0001FF0000
0001FF0000
0001FF0000
0001FF0000
0001FF0000
0001FF0000
0001FF0000
0001FF0000
0001FF0000
0001FF0000
0001FF0000
0001FF0000
0001FF0000
FFFFFFFFFE
FFFFFFFFFE
FFFFFFFFFE
FFFFFFFFFE
FFFFFFFFFE
FFFFFFFFFE
FFFFFFFFFE
FFFFFFFFFE
0001FF0000
0001FF0000
0001FF0000
0001FF0000
0001FF0000
0001FF0000
0001FF0000
0001FF0000
0001FF0000
0001FF0000
0001FF0000
0001FF0000
0001FF0000
0000000000
0000000000
0000000000
0000000000
FFFFFFFFFE
FFFFFFFFFE
FFFFFFFFFE
FFFFFFFFFE
FFFFFFFFFE
FFFFFFFFFE
FFFFFFFFFE
FFFFFFFFFE
ENDCHAR
STARTCHAR 00B2
ENCODING 178
SWIDTH 335 0
DWIDTH 27 0
BBX 22 30 2 36
BITMAP
00FE00
07FFC0
0FFFE0
1FFFF0
3FFFF0
3FFFF8
7F87F8
7F03F8
7F03FC
FE03FC
0003F8
0003F8
0007F8
0007F0
000FF0
001FE0
003FC0
007F80
00FF00
01FE00
03FC00
07F800
0FF000
1FF000
3FFFF8
7FFFFC
7FFFFC
FFFFFC
FFFFFC
FFFFFC
ENDCHAR
STARTCHAR 00B3
ENCODING 179
SWIDTH 335 0
DWIDTH 27 0
BBX 22 31 2 35
BITMAP
00FE00
03FFC0
0FFFE0
1FFFF0
1FFFF0
3FFFF8
3F87F8
7F03F8
7F03F8
3E01F8
0003F8
0003F8
000FF0
007FF0
007FC0
007FC0
007FF0
007FF8
0007F8
0003FC
0001FC
0C01FC
7E01FC
FF03FC
7F87FC
7FFFF8
3FFFF8
3FFFF0
1FFFE0
07FF80
01FE00
ENDCHAR
STARTCHAR 00B4
ENCODING 180
SWIDTH 397 0
DWIDTH 32 0
BBX 19 12 11 47
BITMAP
01FFE0
03FFC0
07FF80
07FF00
0FFE00
0FFC00
1FF800
3FF000
3FE000
7FC000
7F8000
FF0000
ENDCHAR
STARTCHAR 00B5
ENCODING 181
SWIDTH 657 0
DWIDTH 53 0
BBX 44 54 7 -13
BITMAP
FFC0003FF000
FFC0003FF000
FFC0003FF000
FFC0003FF000
FFC0003FF000
FFC0003FF000
FFC0003FF000
FFC0003FF000
FFC0003FF000
FFC0003FF000
FFC0003FF000
FFC0003FF000
FFC0003FF000
FFC0003FF000
FFC0003FF000
FFC0003FF000
FFC0003FF000
FFC0003FF000
FFC0003FF000
FFC0003FF000
FFC0003FF000
FFC0003FF000
FFC0003FF000
FFC0003FF000
FFC0003FF000
FFC0003FF000
FFC0003FF000
FFC0007FF000
FFC0007FF000
FFE000FFF000
FFE001FFF000
FFF003FFF000
FFFC0FFFF800
FFFFFFFFFC00
FFFFFFEFFFF0
FFFFFFCFFFF0
FFFFFF8FFFF0
FFFFFF07FFF0
FF7FFE03FFF0
FFBFFC01FFE0
FF8FF000FFE0
FF8000003F80
FF8000000000
FF8000000000
FF8000000000
FF8000000000
FF8000000000
FF8000000000
FF8000000000
FF8000000000
FF8000000000
FF8000000000
FF8000000000
3F8000000000
ENDCHAR
STARTCHAR 00B6
ENCODING 182
SWIDTH 744 0
DWIDTH 60 0
BBX 54 66 3 -8
BITMAP
0007FFFFFFFFFC
003FFFFFFFFFFC
00FFFFFFFFFFFC
03FFFFFFFFFFFC
07FFFFFFFFFFFC
0FFFFFFFFFFFFC
1FFFFFFFFFFFFC
3FFFFFFFFFFFFC
3FFFFFE00FF800
7FFFFFE00FF800
7FFFFFE00FF800
FFFFFFE00FF800
FFFFFFE00FF800
FFFFFFE00FF800
FFFFFFE00FF800
FFFFFFE00FF800
FFFFFFE00FF800
FFFFFFE00FF800
FFFFFFE00FF800
FFFFFFE00FF800
FFFFFFE00FF800
FFFFFFE00FF800
7FFFFFE00FF800
7FFFFFE00FF800
3FFFFFE00FF800
1FFFFFE00FF800
1FFFFFE00FF800
0FFFFFE00FF800
07FFFFE00FF800
01FFFFE00FF800
007FFFE00FF800
001FFFE00FF800
00007FE00FF800
00003FE00FF800
00003FE00FF800
00003FE00FF800
00003FE00FF800
00003FE00FF800
00003FE00FF800
00003FE00FF800
00003FE00FF800
00003FE00FF800
00003FE00FF800
00003FE00FF800
00003FE00FF800
00003FE00FF800
00003FE00FF800
00003FE00FF800
00003FE00FF800
00003FE00FF800
00003FE00FF800
00003FE00FF800
00003FE00FF800
00003FE00FF800
00003FE00FF800
00003FE00FF800
00003FE00FF800
00003FE00FF800
00003FE00FF800
00003FE00FF800
00003FE00FF800
00003FE00FF800
00003FE00FF800
00003FE00FF800
00003FE00FF800
00003FE00FF800
ENDCHAR
STARTCHAR 00B7
ENCODING 183
SWIDTH 273 0
DWIDTH 22 0
BBX 16 15 3 16
BITMAP
07E0
1FF8
3FFC
3FFE
7FFE
7FFE
7FFF
FFFF
7FFF
7FFE
7FFE
3FFE
3FFC
1FF8
07E0
ENDCHAR
STARTCHAR 00B8
ENCODING 184
SWIDTH 397 0
DWIDTH 32 0
BBX 16 16 9 -14
BITMAP
07C0
0FC0
0FC0
0F80
1FE0
1FF8
3FFE
0FFE
01FF
00FF
00FF
71FF
7FFE
7FFE
FFF8
3FE0
ENDCHAR
STARTCHAR 00B9
ENCODING 185
SWIDTH 335 0
DWIDTH 27 0
BBX 20 30 3 36
BITMAP
007F00
00FF00
03FF00
07FF00
0FFF00
1FFF00
3FFF00
FFFF00
7FFF00
7FFF00
3CFF00
18FF00
00FF00
00FF00
00FF00
00FF00
00FF00
00FF00
00FF00
00FF00
00FF00
00FF00
00FF00
00FF00
00FF00
1FFFF0
1FFFF0
1FFFF0
1FFFF0
1FFFF0
ENDCHAR
STARTCHAR 00BA
ENCODING 186
SWIDTH 397 0
DWIDTH 32 0
BBX 26 26 3 33
BITMAP
007F8000
01FFF000
07FFFC00
0FFFFE00
1FFFFF00
3FFFFF00
7FE0FF80
7F807FC0
7F803FC0
FF003FC0
FF003FC0
FF001FC0
FF001FC0
FF001FC0
FF001FC0
FF003FC0
FF003FC0
7F803FC0
7F807F80
7FE0FF80
3FFFFF00
1FFFFF00
0FFFFE00
07FFFC00
03FFF000
007F8000
ENDCHAR
STARTCHAR 00BB
ENCODING 187
SWIDTH 459 0
DWIDTH 37 0
BBX 28 33 5 5
BITMAP
3801C000
7C03E000
FC07E000
FE07F000
FF07F800
7F03F800
7F83FC00
3FC1FE00
3FC1FE00
1FE0FF00
1FF0FF80
0FF07F80
07F83FC0
07FC3FE0
03FC1FE0
03FE1FF0
01FE0FF0
03FE1FF0
03FC1FE0
07F83FC0
0FF87FC0
0FF07F80
1FE0FF00
1FE0FF00
3FC1FE00
7F83FC00
7F83FC00
FF07F800
FE07F000
FE07F000
FC07E000
3801C000
08004000
ENDCHAR
STARTCHAR 00BC
ENCODING 188
SWIDTH 744 0
DWIDTH 60 0
BBX 54 59 3 0
BITMAP
007F0000000000
00FF0000001F80
03FF0000007F00
07FF000000FF00
0FFF000000FE00
1FFF000001FE00
3FFF000003FC00
FFFF000003F800
7FFF000007F800
7FFF000007F000
3CFF00000FE000
18FF00001FE000
00FF00001FC000
00FF00003FC000
00FF00007F8000
00FF00007F0000
00FF0000FF0000
00FF0000FE0000
00FF0001FE0000
00FF0003FC0000
00FF0003F80000
00FF0007F80000
00FF0007F00000
00FF000FE00000
00FF001FE00000
1FFFF01FC00000
1FFFF03FC00000
1FFFF07F800000
1FFFF07F000000
1FFFF0FF001FC0
000000FE003FC0
000001FC007FC0
000003FC007FC0
000003F800FFC0
000007F801FFC0
00000FF001FFC0
00000FE003FFC0
00001FE007FFC0
00001FC007EFC0
00003FC00FCFC0
00007F801FCFC0
00007F003F8FC0
0000FF003F0FC0
0000FE007F0FC0
0001FC00FE0FC0
0003FC00FC0FC0
0003F801F80FC0
0007F803F80FC0
000FF003FFFFFC
000FE003FFFFFC
001FE003FFFFFC
001FC003FFFFFC
003FC001FFFFFC
007F8000000FC0
007F0000000FC0
00FF0000000FC0
00FE0000000FC0
01FC0000000FC0
03F80000000FC0
ENDCHAR
STARTCHAR 00BD
ENCODING 189
SWIDTH 744 0
DWIDTH 60 0
BBX 53 59 3 0
BITMAP
007F0000000000
00FF0000007E00
03FF000001FC00
07FF000003FC00
0FFF000003F800
1FFF000007F800
3FFF00000FF000
FFFF00000FE000
7FFF00001FE000
7FFF00001FC000
3CFF00003F8000
18FF00007F8000
00FF00007F0000
00FF0000FF0000
00FF0001FE0000
00FF0001FC0000
00FF0003FC0000
00FF0003F80000
00FF0007F80000
00FF000FF00000
00FF000FE00000
00FF001FE00000
00FF001FC00000
00FF003F800000
00FF007F800000
1FFFF07F000000
1FFFF0FF000000
1FFFF1FE000000
1FFFF1FC000000
1FFFF3FC01FC00
000003F80FFF80
000007F01FFFC0
00000FF03FFFE0
00000FE07FFFE0
00001FE07FFFF0
00003FC0FF0FF0
00003F80FE07F0
00007F80FE07F8
00007F01FC07F8
0000FF000007F0
0001FE000007F0
0001FC00000FF0
0003FC00000FE0
0003F800001FE0
0007F000003FC0
000FF000007F80
000FE00000FF00
001FE00001FE00
003FC00003FC00
003F800007F800
007F80000FF000
007F00001FE000
00FF00003FE000
01FE00007FFFF0
01FC0000FFFFF8
03FC0000FFFFF8
03F80001FFFFF8
07F00001FFFFF8
0FE00001FFFFF8
ENDCHAR
STARTCHAR 00BE
ENCODING 190
SWIDTH 757 0
DWIDTH 61 0
BBX 55 59 3 0
BITMAP
00FE0000000000
03FFC000000FC0
0FFFE000003F80
1FFFF000007F80
1FFFF000007F00
3FFFF80000FF00
3F87F80001FE00
7F03F80001FC00
7F03F80003FC00
3E01F80003F800
0003F80007F000
0003F8000FF000
000FF0000FE000
007FF0001FE000
007FC0003FC000
007FC0003F8000
007FF0007F8000
007FF8007F0000
0007F800FF0000
0003FC01FE0000
0001FC01FC0000
0C01FC03FC0000
7E01FC03F80000
FF03FC07F00000
7F87FC0FF00000
7FFFF80FE00000
3FFFF81FE00000
3FFFF03FC00000
1FFFE03F800000
07FF807F800FE0
01FE007F001FE0
000000FE003FE0
000001FE003FE0
000001FC007FE0
000003FC00FFE0
000007F800FFE0
000007F001FFE0
00000FF003FFE0
00000FE003F7E0
00001FE007E7E0
00003FC00FE7E0
00003F801FC7E0
00007F801F87E0
00007F003F87E0
0000FE007F07E0
0001FE007E07E0
0001FC00FC07E0
0003FC01FC07E0
0007F801FFFFFE
0007F001FFFFFE
000FF001FFFFFE
000FE001FFFFFE
001FE000FFFFFE
003FC0000007E0
003F80000007E0
007F80000007E0
007F00000007E0
00FE00000007E0
01FC00000007E0
ENDCHAR
STARTCHAR 00BF
ENCODING 191
SWIDTH 459 0
DWIDTH 37 0
BBX 31 56 3 -14
BITMAP
0001F000
0007F800
000FFC00
000FFE00
001FFE00
001FFF00
001FFF00
001FFE00
000FFE00
000FFC00
0007F800
0001F000
00000000
00000000
00000000
00000000
00000000
00000000
00000000
0003F800
0003F800
0007F800
0007F800
0007F800
0007F800
0007F800
000FF800
001FF800
003FF800
007FF800
01FFF000
03FFE000
0FFF8000
1FFF0000
1FFC0000
3FF80000
7FF00000
7FE00000
7FC00000
FFC00000
FF800000
FF800000
FF800000
FFC00000
FFC00000
FFE00070
7FF001F8
7FFC0FFC
7FFFFFFC
3FFFFFFE
1FFFFFFE
1FFFFFFC
0FFFFFF0
03FFFFC0
00FFFF00
001FF800
ENDCHAR
STARTCHAR 00C0
ENCODING 192
SWIDTH 695 0
DWIDTH 56 0
BBX 57 75 0 0
BITMAP
001FFE0000000000
000FFF8000000000
0007FFC000000000
0003FFE000000000
0001FFE000000000
0000FFF000000000
00007FF800000000
00001FFC00000000
00000FFE00000000
000007FE00000000
000003FF00000000
000001FF80000000
000000FFC0000000
0000000000000000
0000000000000000
0000000000000000
0000000000000000
000003FFC0000000
000003FFC0000000
000003FFE0000000
000007FFE0000000
000007FFE0000000
00000FFFF0000000
00000FFFF0000000
00000FFFF8000000
00001FFFF8000000
00001FFFF8000000
00003FFFFC000000
00003FFFFC000000
00003FE7FE000000
00007FE7FE000000
00007FE7FE000000
0000FFC3FF000000
0000FFC3FF000000
0000FFC1FF800000
0001FF81FF800000
0001FF81FF800000
0003FF80FFC00000
0003FF00FFC00000
0003FF00FFE00000
0007FF007FE00000
0007FE007FE00000
000FFE003FF00000
000FFC003FF00000
000FFC003FF80000
001FFC001FF80000
001FF8001FF80000
003FF8001FFC0000
003FF8000FFC0000
003FF0000FFE0000
007FF00007FE0000
007FE00007FE0000
00FFE00007FF0000
00FFFFFFFFFF0000
00FFFFFFFFFF8000
01FFFFFFFFFF8000
01FFFFFFFFFF8000
03FFFFFFFFFFC000
03FFFFFFFFFFC000
03FFFFFFFFFFE000
07FFFFFFFFFFE000
07FF000000FFE000
07FE0000007FF000
0FFE0000007FF000
0FFE0000003FF800
1FFC0000003FF800
1FFC0000003FF800
1FFC0000001FFC00
3FF80000001FFC00
3FF80000001FFE00
7FF00000000FFE00
7FF00000000FFE00
7FF000000007FF00
FFE000000007FF00
FFC000000003FF80
ENDCHAR
STARTCHAR 00C1
ENCODING 193
SWIDTH 695 0
DWIDTH 56 0
BBX 57 75 0 0
BITMAP
00000000FFF80000
00000003FFF00000
00000007FFE00000
0000000FFF800000
0000000FFF000000
0000001FFE000000
0000003FFC000000
0000007FF8000000
0000007FF0000000
000000FFE0000000
000001FF80000000
000003FF00000000
000007FE00000000
0000000000000000
0000000000000000
0000000000000000
0000000000000000
000003FFC0000000
000003FFC0000000
000003FFE0000000
000007FFE0000000
000007FFE0000000
00000FFFF0000000
00000FFFF0000000
00000FFFF8000000
00001FFFF8000000
00001FFFF8000000
00003FFFFC000000
00003FFFFC000000
00003FE7FE000000
00007FE7FE000000
00007FE7FE000000
0000FFC3FF000000
0000FFC3FF000000
0000FFC1FF800000
0001FF81FF800000
0001FF81FF800000
0003FF80FFC00000
0003FF00FFC00000
0003FF00FFE00000
0007FF007FE00000
0007FE007FE00000
000FFE003FF00000
000FFC003FF00000
000FFC003FF80000
001FFC001FF80000
001FF8001FF80000
003FF8001FFC0000
003FF8000FFC0000
003FF0000FFE0000
007FF00007FE0000
007FE00007FE0000
00FFE00007FF0000
00FFFFFFFFFF0000
00FFFFFFFFFF8000
01FFFFFFFFFF8000
01FFFFFFFFFF8000
03FFFFFFFFFFC000
03FFFFFFFFFFC000
03FFFFFFFFFFE000
07FFFFFFFFFFE000
07FF000000FFE000
07FE0000007FF000
0FFE0000007FF000
0FFE0000003FF800
1FFC0000003FF800
1FFC0000003FF800
1FFC0000001FFC00
3FF80000001FFC00
3FF80000001FFE00
7FF00000000FFE00
7FF00000000FFE00
7FF000000007FF00
FFE000000007FF00
FFC000000003FF80
ENDCHAR
STARTCHAR 00C2
ENCODING 194
SWIDTH 695 0
DWIDTH 56 0
BBX 57 73 0 0
BITMAP
000001FF80000000
000003FFC0000000
000003FFE0000000
000007FFF0000000
00000FFFF8000000
00001FE7FC000000
00003FE3FE000000
00007FC1FF000000
0000FF81FF000000
0001FF00FF800000
0003FE007FE00000
0000000000000000
0000000000000000
0000000000000000
0000000000000000
000003FFC0000000
000003FFC0000000
000003FFE0000000
000007FFE0000000
000007FFE0000000
00000FFFF0000000
00000FFFF0000000
00000FFFF8000000
00001FFFF8000000
00001FFFF8000000
00003FFFFC000000
00003FFFFC000000
00003FE7FE000000
00007FE7FE000000
00007FE7FE000000
0000FFC3FF000000
0000FFC3FF000000
0000FFC1FF800000
0001FF81FF800000
0001FF81FF800000
0003FF80FFC00000
0003FF00FFC00000
0003FF00FFE00000
0007FF007FE00000
0007FE007FE00000
000FFE003FF00000
000FFC003FF00000
000FFC003FF80000
001FFC001FF80000
001FF8001FF80000
003FF8001FFC0000
003FF8000FFC0000
003FF0000FFE0000
007FF00007FE0000
007FE00007FE0000
00FFE00007FF0000
00FFFFFFFFFF0000
00FFFFFFFFFF8000
01FFFFFFFFFF8000
01FFFFFFFFFF8000
03FFFFFFFFFFC000
03FFFFFFFFFFC000
03FFFFFFFFFFE000
07FFFFFFFFFFE000
07FF000000FFE000
07FE0000007FF000
0FFE0000007FF000
0FFE0000003FF800
1FFC0000003FF800
1FFC0000003FF800
1FFC0000001FFC00
3FF80000001FFC00
3FF80000001FFE00
7FF00000000FFE00
7FF00000000FFE00
7FF000000007FF00
FFE000000007FF00
FFC000000003FF80
ENDCHAR
STARTCHAR 00C3
ENCODING 195
SWIDTH 695 0
DWIDTH 56 0
BBX 57 72 0 0
BITMAP
00000FC007E00000
00003FF007E00000
00007FFC0FE00000
0000FFFE1FC00000
0001FFFFFFC00000
0001FFFFFFC00000
0001FC3FFF800000
0003F81FFF000000
0003F007FE000000
0003F001F8000000
0000000000000000
0000000000000000
0000000000000000
0000000000000000
000003FFC0000000
000003FFC0000000
000003FFE0000000
000007FFE0000000
000007FFE0000000
00000FFFF0000000
00000FFFF0000000
00000FFFF8000000
00001FFFF8000000
00001FFFF8000000
00003FFFFC000000
00003FFFFC000000
00003FE7FE000000
00007FE7FE000000
00007FE7FE000000
0000FFC3FF000000
0000FFC3FF000000
0000FFC1FF800000
0001FF81FF800000
0001FF81FF800000
0003FF80FFC00000
0003FF00FFC00000
0003FF00FFE00000
0007FF007FE00000
0007FE007FE00000
000FFE003FF00000
000FFC003FF00000
000FFC003FF80000
001FFC001FF80000
001FF8001FF80000
003FF8001FFC0000
003FF8000FFC0000
003FF0000FFE0000
007FF00007FE0000
007FE00007FE0000
00FFE00007FF0000
00FFFFFFFFFF0000
00FFFFFFFFFF8000
01FFFFFFFFFF8000
01FFFFFFFFFF8000
03FFFFFFFFFFC000
03FFFFFFFFFFC000
03FFFFFFFFFFE000
07FFFFFFFFFFE000
07FF000000FFE000
07FE0000007FF000
0FFE0000007FF000
0FFE0000003FF800
1FFC0000003FF800
1FFC0000003FF800
1FFC0000001FFC00
3FF80000001FFC00
3FF80000001FFE00
7FF00000000FFE00
7FF00000000FFE00
7FF000000007FF00
FFE000000007FF00
FFC000000003FF80
ENDCHAR
STARTCHAR 00C4
ENCODING 196
SWIDTH 695 0
DWIDTH 56 0
BBX 57 73 0 0
BITMAP
000078001E000000
0000FE007F800000
0001FF007FC00000
0003FF00FFC00000
0003FF80FFC00000
0003FF80FFE00000
0003FF80FFC00000
0003FF00FFC00000
0001FF007FC00000
0000FE007F800000
00007C001E000000
0000000000000000
0000000000000000
0000000000000000
0000000000000000
000003FFC0000000
000003FFC0000000
000003FFE0000000
000007FFE0000000
000007FFE0000000
00000FFFF0000000
00000FFFF0000000
00000FFFF8000000
00001FFFF8000000
00001FFFF8000000
00003FFFFC000000
00003FFFFC000000
00003FE7FE000000
00007FE7FE000000
00007FE7FE000000
0000FFC3FF000000
0000FFC3FF000000
0000FFC1FF800000
0001FF81FF800000
0001FF81FF800000
0003FF80FFC00000
0003FF00FFC00000
0003FF00FFE00000
0007FF007FE00000
0007FE007FE00000
000FFE003FF00000
000FFC003FF00000
000FFC003FF80000
001FFC001FF80000
001FF8001FF80000
003FF8001FFC0000
003FF8000FFC0000
003FF0000FFE0000
007FF00007FE0000
007FE00007FE0000
00FFE00007FF0000
00FFFFFFFFFF0000
00FFFFFFFFFF8000
01FFFFFFFFFF8000
01FFFFFFFFFF8000
03FFFFFFFFFFC000
03FFFFFFFFFFC000
03FFFFFFFFFFE000
07FFFFFFFFFFE000
07FF000000FFE000
07FE0000007FF000
0FFE0000007FF000
0FFE0000003FF800
1FFC0000003FF800
1FFC0000003FF800
1FFC0000001FFC00
3FF80000001FFC00
3FF80000001FFE00
7FF00000000FFE00
7FF00000000FFE00
7FF000000007FF00
FFE000000007FF00
FFC000000003FF80
ENDCHAR
STARTCHAR 00C5
ENCODING 197
SWIDTH 695 0
DWIDTH 56 0
BBX 57 76 0 0
BITMAP
0000007E00000000
000001FF80000000
000003FFC0000000
000007FFE0000000
00000FC3F0000000
00000F81F0000000
00000F80F8000000
00000F80F8000000
00000F80F8000000
00000F81F0000000
00000FC3F0000000
000007FFE0000000
000003FFE0000000
000001FF80000000
0000007E00000000
0000000000000000
0000000000000000
0000000000000000
000003FFC0000000
000003FFC0000000
000003FFE0000000
000007FFE0000000
000007FFE0000000
00000FFFF0000000
00000FFFF0000000
00000FFFF8000000
00001FFFF8000000
00001FFFF8000000
00003FFFFC000000
00003FFFFC000000
00003FE7FE000000
00007FE7FE000000
00007FE7FE000000
0000FFC3FF000000
0000FFC3FF000000
0000FFC1FF800000
0001FF81FF800000
0001FF81FF800000
0003FF80FFC00000
0003FF00FFC00000
0003FF00FFE00000
0007FF007FE00000
0007FE007FE00000
000FFE003FF00000
000FFC003FF00000
000FFC003FF80000
001FFC001FF80000
001FF8001FF80000
003FF8001FFC0000
003FF8000FFC0000
003FF0000FFE0000
007FF00007FE0000
007FE00007FE0000
00FFE00007FF0000
00FFFFFFFFFF0000
00FFFFFFFFFF8000
01FFFFFFFFFF8000
01FFFFFFFFFF8000
03FFFFFFFFFFC000
03FFFFFFFFFFC000
03FFFFFFFFFFE000
07FFFFFFFFFFE000
07FF000000FFE000
07FE0000007FF000
0FFE0000007FF000
0FFE0000003FF800
1FFC0000003FF800
1FFC0000003FF800
1FFC0000001FFC00
3FF80000001FFC00
3FF80000001FFE00
7FF00000000FFE00
7FF00000000FFE00
7FF000000007FF00
FFE000000007FF00
FFC000000003FF80
ENDCHAR
STARTCHAR 00C6
ENCODING 198
SWIDTH 943 0
DWIDTH 76 0
BBX 73 58 -1 0
BITMAP
00000003FFFFFFFFFF80
00000007FFFFFFFFFF80
00000007FFFFFFFFFF80
0000000FFFFFFFFFFF80
0000000FFFFFFFFFFF80
0000001FFFFFFFFFFF80
0000001FFFFFFFFFFF80
0000003FFFFFFFFFFF80
0000003FFFF800000000
0000007FDFF800000000
0000007FDFFC00000000
000000FFDFFC00000000
000000FF8FFC00000000
000001FF8FFC00000000
000003FF0FFC00000000
000003FF0FFC00000000
000007FE0FFC00000000
000007FE0FFC00000000
00000FFC0FFE00000000
00000FFC0FFE00000000
00001FF807FE00000000
00001FF807FE00000000
00003FF007FE00000000
00003FF007FE00000000
00007FF007FE00000000
00007FE007FFFFFFF000
0000FFE007FFFFFFF000
0000FFC007FFFFFFF000
0001FFC003FFFFFFF000
0001FF8003FFFFFFF000
0003FF8003FFFFFFF000
0003FF0003FFFFFFF000
0007FF0003FFFFFFF000
0007FE0003FF00000000
000FFE0003FF80000000
000FFC0003FF80000000
001FFFFFFFFF80000000
001FFFFFFFFF80000000
003FFFFFFFFF80000000
003FFFFFFFFF80000000
007FFFFFFFFF80000000
007FFFFFFFFF80000000
00FFFFFFFFFF80000000
00FFFFFFFFFFC0000000
01FFC00001FFC0000000
01FFC00000FFC0000000
03FF800000FFC0000000
03FF800000FFC0000000
07FF000000FFC0000000
07FF000000FFC0000000
0FFE000000FFFFFFFF80
0FFE000000FFFFFFFF80
1FFC000000FFFFFFFF80
3FFC0000007FFFFFFF80
3FF80000007FFFFFFF80
7FF80000007FFFFFFF80
7FF00000007FFFFFFF80
FFE00000007FFFFFFF80
ENDCHAR
STARTCHAR 00C7
ENCODING 199
SWIDTH 670 0
DWIDTH 54 0
BBX 50 73 3 -14
BITMAP
000001FFE00000
00001FFFFE0000
00007FFFFF8000
0001FFFFFFE000
0007FFFFFFF800
001FFFFFFFFE00
003FFFFFFFFF00
007FFFFFFFFF80
00FFFFFFFFFF00
01FFFF803FFE00
03FFFC0007FE00
03FFF00001FC00
07FFC00000F800
0FFF8000002000
0FFF0000000000
1FFE0000000000
1FFE0000000000
3FFC0000000000
3FFC0000000000
3FF80000000000
7FF80000000000
7FF00000000000
7FF00000000000
7FF00000000000
FFF00000000000
FFF00000000000
FFE00000000000
FFE00000000000
FFE00000000000
FFE00000000000
FFE00000000000
FFE00000000000
FFE00000000000
FFE00000000000
FFF00000000000
7FF00000000000
7FF00000000000
7FF00000000000
7FF80000000000
7FF80000000000
3FF80000000000
3FFC0000000000
3FFE0000000000
1FFE0000000000
1FFF0000000000
0FFF8000001800
0FFFC000007C00
07FFE00000FE00
07FFF80003FF00
03FFFE000FFF80
01FFFFFFFFFFC0
00FFFFFFFFFF80
007FFFFFFFFF00
003FFFFFFFFE00
001FFFFFFFFC00
0007FFFFFFF000
0001FFFFFFC000
00007FFFFF0000
00000FFFF80000
0000007E000000
0000007E000000
0000007E000000
000000FFC00000
000000FFE00000
000000FFF00000
0000000FF80000
00000007F80000
00000007F80000
00000107F80000
000003FFF80000
000003FFF00000
000003FFE00000
000001FF000000
ENDCHAR
STARTCHAR 00C8
ENCODING 200
SWIDTH 583 0
DWIDTH 47 0
BBX 36 75 7 0
BITMAP
3FFC000000
1FFF000000
0FFF800000
07FFC00000
03FFC00000
01FFE00000
00FFF00000
003FF80000
001FFC0000
000FFC0000
0007FE0000
0003FF0000
0001FF8000
0000000000
0000000000
0000000000
0000000000
FFFFFFFFF0
FFFFFFFFF0
FFFFFFFFF0
FFFFFFFFF0
FFFFFFFFF0
FFFFFFFFF0
FFFFFFFFF0
FFFFFFFFF0
FFC0000000
FFC0000000
FFC0000000
FFC0000000
FFC0000000
FFC0000000
FFC0000000
FFC0000000
FFC0000000
FFC0000000
FFC0000000
FFC0000000
FFC0000000
FFC0000000
FFC0000000
FFC0000000
FFC0000000
FFFFFFFE00
FFFFFFFE00
FFFFFFFE00
FFFFFFFE00
FFFFFFFE00
FFFFFFFE00
FFFFFFFE00
FFFFFFFE00
FFC0000000
FFC0000000
FFC0000000
FFC0000000
FFC0000000
FFC0000000
FFC0000000
FFC0000000
FFC0000000
FFC0000000
FFC0000000
FFC0000000
FFC0000000
FFC0000000
FFC0000000
FFC0000000
FFC0000000
FFFFFFFFF0
FFFFFFFFF0
FFFFFFFFF0
FFFFFFFFF0
FFFFFFFFF0
FFFFFFFFF0
FFFFFFFFF0
FFFFFFFFF0
ENDCHAR
STARTCHAR 00C9
ENCODING 201
SWIDTH 583 0
DWIDTH 47 0
BBX 36 75 7 0
BITMAP
000001FFF0
000007FFE0
00000FFFC0
00001FFF00
00001FFE00
00003FFC00
00007FF800
0000FFF000
0000FFE000
0001FFC000
0003FF0000
0007FE0000
000FFC0000
0000000000
0000000000
0000000000
0000000000
FFFFFFFFF0
FFFFFFFFF0
FFFFFFFFF0
FFFFFFFFF0
FFFFFFFFF0
FFFFFFFFF0
FFFFFFFFF0
FFFFFFFFF0
FFC0000000
FFC0000000
FFC0000000
FFC0000000
FFC0000000
FFC0000000
FFC0000000
FFC0000000
FFC0000000
FFC0000000
FFC0000000
FFC0000000
FFC0000000
FFC0000000
FFC0000000
FFC0000000
FFC0000000
FFFFFFFE00
FFFFFFFE00
FFFFFFFE00
FFFFFFFE00
FFFFFFFE00
FFFFFFFE00
FFFFFFFE00
FFFFFFFE00
FFC0000000
FFC0000000
FFC0000000
FFC0000000
FFC0000000
FFC0000000
FFC0000000
FFC0000000
FFC0000000
FFC0000000
FFC0000000
FFC0000000
FFC0000000
FFC0000000
FFC0000000
FFC0000000
FFC0000000
FFFFFFFFF0
FFFFFFFFF0
FFFFFFFFF0
FFFFFFFFF0
FFFFFFFFF0
FFFFFFFFF0
FFFFFFFFF0
FFFFFFFFF0
ENDCHAR
STARTCHAR 00CA
ENCODING 202
SWIDTH 583 0
DWIDTH 47 0
BBX 36 73 7 0
BITMAP
0007FE0000
000FFF0000
000FFF8000
001FFFC000
003FFFE000
007F9FF000
00FF8FF800
01FF07FC00
03FE07FC00
07FC03FE00
0FF801FF80
0000000000
0000000000
0000000000
0000000000
FFFFFFFFF0
FFFFFFFFF0
FFFFFFFFF0
FFFFFFFFF0
FFFFFFFFF0
FFFFFFFFF0
FFFFFFFFF0
FFFFFFFFF0
FFC0000000
FFC0000000
FFC0000000
FFC0000000
FFC0000000
FFC0000000
FFC0000000
FFC0000000
FFC0000000
FFC0000000
FFC0000000
FFC0000000
FFC0000000
FFC0000000
FFC0000000
FFC0000000
FFC0000000
FFFFFFFE00
FFFFFFFE00
FFFFFFFE00
FFFFFFFE00
FFFFFFFE00
FFFFFFFE00
FFFFFFFE00
FFFFFFFE00
FFC0000000
FFC0000000
FFC0000000
FFC0000000
FFC0000000
FFC0000000
FFC0000000
FFC0000000
FFC0000000
FFC0000000
FFC0000000
FFC0000000
FFC0000000
FFC0000000
FFC0000000
FFC0000000
FFC0000000
FFFFFFFFF0
FFFFFFFFF0
FFFFFFFFF0
FFFFFFFFF0
FFFFFFFFF0
FFFFFFFFF0
FFFFFFFFF0
FFFFFFFFF0
ENDCHAR
STARTCHAR 00CB
ENCODING 203
SWIDTH 583 0
DWIDTH 47 0
BBX 36 73 7 0
BITMAP
01E0007800
03F801FE00
07FC01FF00
0FFC03FF00
0FFE03FF00
0FFE03FF80
0FFE03FF00
0FFC03FF00
07FC01FF00
03F801FE00
01F0007800
0000000000
0000000000
0000000000
0000000000
FFFFFFFFF0
FFFFFFFFF0
FFFFFFFFF0
FFFFFFFFF0
FFFFFFFFF0
FFFFFFFFF0
FFFFFFFFF0
FFFFFFFFF0
FFC0000000
FFC0000000
FFC0000000
FFC0000000
FFC0000000
FFC0000000
FFC0000000
FFC0000000
FFC0000000
FFC0000000
FFC0000000
FFC0000000
FFC0000000
FFC0000000
FFC0000000
FFC0000000
FFC0000000
FFFFFFFE00
FFFFFFFE00
FFFFFFFE00
FFFFFFFE00
FFFFFFFE00
FFFFFFFE00
FFFFFFFE00
FFFFFFFE00
FFC0000000
FFC0000000
FFC0000000
FFC0000000
FFC0000000
FFC0000000
FFC0000000
FFC0000000
FFC0000000
FFC0000000
FFC0000000
FFC0000000
FFC0000000
FFC0000000
FFC0000000
FFC0000000
FFC0000000
FFFFFFFFF0
FFFFFFFFF0
FFFFFFFFF0
FFFFFFFFF0
FFFFFFFFF0
FFFFFFFFF0
FFFFFFFFF0
FFFFFFFFF0
ENDCHAR
STARTCHAR 00CC
ENCODING 204
SWIDTH 297 0
DWIDTH 24 0
BBX 23 75 -5 0
BITMAP
FFF000
7FFC00
3FFE00
1FFF00
0FFF00
07FF80
03FFC0
00FFE0
007FF0
003FF0
001FF8
000FFC
0007FE
000000
000000
000000
000000
000FFC
000FFC
000FFC
000FFC
000FFC
000FFC
000FFC
000FFC
000FFC
000FFC
000FFC
000FFC
000FFC
000FFC
000FFC
000FFC
000FFC
000FFC
000FFC
000FFC
000FFC
000FFC
000FFC
000FFC
000FFC
000FFC
000FFC
000FFC
000FFC
000FFC
000FFC
000FFC
000FFC
000FFC
000FFC
000FFC
000FFC
000FFC
000FFC
000FFC
000FFC
000FFC
000FFC
000FFC
000FFC
000FFC
000FFC
000FFC
000FFC
000FFC
000FFC
000FFC
000FFC
000FFC
000FFC
000FFC
000FFC
000FFC
ENDCHAR
STARTCHAR 00CD
ENCODING 205
SWIDTH 297 0
DWIDTH 24 0
BBX 24 75 5 0
BITMAP
001FFF
007FFE
00FFFC
01FFF0
01FFE0
03FFC0
07FF80
0FFF00
0FFE00
1FFC00
3FF000
7FE000
FFC000
000000
000000
000000
000000
3FF000
3FF000
3FF000
3FF000
3FF000
3FF000
3FF000
3FF000
3FF000
3FF000
3FF000
3FF000
3FF000
3FF000
3FF000
3FF000
3FF000
3FF000
3FF000
3FF000
3FF000
3FF000
3FF000
3FF000
3FF000
3FF000
3FF000
3FF000
3FF000
3FF000
3FF000
3FF000
3FF000
3FF000
3FF000
3FF000
3FF000
3FF000
3FF000
3FF000
3FF000
3FF000
3FF000
3FF000
3FF000
3FF000
3FF000
3FF000
3FF000
3FF000
3FF000
3FF000
3FF000
3FF000
3FF000
3FF000
3FF000
3FF000
ENDCHAR
STARTCHAR 00CE
ENCODING 206
SWIDTH 297 0
DWIDTH 24 0
BBX 29 73 -2 0
BITMAP
007FE000
00FFF000
00FFF800
01FFFC00
03FFFE00
07F9FF00
0FF8FF80
1FF07FC0
3FE07FC0
7FC03FE0
FF801FF8
00000000
00000000
00000000
00000000
007FE000
007FE000
007FE000
007FE000
007FE000
007FE000
007FE000
007FE000
007FE000
007FE000
007FE000
007FE000
007FE000
007FE000
007FE000
007FE000
007FE000
007FE000
007FE000
007FE000
007FE000
007FE000
007FE000
007FE000
007FE000
007FE000
007FE000
007FE000
007FE000
007FE000
007FE000
007FE000
007FE000
007FE000
007FE000
007FE000
007FE000
007FE000
007FE000
007FE000
007FE000
007FE000
007FE000
007FE000
007FE000
007FE000
007FE000
007FE000
007FE000
007FE000
007FE000
007FE000
007FE000
007FE000
007FE000
007FE000
007FE000
007FE000
ENDCHAR
STARTCHAR 00CF
ENCODING 207
SWIDTH 297 0
DWIDTH 24 0
BBX 29 73 -2 0
BITMAP
1E000780
3F801FE0
7FC01FF0
FFC03FF0
FFE03FF0
FFE03FF8
FFE03FF0
FFC03FF0
7FC01FF0
3F801FE0
1F000780
00000000
00000000
00000000
00000000
007FE000
007FE000
007FE000
007FE000
007FE000
007FE000
007FE000
007FE000
007FE000
007FE000
007FE000
007FE000
007FE000
007FE000
007FE000
007FE000
007FE000
007FE000
007FE000
007FE000
007FE000
007FE000
007FE000
007FE000
007FE000
007FE000
007FE000
007FE000
007FE000
007FE000
007FE000
007FE000
007FE000
007FE000
007FE000
007FE000
007FE000
007FE000
007FE000
007FE000
007FE000
007FE000
007FE000
007FE000
007FE000
007FE000
007FE000
007FE000
007FE000
007FE000
007FE000
007FE000
007FE000
007FE000
007FE000
007FE000
007FE000
007FE000
ENDCHAR
STARTCHAR 00D0
ENCODING 208
SWIDTH 769 0
DWIDTH 62 0
BBX 59 58 0 0
BITMAP
01FFFFFFF0000000
01FFFFFFFF000000
01FFFFFFFFE00000
01FFFFFFFFF80000
01FFFFFFFFFC0000
01FFFFFFFFFF0000
01FFFFFFFFFF8000
01FFFFFFFFFFC000
01FFC0003FFFE000
01FFC00007FFF000
01FFC00001FFF800
01FFC000007FFC00
01FFC000003FFE00
01FFC000001FFE00
01FFC000000FFF00
01FFC0000007FF00
01FFC0000007FF80
01FFC0000003FF80
01FFC0000003FFC0
01FFC0000001FFC0
01FFC0000001FFC0
01FFC0000001FFC0
01FFC0000001FFE0
01FFC0000000FFE0
01FFC0000000FFE0
01FFC0000000FFE0
FFFFFFF80000FFE0
FFFFFFF80000FFE0
FFFFFFF80000FFE0
FFFFFFF80000FFE0
FFFFFFF80000FFE0
FFFFFFF80000FFE0
01FFC0000000FFE0
01FFC0000000FFE0
01FFC0000000FFE0
01FFC0000001FFE0
01FFC0000001FFC0
01FFC0000001FFC0
01FFC0000001FFC0
01FFC0000003FFC0
01FFC0000003FF80
01FFC0000007FF80
01FFC0000007FF00
01FFC000000FFF00
01FFC000001FFE00
01FFC000003FFE00
01FFC000007FFC00
01FFC00001FFF800
01FFC00007FFF000
01FFC0003FFFF000
01FFFFFFFFFFC000
01FFFFFFFFFF8000
01FFFFFFFFFF0000
01FFFFFFFFFE0000
01FFFFFFFFF80000
01FFFFFFFFE00000
01FFFFFFFF000000
01FFFFFFF0000000
ENDCHAR
STARTCHAR 00D1
ENCODING 209
SWIDTH 769 0
DWIDTH 62 0
BBX 49 72 7 0
BITMAP
0000FC007E0000
0003FF007E0000
0007FFC0FE0000
000FFFE1FC0000
001FFFFFFC0000
001FFFFFFC0000
001FC3FFF80000
003F81FFF00000
003F007FE00000
003F001F800000
00000000000000
00000000000000
00000000000000
00000000000000
FF00000001FF80
FF80000001FF80
FF80000001FF80
FFC0000001FF80
FFE0000001FF80
FFF0000001FF80
FFF8000001FF80
FFF8000001FF80
FFFC000001FF80
FFFE000001FF80
FFFF000001FF80
FFFF800001FF80
FFFF800001FF80
FFFFC00001FF80
FFFFE00001FF80
FFFFF00001FF80
FFFFF00001FF80
FFFFF80001FF80
FFFFFC0001FF80
FFBFFE0001FF80
FF9FFF0001FF80
FF8FFF0001FF80
FF87FF8001FF80
FF87FFC001FF80
FF83FFE001FF80
FF81FFE001FF80
FF80FFF001FF80
FF807FF801FF80
FF807FFC01FF80
FF803FFE01FF80
FF801FFE01FF80
FF800FFF01FF80
FF8007FF81FF80
FF8007FFC1FF80
FF8003FFE1FF80
FF8001FFE1FF80
FF8000FFF1FF80
FF80007FF9FF80
FF80007FFDFF80
FF80003FFDFF80
FF80001FFEFF80
FF80000FFFFF80
FF800007FFFF80
FF800007FFFF80
FF800003FFFF80
FF800001FFFF80
FF800000FFFF80
FF8000007FFF80
FF8000007FFF80
FF8000003FFF80
FF8000001FFF80
FF8000000FFF80
FF80000007FF80
FF80000007FF80
FF80000003FF80
FF80000001FF80
FF80000000FF80
FF800000007F80
ENDCHAR
STARTCHAR 00D2
ENCODING 210
SWIDTH 806 0
DWIDTH 65 0
BBX 59 76 3 -1
BITMAP
0007FF8000000000
0003FFE000000000
0001FFF000000000
0000FFF800000000
00007FF800000000
00003FFC00000000
00001FFE00000000
000007FF00000000
000003FF80000000
000001FF80000000
000000FFC0000000
0000007FE0000000
0000003FF0000000
0000000000000000
0000000000000000
0000000000000000
000000FFE0000000
00000FFFFF000000
00007FFFFFC00000
0001FFFFFFF00000
0007FFFFFFFC0000
000FFFFFFFFF0000
003FFFFFFFFF8000
007FFFFFFFFFC000
00FFFFFFFFFFE000
01FFFF803FFFF000
03FFFC0003FFF800
03FFF00001FFFC00
07FFC000007FFC00
0FFF8000003FFE00
0FFF0000001FFF00
1FFE0000000FFF00
1FFE00000007FF80
3FFC00000007FF80
3FFC00000003FF80
3FF800000003FFC0
7FF800000001FFC0
7FF000000001FFC0
7FF000000001FFE0
7FF000000000FFE0
FFF000000000FFE0
FFE000000000FFE0
FFE000000000FFE0
FFE000000000FFE0
FFE000000000FFE0
FFE000000000FFE0
FFE000000000FFE0
FFE000000000FFE0
FFE000000000FFE0
FFE000000000FFE0
FFE000000000FFE0
FFF000000000FFE0
7FF000000000FFE0
7FF000000001FFE0
7FF000000001FFC0
7FF800000001FFC0
3FF800000003FFC0
3FFC00000003FF80
3FFC00000007FF80
1FFE00000007FF80
1FFE0000000FFF00
0FFF0000001FFF00
0FFF8000003FFE00
07FFC000007FFC00
03FFF00001FFFC00
03FFFC0003FFF800
01FFFF803FFFF000
00FFFFFFFFFFE000
007FFFFFFFFFC000
003FFFFFFFFF8000
000FFFFFFFFF0000
0007FFFFFFFC0000
0001FFFFFFF80000
00007FFFFFC00000
00000FFFFF000000
000000FFF0000000
ENDCHAR
STARTCHAR 00D3
ENCODING 211
SWIDTH 806 0
DWIDTH 65 0
BBX 59 76 3 -1
BITMAP
000000003FFE0000
00000000FFFC0000
00000001FFF80000
00000003FFE00000
00000003FFC00000
00000007FF800000
0000000FFF000000
0000001FFE000000
0000001FFC000000
0000003FF8000000
0000007FE0000000
000000FFC0000000
000001FF80000000
0000000000000000
0000000000000000
0000000000000000
000000FFE0000000
00000FFFFF000000
00007FFFFFC00000
0001FFFFFFF00000
0007FFFFFFFC0000
000FFFFFFFFF0000
003FFFFFFFFF8000
007FFFFFFFFFC000
00FFFFFFFFFFE000
01FFFF803FFFF000
03FFFC0003FFF800
03FFF00001FFFC00
07FFC000007FFC00
0FFF8000003FFE00
0FFF0000001FFF00
1FFE0000000FFF00
1FFE00000007FF80
3FFC00000007FF80
3FFC00000003FF80
3FF800000003FFC0
7FF800000001FFC0
7FF000000001FFC0
7FF000000001FFE0
7FF000000000FFE0
FFF000000000FFE0
FFE000000000FFE0
FFE000000000FFE0
FFE000000000FFE0
FFE000000000FFE0
FFE000000000FFE0
FFE000000000FFE0
FFE000000000FFE0
FFE000000000FFE0
FFE000000000FFE0
FFE000000000FFE0
FFF000000000FFE0
7FF000000000FFE0
7FF000000001FFE0
7FF000000001FFC0
7FF800000001FFC0
3FF800000003FFC0
3FFC00000003FF80
3FFC00000007FF80
1FFE00000007FF80
1FFE0000000FFF00
0FFF0000001FFF00
0FFF8000003FFE00
07FFC000007FFC00
03FFF00001FFFC00
03FFFC0003FFF800
01FFFF803FFFF000
00FFFFFFFFFFE000
007FFFFFFFFFC000
003FFFFFFFFF8000
000FFFFFFFFF0000
0007FFFFFFFC0000
0001FFFFFFF80000
00007FFFFFC00000
00000FFFFF000000
000000FFF0000000
ENDCHAR
STARTCHAR 00D4
ENCODING 212
SWIDTH 806 0
DWIDTH 65 0
BBX 59 74 3 -1
BITMAP
0000007FE0000000
000000FFF0000000
000000FFF8000000
000001FFFC000000
000003FFFE000000
000007F9FF000000
00000FF8FF800000
00001FF07FC00000
00003FE07FC00000
00007FC03FE00000
0000FF801FF80000
0000000000000000
0000000000000000
0000000000000000
000000FFE0000000
00000FFFFF000000
00007FFFFFC00000
0001FFFFFFF00000
0007FFFFFFFC0000
000FFFFFFFFF0000
003FFFFFFFFF8000
007FFFFFFFFFC000
00FFFFFFFFFFE000
01FFFF803FFFF000
03FFFC0003FFF800
03FFF00001FFFC00
07FFC000007FFC00
0FFF8000003FFE00
0FFF0000001FFF00
1FFE0000000FFF00
1FFE00000007FF80
3FFC00000007FF80
3FFC00000003FF80
3FF800000003FFC0
7FF800000001FFC0
7FF000000001FFC0
7FF000000001FFE0
7FF000000000FFE0
FFF000000000FFE0
FFE000000000FFE0
FFE000000000FFE0
FFE000000000FFE0
FFE000000000FFE0
FFE000000000FFE0
FFE000000000FFE0
FFE000000000FFE0
FFE000000000FFE0
FFE000000000FFE0
FFE000000000FFE0
FFF000000000FFE0
7FF000000000FFE0
7FF000000001FFE0
7FF000000001FFC0
7FF800000001FFC0
3FF800000003FFC0
3FFC00000003FF80
3FFC00000007FF80
1FFE00000007FF80
1FFE0000000FFF00
0FFF0000001FFF00
0FFF8000003FFE00
07FFC000007FFC00
03FFF00001FFFC00
03FFFC0003FFF800
01FFFF803FFFF000
00FFFFFFFFFFE000
007FFFFFFFFFC000
003FFFFFFFFF8000
000FFFFFFFFF0000
0007FFFFFFFC0000
0001FFFFFFF80000
00007FFFFFC00000
00000FFFFF000000
000000FFF0000000
ENDCHAR
STARTCHAR 00D5
ENCODING 213
SWIDTH 806 0
DWIDTH 65 0
BBX 59 73 3 -1
BITMAP
000003F001F80000
00000FFC01F80000
00001FFF03F80000
00003FFF87F00000
00007FFFFFF00000
00007FFFFFF00000
00007F0FFFE00000
0000FE07FFC00000
0000FC01FF800000
0000FC007E000000
0000000000000000
0000000000000000
0000000000000000
000000FFE0000000
00000FFFFF000000
00007FFFFFC00000
0001FFFFFFF00000
0007FFFFFFFC0000
000FFFFFFFFF0000
003FFFFFFFFF8000
007FFFFFFFFFC000
00FFFFFFFFFFE000
01FFFF803FFFF000
03FFFC0003FFF800
03FFF00001FFFC00
07FFC000007FFC00
0FFF8000003FFE00
0FFF0000001FFF00
1FFE0000000FFF00
1FFE00000007FF80
3FFC00000007FF80
3FFC00000003FF80
3FF800000003FFC0
7FF800000001FFC0
7FF000000001FFC0
7FF000000001FFE0
7FF000000000FFE0
FFF000000000FFE0
FFE000000000FFE0
FFE000000000FFE0
FFE000000000FFE0
FFE000000000FFE0
FFE000000000FFE0
FFE000000000FFE0
FFE000000000FFE0
FFE000000000FFE0
FFE000000000FFE0
FFE000000000FFE0
FFF000000000FFE0
7FF000000000FFE0
7FF000000001FFE0
7FF000000001FFC0
7FF800000001FFC0
3FF800000003FFC0
3FFC00000003FF80
3FFC00000007FF80
1FFE00000007FF80
1FFE0000000FFF00
0FFF0000001FFF00
0FFF8000003FFE00
07FFC000007FFC00
03FFF00001FFFC00
03FFFC0003FFF800
01FFFF803FFFF000
00FFFFFFFFFFE000
007FFFFFFFFFC000
003FFFFFFFFF8000
000FFFFFFFFF0000
0007FFFFFFFC0000
0001FFFFFFF80000
00007FFFFFC00000
00000FFFFF000000
000000FFF0000000
ENDCHAR
STARTCHAR 00D6
ENCODING 214
SWIDTH 806 0
DWIDTH 65 0
BBX 59 74 3 -1
BITMAP
00001E0007800000
00003F801FE00000
00007FC01FF00000
0000FFC03FF00000
0000FFE03FF00000
0000FFE03FF80000
0000FFE03FF00000
0000FFC03FF00000
00007FC01FF00000
00003F801FE00000
00001F0007800000
0000000000000000
0000000000000000
0000000000000000
000000FFE0000000
00000FFFFF000000
00007FFFFFC00000
0001FFFFFFF00000
0007FFFFFFFC0000
000FFFFFFFFF0000
003FFFFFFFFF8000
007FFFFFFFFFC000
00FFFFFFFFFFE000
01FFFF803FFFF000
03FFFC0003FFF800
03FFF00001FFFC00
07FFC000007FFC00
0FFF8000003FFE00
0FFF0000001FFF00
1FFE0000000FFF00
1FFE00000007FF80
3FFC00000007FF80
3FFC00000003FF80
3FF800000003FFC0
7FF800000001FFC0
7FF000000001FFC0
7FF000000001FFE0
7FF000000000FFE0
FFF000000000FFE0
FFE000000000FFE0
FFE000000000FFE0
FFE000000000FFE0
FFE000000000FFE0
FFE000000000FFE0
FFE000000000FFE0
FFE000000000FFE0
FFE000000000FFE0
FFE000000000FFE0
FFE000000000FFE0
FFF000000000FFE0
7FF000000000FFE0
7FF000000001FFE0
7FF000000001FFC0
7FF800000001FFC0
3FF800000003FFC0
3FFC00000003FF80
3FFC00000007FF80
1FFE00000007FF80
1FFE0000000FFF00
0FFF0000001FFF00
0FFF8000003FFE00
07FFC000007FFC00
03FFF00001FFFC00
03FFFC0003FFF800
01FFFF803FFFF000
00FFFFFFFFFFE000
007FFFFFFFFFC000
003FFFFFFFFF8000
000FFFFFFFFF0000
0007FFFFFFFC0000
0001FFFFFFF80000
00007FFFFFC00000
00000FFFFF000000
000000FFF0000000
ENDCHAR
STARTCHAR 00D7
ENCODING 215
SWIDTH 583 0
DWIDTH 47 0
BBX 39 38 4 8
BITMAP
0200000080
07000000C0
0F800001E0
1FC00003F0
3FE00007F8
7FF0000FFC
3FF8001FF8
1FFC003FF0
0FFE007FE0
07FF00FFC0
03FF81FF80
01FFC3FF00
00FFE7FE00
007FFFFC00
003FFFF800
001FFFF000
000FFFE000
0007FFC000
0003FF8000
0003FFC000
0007FFE000
000FFFF000
001FFFF800
003FFFFC00
007FEFFE00
00FFC7FF00
01FF83FF80
03FF01FFC0
07FE00FFE0
0FFC007FF0
1FF8003FF8
3FF0001FFC
FFE0000FFE
7FC00007FC
3F800003F8
1F000001F0
0E000000E0
0400000040
ENDCHAR
STARTCHAR 00D8
ENCODING 216
SWIDTH 806 0
DWIDTH 65 0
BBX 59 66 3 -5
BITMAP
0000000000000FC0
0000000000007F80
000000FFF000FF00
00000FFFFF01FF00
00007FFFFFE3FE00
0001FFFFFFFBFC00
0007FFFFFFFFF800
000FFFFFFFFFF800
003FFFFFFFFFF000
007FFFFFFFFFE000
00FFFFFFFFFFE000
01FFFF803FFFF000
01FFFC0003FFF800
03FFF00000FFF800
07FFC00001FFFC00
0FFF800003FFFE00
0FFF000003FFFE00
1FFE000007FFFF00
1FFE00000FF7FF00
3FFC00001FF7FF80
3FFC00001FE3FF80
3FF800003FC3FFC0
7FF800007FC1FFC0
7FF000007F81FFC0
7FF00000FF01FFC0
7FF00001FE00FFE0
FFF00003FE00FFE0
FFE00003FC00FFE0
FFE00007F800FFE0
FFE0000FF800FFE0
FFE0000FF000FFE0
FFE0001FE000FFE0
FFE0003FC000FFE0
FFE0007FC000FFE0
FFE0007F8000FFE0
FFE000FF0000FFE0
FFE001FF0000FFE0
FFF001FE0000FFE0
7FF003FC0000FFE0
7FF007F80001FFE0
7FF00FF80001FFC0
7FF80FF00001FFC0
3FF81FE00003FFC0
3FFC3FC00003FF80
3FFC3FC00007FF80
1FFE7F800007FF80
1FFEFF00000FFF00
0FFFFF00001FFF00
0FFFFE00003FFE00
07FFFC00007FFC00
07FFF80000FFFC00
03FFFC0003FFF800
01FFFF803FFFF000
00FFFFFFFFFFE000
007FFFFFFFFFC000
003FFFFFFFFF8000
007FFFFFFFFF0000
00FFFFFFFFFC0000
01FFFFFFFFF80000
01FE7FFFFFE00000
03FC1FFFFF000000
07F800FFF0000000
0FF8000000000000
0FF0000000000000
1FE0000000000000
3F80000000000000
ENDCHAR
STARTCHAR 00D9
ENCODING 217
SWIDTH 744 0
DWIDTH 60 0
BBX 48 76 6 -1
BITMAP
01FFE0000000
00FFF8000000
007FFC000000
003FFE000000
001FFE000000
000FFF000000
0007FF800000
0001FFC00000
0000FFE00000
00007FE00000
00003FF00000
00001FF80000
00000FFC0000
000000000000
000000000000
000000000000
000000000000
FFE0000007FF
FFE0000007FF
FFE0000007FF
FFE0000007FF
FFE0000007FF
FFE0000007FF
FFE0000007FF
FFE0000007FF
FFE0000007FF
FFE0000007FF
FFE0000007FF
FFE0000007FF
FFE0000007FF
FFE0000007FF
FFE0000007FF
FFE0000007FF
FFE0000007FF
FFE0000007FF
FFE0000007FF
FFE0000007FF
FFE0000007FF
FFE0000007FF
FFE0000007FF
FFE0000007FF
FFE0000007FF
FFE0000007FF
FFE0000007FF
FFE0000007FF
FFE0000007FF
FFE0000007FF
FFE0000007FF
FFE0000007FF
FFE0000007FF
FFE0000007FF
FFE0000007FF
FFE0000007FF
FFE0000007FF
FFE0000007FF
FFE0000007FF
FFE0000007FF
FFE0000007FF
7FF000000FFF
7FF000000FFE
7FF800000FFE
7FF800001FFE
3FFC00003FFC
3FFE00007FFC
1FFF0000FFF8
1FFF8001FFF8
0FFFF00FFFF0
07FFFFFFFFE0
03FFFFFFFFE0
01FFFFFFFFC0
00FFFFFFFF00
007FFFFFFE00
003FFFFFFC00
000FFFFFF000
0001FFFF8000
00003FFC0000
ENDCHAR
STARTCHAR 00DA
ENCODING 218
SWIDTH 744 0
DWIDTH 60 0
BBX 48 76 6 -1
BITMAP
0000000FFF80
0000003FFF00
0000007FFE00
000000FFF800
000000FFF000
000001FFE000
000003FFC000
000007FF8000
000007FF0000
00000FFE0000
00001FF80000
00003FF00000
00007FE00000
000000000000
000000000000
000000000000
000000000000
FFE0000007FF
FFE0000007FF
FFE0000007FF
FFE0000007FF
FFE0000007FF
FFE0000007FF
FFE0000007FF
FFE0000007FF
FFE0000007FF
FFE0000007FF
FFE0000007FF
FFE0000007FF
FFE0000007FF
FFE0000007FF
FFE0000007FF
FFE0000007FF
FFE0000007FF
FFE0000007FF
FFE0000007FF
FFE0000007FF
FFE0000007FF
FFE0000007FF
FFE0000007FF
FFE0000007FF
FFE0000007FF
FFE0000007FF
FFE0000007FF
FFE0000007FF
FFE0000007FF
FFE0000007FF
FFE0000007FF
FFE0000007FF
FFE0000007FF
FFE0000007FF
FFE0000007FF
FFE0000007FF
FFE0000007FF
FFE0000007FF
FFE0000007FF
FFE0000007FF
FFE0000007FF
7FF000000FFF
7FF000000FFE
7FF800000FFE
7FF800001FFE
3FFC00003FFC
3FFE00007FFC
1FFF0000FFF8
1FFF8001FFF8
0FFFF00FFFF0
07FFFFFFFFE0
03FFFFFFFFE0
01FFFFFFFFC0
00FFFFFFFF00
007FFFFFFE00
003FFFFFFC00
000FFFFFF000
0001FFFF8000
00003FFC0000
ENDCHAR
STARTCHAR 00DB
ENCODING 219
SWIDTH 744 0
DWIDTH 60 0
BBX 48 74 6 -1
BITMAP
00001FF80000
00003FFC0000
00003FFE0000
00007FFF0000
0000FFFF8000
0001FE7FC000
0003FE3FE000
0007FC1FF000
000FF81FF000
001FF00FF800
003FE007FE00
000000000000
000000000000
000000000000
000000000000
FFE0000007FF
FFE0000007FF
FFE0000007FF
FFE0000007FF
FFE0000007FF
FFE0000007FF
FFE0000007FF
FFE0000007FF
FFE0000007FF
FFE0000007FF
FFE0000007FF
FFE0000007FF
FFE0000007FF
FFE0000007FF
FFE0000007FF
FFE0000007FF
FFE0000007FF
FFE0000007FF
FFE0000007FF
FFE0000007FF
FFE0000007FF
FFE0000007FF
FFE0000007FF
FFE0000007FF
FFE0000007FF
FFE0000007FF
FFE0000007FF
FFE0000007FF
FFE0000007FF
FFE0000007FF
FFE0000007FF
FFE0000007FF
FFE0000007FF
FFE0000007FF
FFE0000007FF
FFE0000007FF
FFE0000007FF
FFE0000007FF
FFE0000007FF
FFE0000007FF
FFE0000007FF
7FF000000FFF
7FF000000FFE
7FF800000FFE
7FF800001FFE
3FFC00003FFC
3FFE00007FFC
1FFF0000FFF8
1FFF8001FFF8
0FFFF00FFFF0
07FFFFFFFFE0
03FFFFFFFFE0
01FFFFFFFFC0
00FFFFFFFF00
007FFFFFFE00
003FFFFFFC00
000FFFFFF000
0001FFFF8000
00003FFC0000
ENDCHAR
STARTCHAR 00DC
ENCODING 220
SWIDTH 744 0
DWIDTH 60 0
BBX 48 74 6 -1
BITMAP
00078001E000
000FE007F800
001FF007FC00
003FF00FFC00
003FF80FFC00
003FF80FFE00
003FF80FFC00
003FF00FFC00
001FF007FC00
000FE007F800
0007C001E000
000000000000
000000000000
000000000000
000000000000
FFE0000007FF
FFE0000007FF
FFE0000007FF
FFE0000007FF
FFE0000007FF
FFE0000007FF
FFE0000007FF
FFE0000007FF
FFE0000007FF
FFE0000007FF
FFE0000007FF
FFE0000007FF
FFE0000007FF
FFE0000007FF
FFE0000007FF
FFE0000007FF
FFE0000007FF
FFE0000007FF
FFE0000007FF
FFE0000007FF
FFE0000007FF
FFE0000007FF
FFE0000007FF
FFE0000007FF
FFE0000007FF
FFE0000007FF
FFE0000007FF
FFE0000007FF
FFE0000007FF
FFE0000007FF
FFE0000007FF
FFE0000007FF
FFE0000007FF
FFE0000007FF
FFE0000007FF
FFE0000007FF
FFE0000007FF
FFE0000007FF
FFE0000007FF
FFE0000007FF
FFE0000007FF
7FF000000FFF
7FF000000FFE
7FF800000FFE
7FF800001FFE
3FFC00003FFC
3FFE00007FFC
1FFF0000FFF8
1FFF8001FFF8
0FFFF00FFFF0
07FFFFFFFFE0
03FFFFFFFFE0
01FFFFFFFFC0
00FFFFFFFF00
007FFFFFFE00
003FFFFFFC00
000FFFFFF000
0001FFFF8000
00003FFC0000
ENDCHAR
STARTCHAR 00DD
ENCODING 221
SWIDTH 645 0
DWIDTH 52 0
BBX 54 75 -1 0
BITMAP
00000000FFF800
00000003FFF000
00000007FFE000
0000000FFF8000
0000000FFF0000
0000001FFE0000
0000003FFC0000
0000007FF80000
0000007FF00000
000000FFE00000
000001FF800000
000003FF000000
000007FE000000
00000000000000
00000000000000
00000000000000
00000000000000
FFF00000003FFC
7FF80000007FF8
3FFC0000007FF8
1FFC000000FFF0
1FFE000000FFE0
0FFE000001FFE0
0FFF000001FFC0
07FF000003FFC0
03FF800007FF80
03FFC00007FF00
01FFC0000FFF00
01FFE0000FFE00
00FFE0001FFE00
007FF0001FFC00
007FF0003FF800
003FF8003FF800
003FF8007FF000
001FFC007FF000
000FFC00FFE000
000FFE01FFC000
0007FF01FFC000
0007FF03FF8000
0003FF83FF8000
0003FF87FF0000
0001FFC7FE0000
0000FFCFFE0000
0000FFEFFC0000
00007FEFFC0000
00007FFFF80000
00003FFFF00000
00001FFFF00000
00001FFFE00000
00000FFFE00000
00000FFFC00000
000007FF800000
000003FF800000
000003FF800000
000003FF800000
000003FF800000
000003FF800000
000003FF800000
000003FF800000
000003FF800000
000003FF800000
000003FF800000
000003FF800000
000003FF800000
000003FF800000
000003FF800000
000003FF800000
000003FF800000
000003FF800000
000003FF800000
000003FF800000
000003FF800000
000003FF800000
000003FF800000
000003FF800000
ENDCHAR
STARTCHAR 00DE
ENCODING 222
SWIDTH 620 0
DWIDTH 50 0
BBX 41 58 7 0
BITMAP
FFC000000000
FFC000000000
FFC000000000
FFC000000000
FFC000000000
FFC000000000
FFC000000000
FFC000000000
FFC000000000
FFC000000000
FFFFFF800000
FFFFFFF80000
FFFFFFFF0000
FFFFFFFFC000
FFFFFFFFE000
FFFFFFFFF000
FFFFFFFFF800
FFFFFFFFFC00
FFC001FFFE00
FFC0003FFE00
FFC0001FFF00
FFC0000FFF00
FFC00007FF80
FFC00007FF80
FFC00003FF80
FFC00003FF80
FFC00003FF80
FFC00003FF80
FFC00003FF80
FFC00003FF80
FFC00003FF80
FFC00003FF80
FFC00003FF80
FFC00007FF80
FFC00007FF00
FFC0000FFF00
FFC0001FFF00
FFC0007FFE00
FFC001FFFE00
FFFFFFFFFC00
FFFFFFFFF800
FFFFFFFFF000
FFFFFFFFE000
FFFFFFFF8000
FFFFFFFE0000
FFFFFFF80000
FFFFFF800000
FFC000000000
FFC000000000
FFC000000000
FFC000000000
FFC000000000
FFC000000000
FFC000000000
FFC000000000
FFC000000000
FFC000000000
FFC000000000
ENDCHAR
STARTCHAR 00DF
ENCODING 223
SWIDTH 608 0
DWIDTH 49 0
BBX 42 60 5 -1
BITMAP
0000FFC00000
000FFFFC0000
003FFFFF0000
00FFFFFF8000
01FFFFFFC000
03FFFFFFE000
07FFFFFFF000
0FFF80FFF800
1FFE001FF800
3FF8000FFC00
3FF0000FFC00
7FF00007FE00
7FE00007FE00
7FE00007FE00
FFE00007FE00
FFC00007FE00
FFC0000FFC00
FFC0001FFC00
FFC0003FFC00
FFC0007FF800
FFC000FFF000
FFC001FFE000
FFC007FFC000
FFC00FFF0000
FFC00FFE0000
FFC01FFC0000
FFC03FF80000
FFC03FF00000
FFC03FF00000
FFC03FF00000
FFC03FF80000
FFC03FFC0000
FFC03FFF0000
FFC03FFF8000
FFC03FFFE000
FFC01FFFF000
FFC00FFFFC00
FFC007FFFE00
FFC003FFFE00
FFC000FFFF00
FFC0003FFF80
FFC0001FFF80
FFC00007FF80
FFC00003FF80
FFC00001FFC0
FFC00000FFC0
FFC00000FFC0
FFC00000FFC0
FFC00000FFC0
FFC00000FF80
FFC1F001FF80
FFC1F801FF80
FFC3FF07FF00
FFC7FFFFFF00
FFC7FFFFFE00
FFC7FFFFFC00
FFC1FFFFF800
FFC0FFFFE000
FFC03FFF8000
000003FC0000
ENDCHAR
STARTCHAR 00E0
ENCODING 224
SWIDTH 508 0
DWIDTH 41 0
BBX 35 60 2 -1
BITMAP
07FF800000
01FFC00000
00FFE00000
007FE00000
007FF00000
003FF00000
001FF80000
000FFC0000
0007FC0000
0003FE0000
0001FE0000
0000FF0000
0000000000
0000000000
0000000000
0000000000
0000000000
0003FF0000
003FFFC000
00FFFFF000
03FFFFFC00
07FFFFFE00
1FFFFFFE00
3FFFFFFF00
3FFFFFFF80
1FFC07FF80
1FF003FFC0
0FC001FFC0
070000FFC0
000000FFC0
0000007FE0
0000007FE0
0000007FE0
0000007FE0
0000007FE0
0000007FE0
00007FFFE0
000FFFFFE0
007FFFFFE0
01FFFFFFE0
07FFFFFFE0
0FFFFFFFE0
1FFFC07FE0
3FFC007FE0
7FF0007FE0
7FE0007FE0
FFC0007FE0
FFC0007FE0
FFC0007FE0
FFC000FFE0
FFC001FFE0
FFE007FFE0
FFF01FFFE0
7FFFFFFFE0
7FFFFFBFE0
3FFFFF3FE0
1FFFFE1FE0
0FFFF81FE0
07FFF00FE0
00FF800000
ENDCHAR
STARTCHAR 00E1
ENCODING 225
SWIDTH 508 0
DWIDTH 41 0
BBX 35 60 2 -1
BITMAP
00000FFF00
00001FFE00
00003FFC00
00003FF800
00007FF000
00007FE000
0000FFC000
0001FF8000
0001FF0000
0003FE0000
0003FC0000
0007F80000
0000000000
0000000000
0000000000
0000000000
0000000000
0003FF0000
003FFFC000
00FFFFF000
03FFFFFC00
07FFFFFE00
1FFFFFFE00
3FFFFFFF00
3FFFFFFF80
1FFC07FF80
1FF003FFC0
0FC001FFC0
070000FFC0
000000FFC0
0000007FE0
0000007FE0
0000007FE0
0000007FE0
0000007FE0
0000007FE0
00007FFFE0
000FFFFFE0
007FFFFFE0
01FFFFFFE0
07FFFFFFE0
0FFFFFFFE0
1FFFC07FE0
3FFC007FE0
7FF0007FE0
7FE0007FE0
FFC0007FE0
FFC0007FE0
FFC0007FE0
FFC000FFE0
FFC001FFE0
FFE007FFE0
FFF01FFFE0
7FFFFFFFE0
7FFFFFBFE0
3FFFFF3FE0
1FFFFE1FE0
0FFFF81FE0
07FFF00FE0
00FF800000
ENDCHAR
STARTCHAR 00E2
ENCODING 226
SWIDTH 508 0
DWIDTH 41 0
BBX 35 59 2 -1
BITMAP
0007FE0000
000FFF0000
001FFF8000
001FFFC000
003FFFE000
007FDFF000
00FF8FF000
01FF07F800
03FE03FC00
07FC01FE00
0FF800FF00
0000000000
0000000000
0000000000
0000000000
0000000000
0003FF0000
003FFFC000
00FFFFF000
03FFFFFC00
07FFFFFE00
1FFFFFFE00
3FFFFFFF00
3FFFFFFF80
1FFC07FF80
1FF003FFC0
0FC001FFC0
070000FFC0
000000FFC0
0000007FE0
0000007FE0
0000007FE0
0000007FE0
0000007FE0
0000007FE0
00007FFFE0
000FFFFFE0
007FFFFFE0
01FFFFFFE0
07FFFFFFE0
0FFFFFFFE0
1FFFC07FE0
3FFC007FE0
7FF0007FE0
7FE0007FE0
FFC0007FE0
FFC0007FE0
FFC0007FE0
FFC000FFE0
FFC001FFE0
FFE007FFE0
FFF01FFFE0
7FFFFFFFE0
7FFFFFBFE0
3FFFFF3FE0
1FFFFE1FE0
0FFFF81FE0
07FFF00FE0
00FF800000
ENDCHAR
STARTCHAR 00E3
ENCODING 227
SWIDTH 508 0
DWIDTH 41 0
BBX 35 59 2 -1
BITMAP
001F007E00
007FE07E00
00FFF8FE00
01FFFFFE00
01FFFFFC00
03FFFFFC00
03FFFFF800
03F0FFF800
07F03FF000
07F00FC000
0000000000
0000000000
0000000000
0000000000
0000000000
0000000000
0003FF0000
003FFFC000
00FFFFF000
03FFFFFC00
07FFFFFE00
1FFFFFFE00
3FFFFFFF00
3FFFFFFF80
1FFC07FF80
1FF003FFC0
0FC001FFC0
070000FFC0
000000FFC0
0000007FE0
0000007FE0
0000007FE0
0000007FE0
0000007FE0
0000007FE0
00007FFFE0
000FFFFFE0
007FFFFFE0
01FFFFFFE0
07FFFFFFE0
0FFFFFFFE0
1FFFC07FE0
3FFC007FE0
7FF0007FE0
7FE0007FE0
FFC0007FE0
FFC0007FE0
FFC0007FE0
FFC000FFE0
FFC001FFE0
FFE007FFE0
FFF01FFFE0
7FFFFFFFE0
7FFFFFBFE0
3FFFFF3FE0
1FFFFE1FE0
0FFFF81FE0
07FFF00FE0
00FF800000
ENDCHAR
STARTCHAR 00E4
ENCODING 228
SWIDTH 508 0
DWIDTH 41 0
BBX 35 59 2 -1
BITMAP
00F000F800
03FC01FC00
07FE03FE00
07FE07FF00
07FE07FF00
0FFF07FF00
0FFF07FF00
07FE07FF00
07FE03FE00
03FC01FC00
00F000F800
0000000000
0000000000
0000000000
0000000000
0000000000
0003FF0000
003FFFC000
00FFFFF000
03FFFFFC00
07FFFFFE00
1FFFFFFE00
3FFFFFFF00
3FFFFFFF80
1FFC07FF80
1FF003FFC0
0FC001FFC0
070000FFC0
000000FFC0
0000007FE0
0000007FE0
0000007FE0
0000007FE0
0000007FE0
0000007FE0
00007FFFE0
000FFFFFE0
007FFFFFE0
01FFFFFFE0
07FFFFFFE0
0FFFFFFFE0
1FFFC07FE0
3FFC007FE0
7FF0007FE0
7FE0007FE0
FFC0007FE0
FFC0007FE0
FFC0007FE0
FFC000FFE0
FFC001FFE0
FFE007FFE0
FFF01FFFE0
7FFFFFFFE0
7FFFFFBFE0
3FFFFF3FE0
1FFFFE1FE0
0FFFF81FE0
07FFF00FE0
00FF800000
ENDCHAR
STARTCHAR 00E5
ENCODING 229
SWIDTH 508 0
DWIDTH 41 0
BBX 35 63 2 -1
BITMAP
0001F80000
0007FE0000
000FFF8000
001FFFC000
003FFFC000
003F0FE000
007E07E000
007E03E000
007E03E000
007E03E000
007E07E000
003F0FE000
003FFFC000
001FFFC000
000FFF8000
0007FE0000
0001F80000
0000000000
0000000000
0000000000
0003FF0000
003FFFC000
00FFFFF000
03FFFFFC00
07FFFFFE00
1FFFFFFE00
3FFFFFFF00
3FFFFFFF80
1FFC07FF80
1FF003FFC0
0FC001FFC0
070000FFC0
000000FFC0
0000007FE0
0000007FE0
0000007FE0
0000007FE0
0000007FE0
0000007FE0
00007FFFE0
000FFFFFE0
007FFFFFE0
01FFFFFFE0
07FFFFFFE0
0FFFFFFFE0
1FFFC07FE0
3FFC007FE0
7FF0007FE0
7FE0007FE0
FFC0007FE0
FFC0007FE0
FFC0007FE0
FFC000FFE0
FFC001FFE0
FFE007FFE0
FFF01FFFE0
7FFFFFFFE0
7FFFFFBFE0
3FFFFF3FE0
1FFFFE1FE0
0FFFF81FE0
07FFF00FE0
00FF800000
ENDCHAR
STARTCHAR 00E6
ENCODING 230
SWIDTH 819 0
DWIDTH 66 0
BBX 61 43 2 -1
BITMAP
0007FE0000FF0000
003FFFC007FFE000
00FFFFE01FFFF800
03FFFFF07FFFFC00
0FFFFFF8FFFFFE00
1FFFFFFDFFFFFF00
3FFFFFFFFFFFFF80
1FFE07FFFF81FFC0
1FF803FFFE00FFC0
0FE001FFFC007FE0
0FC000FFF8003FE0
030000FFF0001FF0
0000007FF0001FF0
0000007FE0001FF0
0000007FE0000FF0
0000007FE0000FF8
0000007FE0000FF8
0000007FE0000FF8
00007FFFFFFFFFF8
000FFFFFFFFFFFF8
007FFFFFFFFFFFF8
01FFFFFFFFFFFFF8
07FFFFFFFFFFFFF8
0FFFFFFFFFFFFFF0
1FFFE07FC0000000
3FFE007FE0000000
7FF0007FE0000000
7FE0007FE0000000
7FC0007FE0000000
FFC0007FF0000000
FFC000FFF0000000
FFC000FFF8000000
FFC001FFFC0003C0
FFC003FFFE000FE0
FFE007FFFFC03FE0
7FF81FFBFFFFFFF0
7FFFFFF1FFFFFFF8
7FFFFFF0FFFFFFE0
3FFFFFC07FFFFFC0
1FFFFF803FFFFF80
0FFFFF001FFFFE00
03FFFC0007FFF800
007FC00000FF8000
ENDCHAR
STARTCHAR 00E7
ENCODING 231
SWIDTH 484 0
DWIDTH 39 0
BBX 35 56 3 -14
BITMAP
0001FF8000
000FFFF000
007FFFFC00
00FFFFFE00
01FFFFFF80
07FFFFFFC0
07FFFFFFC0
0FFFFFFF80
1FFF80FF80
3FFE003F00
3FFC000E00
3FF8000000
7FF0000000
7FE0000000
7FE0000000
FFE0000000
FFC0000000
FFC0000000
FFC0000000
FFC0000000
FFC0000000
FFC0000000
FFC0000000
FFC0000000
FFC0000000
FFC0000000
FFC0000000
FFE0000000
7FE0000000
7FE0000000
7FF0000000
3FF8000200
3FF8000F00
1FFE003F80
1FFF00FFC0
0FFFFFFFE0
07FFFFFFC0
03FFFFFF80
01FFFFFF00
00FFFFFE00
003FFFF800
000FFFC000
0000FC0000
0001F80000
0001F80000
0001FF0000
0003FFC000
0003FFE000
00003FE000
00000FF000
00000FF000
00041FF000
0007FFE000
000FFFC000
000FFF8000
0007FC0000
ENDCHAR
STARTCHAR 00E8
ENCODING 232
SWIDTH 533 0
DWIDTH 43 0
BBX 38 60 3 -1
BITMAP
01FFE00000
007FF00000
003FF80000
001FF80000
001FFC0000
000FFC0000
0007FE0000
0003FF0000
0001FF0000
0000FF8000
00007F8000
00003FC000
0000000000
0000000000
0000000000
0000000000
0000000000
0001FF0000
000FFFE000
007FFFF800
00FFFFFE00
01FFFFFF00
03FFFFFF80
07FFFFFFC0
0FFF81FFE0
1FFC007FE0
3FF8003FF0
3FF0001FF0
7FF0000FF0
7FE0000FF8
7FE0000FF8
FFC0000FF8
FFC00007F8
FFC00007FC
FFFFFFFFFC
FFFFFFFFFC
FFFFFFFFFC
FFFFFFFFFC
FFFFFFFFF8
FFFFFFFFF8
FFC0000000
FFC0000000
FFC0000000
FFC0000000
FFC0000000
7FE0000000
7FE0000000
7FF0000000
3FF8000080
3FFC0003C0
1FFE000FE0
1FFF807FF0
0FFFFFFFF8
07FFFFFFF8
03FFFFFFF0
01FFFFFFE0
00FFFFFF80
003FFFFF00
000FFFF800
0001FF8000
ENDCHAR
STARTCHAR 00E9
ENCODING 233
SWIDTH 533 0
DWIDTH 43 0
BBX 38 60 3 -1
BITMAP
000003FFC0
000007FF80
00000FFF00
00000FFE00
00001FFC00
00001FF800
00003FF000
00007FE000
00007FC000
0000FF8000
0000FF0000
0001FE0000
0000000000
0000000000
0000000000
0000000000
0000000000
0001FF0000
000FFFE000
007FFFF800
00FFFFFE00
01FFFFFF00
03FFFFFF80
07FFFFFFC0
0FFF81FFE0
1FFC007FE0
3FF8003FF0
3FF0001FF0
7FF0000FF0
7FE0000FF8
7FE0000FF8
FFC0000FF8
FFC00007F8
FFC00007FC
FFFFFFFFFC
FFFFFFFFFC
FFFFFFFFFC
FFFFFFFFFC
FFFFFFFFF8
FFFFFFFFF8
FFC0000000
FFC0000000
FFC0000000
FFC0000000
FFC0000000
7FE0000000
7FE0000000
7FF0000000
3FF8000080
3FFC0003C0
1FFE000FE0
1FFF807FF0
0FFFFFFFF8
07FFFFFFF8
03FFFFFFF0
01FFFFFFE0
00FFFFFF80
003FFFFF00
000FFFF800
0001FF8000
ENDCHAR
STARTCHAR 00EA
ENCODING 234
SWIDTH 533 0
DWIDTH 43 0
BBX 38 59 3 -1
BITMAP
0001FF8000
0003FFC000
0007FFE000
0007FFF000
000FFFF800
001FF7FC00
003FE3FC00
007FC1FE00
00FF80FF00
01FF007F80
03FE003FC0
0000000000
0000000000
0000000000
0000000000
0000000000
0001FF0000
000FFFE000
007FFFF800
00FFFFFE00
01FFFFFF00
03FFFFFF80
07FFFFFFC0
0FFF81FFE0
1FFC007FE0
3FF8003FF0
3FF0001FF0
7FF0000FF0
7FE0000FF8
7FE0000FF8
FFC0000FF8
FFC00007F8
FFC00007FC
FFFFFFFFFC
FFFFFFFFFC
FFFFFFFFFC
FFFFFFFFFC
FFFFFFFFF8
FFFFFFFFF8
FFC0000000
FFC0000000
FFC0000000
FFC0000000
FFC0000000
7FE0000000
7FE0000000
7FF0000000
3FF8000080
3FFC0003C0
1FFE000FE0
1FFF807FF0
0FFFFFFFF8
07FFFFFFF8
03FFFFFFF0
01FFFFFFE0
00FFFFFF80
003FFFFF00
000FFFF800
0001FF8000
ENDCHAR
STARTCHAR 00EB
ENCODING 235
SWIDTH 533 0
DWIDTH 43 0
BBX 38 59 3 -1
BITMAP
003C003E00
00FF007F00
01FF80FF80
01FF81FFC0
01FF81FFC0
03FFC1FFC0
03FFC1FFC0
01FF81FFC0
01FF80FF80
00FF007F00
003C003E00
0000000000
0000000000
0000000000
0000000000
0000000000
0001FF0000
000FFFE000
007FFFF800
00FFFFFE00
01FFFFFF00
03FFFFFF80
07FFFFFFC0
0FFF81FFE0
1FFC007FE0
3FF8003FF0
3FF0001FF0
7FF0000FF0
7FE0000FF8
7FE0000FF8
FFC0000FF8
FFC00007F8
FFC00007FC
FFFFFFFFFC
FFFFFFFFFC
FFFFFFFFFC
FFFFFFFFFC
FFFFFFFFF8
FFFFFFFFF8
FFC0000000
FFC0000000
FFC0000000
FFC0000000
FFC0000000
7FE0000000
7FE0000000
7FF0000000
3FF8000080
3FFC0003C0
1FFE000FE0
1FFF807FF0
0FFFFFFFF8
07FFFFFFF8
03FFFFFFF0
01FFFFFFE0
00FFFFFF80
003FFFFF00
000FFFF800
0001FF8000
ENDCHAR
STARTCHAR 00EC
ENCODING 236
SWIDTH 260 0
DWIDTH 21 0
BBX 19 59 -3 0
BITMAP
FFF000
3FF800
1FFC00
0FFC00
0FFE00
07FE00
03FF00
01FF80
00FF80
007FC0
003FC0
001FE0
000000
000000
000000
000000
000000
000000
00FFC0
00FFC0
00FFC0
00FFC0
00FFC0
00FFC0
00FFC0
00FFC0
00FFC0
00FFC0
00FFC0
00FFC0
00FFC0
00FFC0
00FFC0
00FFC0
00FFC0
00FFC0
00FFC0
00FFC0
00FFC0
00FFC0
00FFC0
00FFC0
00FFC0
00FFC0
00FFC0
00FFC0
00FFC0
00FFC0
00FFC0
00FFC0
00FFC0
00FFC0
00FFC0
00FFC0
00FFC0
00FFC0
00FFC0
00FFC0
00FFC0
ENDCHAR
STARTCHAR 00ED
ENCODING 237
SWIDTH 260 0
DWIDTH 21 0
BBX 19 59 5 0
BITMAP
01FFE0
03FFC0
07FF80
07FF00
0FFE00
0FFC00
1FF800
3FF000
3FE000
7FC000
7F8000
FF0000
000000
000000
000000
000000
000000
000000
FFC000
FFC000
FFC000
FFC000
FFC000
FFC000
FFC000
FFC000
FFC000
FFC000
FFC000
FFC000
FFC000
FFC000
FFC000
FFC000
FFC000
FFC000
FFC000
FFC000
FFC000
FFC000
FFC000
FFC000
FFC000
FFC000
FFC000
FFC000
FFC000
FFC000
FFC000
FFC000
FFC000
FFC000
FFC000
FFC000
FFC000
FFC000
FFC000
FFC000
FFC000
ENDCHAR
STARTCHAR 00EE
ENCODING 238
SWIDTH 260 0
DWIDTH 21 0
BBX 28 58 -4 0
BITMAP
007FE000
00FFF000
01FFF800
01FFFC00
03FFFE00
07FDFF00
0FF8FF00
1FF07F80
3FE03FC0
7FC01FE0
FF800FF0
00000000
00000000
00000000
00000000
00000000
00000000
007FE000
007FE000
007FE000
007FE000
007FE000
007FE000
007FE000
007FE000
007FE000
007FE000
007FE000
007FE000
007FE000
007FE000
007FE000
007FE000
007FE000
007FE000
007FE000
007FE000
007FE000
007FE000
007FE000
007FE000
007FE000
007FE000
007FE000
007FE000
007FE000
007FE000
007FE000
007FE000
007FE000
007FE000
007FE000
007FE000
007FE000
007FE000
007FE000
007FE000
007FE000
ENDCHAR
STARTCHAR 00EF
ENCODING 239
SWIDTH 260 0
DWIDTH 21 0
BBX 25 58 -2 0
BITMAP
1E007800
3F81FE00
7FC3FF00
FFC3FF00
FFE3FF80
FFE7FF80
FFE3FF80
FFE3FF00
7FC3FF00
7F81FE00
1F007800
00000000
00000000
00000000
00000000
00000000
00000000
01FF8000
01FF8000
01FF8000
01FF8000
01FF8000
01FF8000
01FF8000
01FF8000
01FF8000
01FF8000
01FF8000
01FF8000
01FF8000
01FF8000
01FF8000
01FF8000
01FF8000
01FF8000
01FF8000
01FF8000
01FF8000
01FF8000
01FF8000
01FF8000
01FF8000
01FF8000
01FF8000
01FF8000
01FF8000
01FF8000
01FF8000
01FF8000
01FF8000
01FF8000
01FF8000
01FF8000
01FF8000
01FF8000
01FF8000
01FF8000
01FF8000
ENDCHAR
STARTCHAR 00F0
ENCODING 240
SWIDTH 571 0
DWIDTH 46 0
BBX 40 58 3 -1
BITMAP
0038000100
007F800380
007FF00780
007FFC1FC0
00FFFF3FC0
00FFFFFFC0
007FFFFFC0
003FFFFF00
0007FFFC00
0000FFFE00
0001FFFF00
0007FFFF80
000FFFFFC0
000FF8FFC0
000FF07FE0
0007C03FF0
0003801FF0
0002001FF8
0000000FF8
00000007FC
0003FC07FC
003FFF83FC
00FFFFE3FE
01FFFFF3FE
03FFFFFFFE
07FFFFFFFE
0FFFFFFFFF
1FFFFFFFFF
3FFF00FFFF
3FFC003FFF
7FF8001FFF
7FF0000FFF
FFE00007FF
FFE00003FF
FFC00003FF
FFC00001FF
FFC00001FF
FFC00003FF
FFC00003FF
FFC00003FF
FFC00003FE
FFC00003FE
FFC00007FE
FFC00007FE
FFE00007FC
7FE0000FFC
7FF0001FFC
7FF8003FF8
3FFC007FF8
1FFF01FFF0
1FFFFFFFE0
0FFFFFFFE0
07FFFFFFC0
03FFFFFF80
01FFFFFE00
007FFFFC00
001FFFF000
0001FF0000
ENDCHAR
STARTCHAR 00F1
ENCODING 241
SWIDTH 571 0
DWIDTH 46 0
BBX 36 58 5 0
BITMAP
001F007E00
007FE07E00
00FFF8FE00
01FFFFFE00
01FFFFFC00
03FFFFFC00
03FFFFF800
03F0FFF800
07F03FF000
07F00FC000
0000000000
0000000000
0000000000
0000000000
0000000000
0000000000
00001FC000
FF00FFF800
FF03FFFC00
FF8FFFFF00
FF9FFFFF80
FFBFFFFF80
FFFFFFFFC0
FFFFFFFFC0
FFFF03FFE0
FFFC00FFE0
FFF0007FF0
FFE0007FF0
FFC0003FF0
FFC0003FF0
FFC0003FF0
FFC0003FF0
FFC0003FF0
FFC0003FF0
FFC0003FF0
FFC0003FF0
FFC0003FF0
FFC0003FF0
FFC0003FF0
FFC0003FF0
FFC0003FF0
FFC0003FF0
FFC0003FF0
FFC0003FF0
FFC0003FF0
FFC0003FF0
FFC0003FF0
FFC0003FF0
FFC0003FF0
FFC0003FF0
FFC0003FF0
FFC0003FF0
FFC0003FF0
FFC0003FF0
FFC0003FF0
FFC0003FF0
FFC0003FF0
FFC0003FF0
ENDCHAR
STARTCHAR 00F2
ENCODING 242
SWIDTH 583 0
DWIDTH 47 0
BBX 41 60 3 -1
BITMAP
01FFE0000000
007FF0000000
003FF8000000
001FF8000000
001FFC000000
000FFC000000
0007FE000000
0003FF000000
0001FF000000
0000FF800000
00007F800000
00003FC00000
000000000000
000000000000
000000000000
000000000000
000000000000
0001FF800000
000FFFF80000
003FFFFE0000
00FFFFFF0000
01FFFFFFC000
03FFFFFFE000
07FFFFFFF000
0FFFFFFFF800
1FFF80FFF800
1FFE003FFC00
3FF8001FFC00
3FF8000FFE00
7FF00007FE00
7FE00007FF00
7FE00003FF00
FFE00003FF00
FFC00003FF00
FFC00003FF80
FFC00003FF80
FFC00003FF80
FFC00003FF80
FFC00003FF80
FFC00003FF80
FFC00003FF80
FFC00003FF80
FFC00003FF80
FFC00003FF00
FFE00003FF00
7FE00003FF00
7FE00007FF00
7FF00007FE00
3FF0000FFE00
3FF8001FFC00
1FFE003FFC00
1FFF80FFF800
0FFFFFFFF800
07FFFFFFF000
03FFFFFFE000
01FFFFFFC000
00FFFFFF8000
003FFFFE0000
000FFFF80000
0001FF800000
ENDCHAR
STARTCHAR 00F3
ENCODING 243
SWIDTH 583 0
DWIDTH 47 0
BBX 41 60 3 -1
BITMAP
000003FFC000
000007FF8000
00000FFF0000
00000FFE0000
00001FFC0000
00001FF80000
00003FF00000
00007FE00000
00007FC00000
0000FF800000
0000FF000000
0001FE000000
000000000000
000000000000
000000000000
000000000000
000000000000
0001FF800000
000FFFF80000
003FFFFE0000
00FFFFFF0000
01FFFFFFC000
03FFFFFFE000
07FFFFFFF000
0FFFFFFFF800
1FFF80FFF800
1FFE003FFC00
3FF8001FFC00
3FF8000FFE00
7FF00007FE00
7FE00007FF00
7FE00003FF00
FFE00003FF00
FFC00003FF00
FFC00003FF80
FFC00003FF80
FFC00003FF80
FFC00003FF80
FFC00003FF80
FFC00003FF80
FFC00003FF80
FFC00003FF80
FFC00003FF80
FFC00003FF00
FFE00003FF00
7FE00003FF00
7FE00007FF00
7FF00007FE00
3FF0000FFE00
3FF8001FFC00
1FFE003FFC00
1FFF80FFF800
0FFFFFFFF800
07FFFFFFF000
03FFFFFFE000
01FFFFFFC000
00FFFFFF8000
003FFFFE0000
000FFFF80000
0001FF800000
ENDCHAR
STARTCHAR 00F4
ENCODING 244
SWIDTH 583 0
DWIDTH 47 0
BBX 41 59 3 -1
BITMAP
0001FF800000
0003FFC00000
0007FFE00000
0007FFF00000
000FFFF80000
001FF7FC0000
003FE3FC0000
007FC1FE0000
00FF80FF0000
01FF007F8000
03FE003FC000
000000000000
000000000000
000000000000
000000000000
000000000000
0001FF800000
000FFFF80000
003FFFFE0000
00FFFFFF0000
01FFFFFFC000
03FFFFFFE000
07FFFFFFF000
0FFFFFFFF800
1FFF80FFF800
1FFE003FFC00
3FF8001FFC00
3FF8000FFE00
7FF00007FE00
7FE00007FF00
7FE00003FF00
FFE00003FF00
FFC00003FF00
FFC00003FF80
FFC00003FF80
FFC00003FF80
FFC00003FF80
FFC00003FF80
FFC00003FF80
FFC00003FF80
FFC00003FF80
FFC00003FF80
FFC00003FF00
FFE00003FF00
7FE00003FF00
7FE00007FF00
7FF00007FE00
3FF0000FFE00
3FF8001FFC00
1FFE003FFC00
1FFF80FFF800
0FFFFFFFF800
07FFFFFFF000
03FFFFFFE000
01FFFFFFC000
00FFFFFF8000
003FFFFE0000
000FFFF80000
0001FF800000
ENDCHAR
STARTCHAR 00F5
ENCODING 245
SWIDTH 583 0
DWIDTH 47 0
BBX 41 59 3 -1
BITMAP
0007C01F8000
001FF81F8000
003FFE3F8000
007FFFFF8000
007FFFFF0000
00FFFFFF0000
00FFFFFE0000
00FC3FFE0000
01FC0FFC0000
01FC03F00000
000000000000
000000000000
000000000000
000000000000
000000000000
000000000000
0001FF800000
000FFFF80000
003FFFFE0000
00FFFFFF0000
01FFFFFFC000
03FFFFFFE000
07FFFFFFF000
0FFFFFFFF800
1FFF80FFF800
1FFE003FFC00
3FF8001FFC00
3FF8000FFE00
7FF00007FE00
7FE00007FF00
7FE00003FF00
FFE00003FF00
FFC00003FF00
FFC00003FF80
FFC00003FF80
FFC00003FF80
FFC00003FF80
FFC00003FF80
FFC00003FF80
FFC00003FF80
FFC00003FF80
FFC00003FF80
FFC00003FF00
FFE00003FF00
7FE00003FF00
7FE00007FF00
7FF00007FE00
3FF0000FFE00
3FF8001FFC00
1FFE003FFC00
1FFF80FFF800
0FFFFFFFF800
07FFFFFFF000
03FFFFFFE000
01FFFFFFC000
00FFFFFF8000
003FFFFE0000
000FFFF80000
0001FF800000
ENDCHAR
STARTCHAR 00F6
ENCODING 246
SWIDTH 583 0
DWIDTH 47 0
BBX 41 59 3 -1
BITMAP
003C003E0000
00FF007F0000
01FF80FF8000
01FF81FFC000
01FF81FFC000
03FFC1FFC000
03FFC1FFC000
01FF81FFC000
01FF80FF8000
00FF007F0000
003C003E0000
000000000000
000000000000
000000000000
000000000000
000000000000
0001FF800000
000FFFF80000
003FFFFE0000
00FFFFFF0000
01FFFFFFC000
03FFFFFFE000
07FFFFFFF000
0FFFFFFFF800
1FFF80FFF800
1FFE003FFC00
3FF8001FFC00
3FF8000FFE00
7FF00007FE00
7FE00007FF00
7FE00003FF00
FFE00003FF00
FFC00003FF00
FFC00003FF80
FFC00003FF80
FFC00003FF80
FFC00003FF80
FFC00003FF80
FFC00003FF80
FFC00003FF80
FFC00003FF80
FFC00003FF80
FFC00003FF00
FFE00003FF00
7FE00003FF00
7FE00007FF00
7FF00007FE00
3FF0000FFE00
3FF8001FFC00
1FFE003FFC00
1FFF80FFF800
0FFFFFFFF800
07FFFFFFF000
03FFFFFFE000
01FFFFFFC000
00FFFFFF8000
003FFFFE0000
000FFFF80000
0001FF800000
ENDCHAR
STARTCHAR 00F7
ENCODING 247
SWIDTH 583 0
DWIDTH 47 0
BBX 39 41 4 7
BITMAP
00007C0000
0001FE0000
0003FF0000
0003FF8000
0007FF8000
0007FFC000
0007FFC000
0007FF8000
0003FF8000
0003FF8000
0001FF0000
00007C0000
0000000000
0000000000
0000000000
0000000000
0000000000
FFFFFFFFFE
FFFFFFFFFE
FFFFFFFFFE
FFFFFFFFFE
FFFFFFFFFE
FFFFFFFFFE
FFFFFFFFFE
FFFFFFFFFE
0000000000
0000000000
0000000000
0000000000
00007C0000
0001FE0000
0003FF0000
0003FF8000
0007FF8000
0007FFC000
0007FFC000
0007FF8000
0003FF8000
0003FF8000
0001FF0000
00007C0000
ENDCHAR
STARTCHAR 00F8
ENCODING 248
SWIDTH 583 0
DWIDTH 47 0
BBX 43 48 2 -3
BITMAP
000000000FE0
000000001FC0
000000003FC0
0000FFC07F80
0007FFF8FF00
001FFFFEFE00
007FFFFFFE00
00FFFFFFFC00
01FFFFFFF800
03FFFFFFF800
07FFFFFFF800
0FFFC07FFC00
0FFF001FFE00
1FFC003FFE00
1FF8007FFF00
3FF800FFFF00
3FF000FFFF80
7FF001FFFF80
7FE003FDFF80
7FE007F8FF80
7FE007F0FFC0
7FE00FF0FFC0
7FC01FE0FFC0
7FC03FC0FFC0
7FC03F80FFC0
7FC07F00FFC0
7FC0FF00FFC0
7FE1FE00FFC0
7FE1FC00FFC0
7FE3F800FF80
7FE7F801FF80
3FEFF001FF80
3FFFE001FF80
3FFFC003FF00
1FFFC007FF00
1FFF800FFF00
0FFF001FFE00
0FFFC07FFC00
07FFFFFFFC00
03FFFFFFF800
03FFFFFFF000
07FFFFFFE000
0FFFFFFFC000
1FFFFFFF0000
1FC7FFFC0000
3FC07FC00000
7F8000000000
FF0000000000
ENDCHAR
STARTCHAR 00F9
ENCODING 249
SWIDTH 571 0
DWIDTH 46 0
BBX 36 60 5 -1
BITMAP
07FF800000
01FFC00000
00FFE00000
007FE00000
007FF00000
003FF00000
001FF80000
000FFC0000
0007FC0000
0003FE0000
0001FE0000
0000FF0000
0000000000
0000000000
0000000000
0000000000
0000000000
0000000000
FFC0003FF0
FFC0003FF0
FFC0003FF0
FFC0003FF0
FFC0003FF0
FFC0003FF0
FFC0003FF0
FFC0003FF0
FFC0003FF0
FFC0003FF0
FFC0003FF0
FFC0003FF0
FFC0003FF0
FFC0003FF0
FFC0003FF0
FFC0003FF0
FFC0003FF0
FFC0003FF0
FFC0003FF0
FFC0003FF0
FFC0003FF0
FFC0003FF0
FFC0003FF0
FFC0003FF0
FFC0003FF0
FFC0003FF0
FFC0003FF0
FFC0003FF0
FFC0003FF0
FFC0003FF0
FFC0007FF0
FFE000FFF0
FFF003FFF0
7FFC0FFFF0
7FFFFFFFF0
3FFFFFFFF0
3FFFFFDFF0
1FFFFF9FF0
0FFFFF1FF0
07FFFC1FF0
01FFF80FF0
007FC00000
ENDCHAR
STARTCHAR 00FA
ENCODING 250
SWIDTH 571 0
DWIDTH 46 0
BBX 36 60 5 -1
BITMAP
00000FFF00
00001FFE00
00003FFC00
00003FF800
00007FF000
00007FE000
0000FFC000
0001FF8000
0001FF0000
0003FE0000
0003FC0000
0007F80000
0000000000
0000000000
0000000000
0000000000
0000000000
0000000000
FFC0003FF0
FFC0003FF0
FFC0003FF0
FFC0003FF0
FFC0003FF0
FFC0003FF0
FFC0003FF0
FFC0003FF0
FFC0003FF0
FFC0003FF0
FFC0003FF0
FFC0003FF0
FFC0003FF0
FFC0003FF0
FFC0003FF0
FFC0003FF0
FFC0003FF0
FFC0003FF0
FFC0003FF0
FFC0003FF0
FFC0003FF0
FFC0003FF0
FFC0003FF0
FFC0003FF0
FFC0003FF0
FFC0003FF0
FFC0003FF0
FFC0003FF0
FFC0003FF0
FFC0003FF0
FFC0007FF0
FFE000FFF0
FFF003FFF0
7FFC0FFFF0
7FFFFFFFF0
3FFFFFFFF0
3FFFFFDFF0
1FFFFF9FF0
0FFFFF1FF0
07FFFC1FF0
01FFF80FF0
007FC00000
ENDCHAR
STARTCHAR 00FB
ENCODING 251
SWIDTH 571 0
DWIDTH 46 0
BBX 36 59 5 -1
BITMAP
0007FE0000
000FFF0000
001FFF8000
001FFFC000
003FFFE000
007FDFF000
00FF8FF000
01FF07F800
03FE03FC00
07FC01FE00
0FF800FF00
0000000000
0000000000
0000000000
0000000000
0000000000
0000000000
FFC0003FF0
FFC0003FF0
FFC0003FF0
FFC0003FF0
FFC0003FF0
FFC0003FF0
FFC0003FF0
FFC0003FF0
FFC0003FF0
FFC0003FF0
FFC0003FF0
FFC0003FF0
FFC0003FF0
FFC0003FF0
FFC0003FF0
FFC0003FF0
FFC0003FF0
FFC0003FF0
FFC0003FF0
FFC0003FF0
FFC0003FF0
FFC0003FF0
FFC0003FF0
FFC0003FF0
FFC0003FF0
FFC0003FF0
FFC0003FF0
FFC0003FF0
FFC0003FF0
FFC0003FF0
FFC0007FF0
FFE000FFF0
FFF003FFF0
7FFC0FFFF0
7FFFFFFFF0
3FFFFFFFF0
3FFFFFDFF0
1FFFFF9FF0
0FFFFF1FF0
07FFFC1FF0
01FFF80FF0
007FC00000
ENDCHAR
STARTCHAR 00FC
ENCODING 252
SWIDTH 571 0
DWIDTH 46 0
BBX 36 59 5 -1
BITMAP
00F000F800
03FC01FC00
07FE03FE00
07FE07FF00
07FE07FF00
0FFF07FF00
0FFF07FF00
07FE07FF00
07FE03FE00
03FC01FC00
00F000F800
0000000000
0000000000
0000000000
0000000000
0000000000
0000000000
FFC0003FF0
FFC0003FF0
FFC0003FF0
FFC0003FF0
FFC0003FF0
FFC0003FF0
FFC0003FF0
FFC0003FF0
FFC0003FF0
FFC0003FF0
FFC0003FF0
FFC0003FF0
FFC0003FF0
FFC0003FF0
FFC0003FF0
FFC0003FF0
FFC0003FF0
FFC0003FF0
FFC0003FF0
FFC0003FF0
FFC0003FF0
FFC0003FF0
FFC0003FF0
FFC0003FF0
FFC0003FF0
FFC0003FF0
FFC0003FF0
FFC0003FF0
FFC0003FF0
FFC0003FF0
FFC0007FF0
FFE000FFF0
FFF003FFF0
7FFC0FFFF0
7FFFFFFFF0
3FFFFFFFF0
3FFFFFDFF0
1FFFFF9FF0
0FFFFF1FF0
07FFFC1FF0
01FFF80FF0
007FC00000
ENDCHAR
STARTCHAR 00FD
ENCODING 253
SWIDTH 533 0
DWIDTH 43 0
BBX 43 72 0 -13
BITMAP
000000FFF000
000001FFE000
000003FFC000
000003FF8000
000007FF0000
000007FE0000
00000FFC0000
00001FF80000
00001FF00000
00003FE00000
00003FC00000
00007F800000
000000000000
000000000000
000000000000
000000000000
000000000000
000000000000
FFE000007FE0
7FF00000FFC0
7FF00000FFC0
3FF80001FF80
3FF80001FF80
1FF80003FF00
1FFC0003FF00
0FFC0003FE00
0FFE0007FE00
0FFE0007FE00
07FE000FFC00
07FF000FFC00
03FF000FF800
03FF801FF800
01FF801FF000
01FFC03FF000
00FFC03FF000
00FFC03FE000
007FE07FE000
007FE07FC000
007FF07FC000
003FF0FF8000
003FF8FF8000
001FF9FF0000
001FF9FF0000
000FFDFF0000
000FFFFE0000
0007FFFE0000
0007FFFC0000
0007FFFC0000
0003FFF80000
0003FFF80000
0001FFF80000
0001FFF00000
0000FFF00000
0000FFE00000
00007FE00000
00007FC00000
00007FC00000
0000FF800000
0000FF800000
0001FF800000
0001FF000000
0003FF000000
0003FE000000
0007FE000000
0007FC000000
000FFC000000
000FFC000000
001FF8000000
001FF8000000
003FF0000000
003FF0000000
007FE0000000
ENDCHAR
STARTCHAR 00FE
ENCODING 254
SWIDTH 571 0
DWIDTH 46 0
BBX 38 73 5 -13
BITMAP
FFC0000000
FFC0000000
FFC0000000
FFC0000000
FFC0000000
FFC0000000
FFC0000000
FFC0000000
FFC0000000
FFC0000000
FFC0000000
FFC0000000
FFC0000000
FFC0000000
FFC0000000
FFC0000000
FFC0000000
FFC0000000
FFC01FE000
FFC0FFF800
FFC3FFFE00
FFC7FFFF00
FFDFFFFF80
FFFFFFFFC0
FFFFFFFFE0
FFFFFFFFE0
FFFF03FFF0
FFFC00FFF0
FFF0007FF8
FFE0003FF8
FFC0003FF8
FFC0001FF8
FFC0001FFC
FFC0001FFC
FFC0000FFC
FFC0000FFC
FFC0000FFC
FFC0000FFC
FFC0000FFC
FFC0000FFC
FFC0000FFC
FFC0000FFC
FFC0000FFC
FFC0000FFC
FFC0001FFC
FFC0001FFC
FFC0001FF8
FFC0003FF8
FFC0003FF8
FFC0007FF0
FFE000FFF0
FFF001FFE0
FFFE07FFE0
FFFFFFFFC0
FFFFFFFFC0
FFFFFFFF80
FFFFFFFF00
FFDFFFFE00
FFCFFFF800
FFC3FFE000
FFC0FF8000
FFC0000000
FFC0000000
FFC0000000
FFC0000000
FFC0000000
FFC0000000
FFC0000000
FFC0000000
FFC0000000
FFC0000000
FFC0000000
FFC0000000
ENDCHAR
STARTCHAR 00FF
ENCODING 255
SWIDTH 533 0
DWIDTH 43 0
BBX 43 71 0 -13
BITMAP
000F000F8000
003FC01FC000
007FE03FE000
007FE07FF000
007FE07FF000
00FFF07FF000
00FFF07FF000
007FE07FF000
007FE03FE000
003FC01FC000
000F000F8000
000000000000
000000000000
000000000000
000000000000
000000000000
000000000000
FFE000007FE0
7FF00000FFC0
7FF00000FFC0
3FF80001FF80
3FF80001FF80
1FF80003FF00
1FFC0003FF00
0FFC0003FE00
0FFE0007FE00
0FFE0007FE00
07FE000FFC00
07FF000FFC00
03FF000FF800
03FF801FF800
01FF801FF000
01FFC03FF000
00FFC03FF000
00FFC03FE000
007FE07FE000
007FE07FC000
007FF07FC000
003FF0FF8000
003FF8FF8000
001FF9FF0000
001FF9FF0000
000FFDFF0000
000FFFFE0000
0007FFFE0000
0007FFFC0000
0007FFFC0000
0003FFF80000
0003FFF80000
0001FFF80000
0001FFF00000
0000FFF00000
0000FFE00000
00007FE00000
00007FC00000
00007FC00000
0000FF800000
0000FF800000
0001FF800000
0001FF000000
0003FF000000
0003FE000000
0007FE000000
0007FC000000
000FFC000000
000FFC000000
001FF8000000
001FF8000000
003FF0000000
003FF0000000
007FE0000000
ENDCHAR
STARTCHAR 0100
ENCODING 256
SWIDTH 695 0
DWIDTH 56 0
BBX 57 69 0 0
BITMAP
0000FFFFFF000000
0000FFFFFF000000
0000FFFFFF000000
0000FFFFFF000000
0000FFFFFF000000
0000FFFFFF000000
0000000000000000
0000000000000000
0000000000000000
0000000000000000
0000000000000000
000003FFC0000000
000003FFC0000000
000003FFE0000000
000007FFE0000000
000007FFE0000000
00000FFFF0000000
00000FFFF0000000
00000FFFF8000000
00001FFFF8000000
00001FFFF8000000
00003FFFFC000000
00003FFFFC000000
00003FE7FE000000
00007FE7FE000000
00007FE7FE000000
0000FFC3FF000000
0000FFC3FF000000
0000FFC1FF800000
0001FF81FF800000
0001FF81FF800000
0003FF80FFC00000
0003FF00FFC00000
0003FF00FFE00000
0007FF007FE00000
0007FE007FE00000
000FFE003FF00000
000FFC003FF00000
000FFC003FF80000
001FFC001FF80000
001FF8001FF80000
003FF8001FFC0000
003FF8000FFC0000
003FF0000FFE0000
007FF00007FE0000
007FE00007FE0000
00FFE00007FF0000
00FFFFFFFFFF0000
00FFFFFFFFFF8000
01FFFFFFFFFF8000
01FFFFFFFFFF8000
03FFFFFFFFFFC000
03FFFFFFFFFFC000
03FFFFFFFFFFE000
07FFFFFFFFFFE000
07FF000000FFE000
07FE0000007FF000
0FFE0000007FF000
0FFE0000003FF800
1FFC0000003FF800
1FFC0000003FF800
1FFC0000001FFC00
3FF80000001FFC00
3FF80000001FFE00
7FF00000000FFE00
7FF00000000FFE00
7FF000000007FF00
FFE000000007FF00
FFC000000003FF80
ENDCHAR
STARTCHAR 0101
ENCODING 257
SWIDTH 508 0
DWIDTH 41 0
BBX 35 56 2 -1
BITMAP
03FFFFFC00
03FFFFFC00
03FFFFFC00
03FFFFFC00
03FFFFFC00
03FFFFFC00
0000000000
0000000000
0000000000
0000000000
0000000000
0000000000
0000000000
0003FF0000
003FFFC000
00FFFFF000
03FFFFFC00
07FFFFFE00
1FFFFFFE00
3FFFFFFF00
3FFFFFFF80
1FFC07FF80
1FF003FFC0
0FC001FFC0
070000FFC0
000000FFC0
0000007FE0
0000007FE0
0000007FE0
0000007FE0
0000007FE0
0000007FE0
00007FFFE0
000FFFFFE0
007FFFFFE0
01FFFFFFE0
07FFFFFFE0
0FFFFFFFE0
1FFFC07FE0
3FFC007FE0
7FF0007FE0
7FE0007FE0
FFC0007FE0
FFC0007FE0
FFC0007FE0
FFC000FFE0
FFC001FFE0
FFE007FFE0
FFF01FFFE0
7FFFFFFFE0
7FFFFFBFE0
3FFFFF3FE0
1FFFFE1FE0
0FFFF81FE0
07FFF00FE0
00FF800000
ENDCHAR
STARTCHAR 0102
ENCODING 258
SWIDTH 695 0
DWIDTH 56 0
BBX 57 73 0 0
BITMAP
0001FC003FC00000
0001FE003F800000
0001FE007F800000
0001FF007F800000
0000FF81FF800000
0000FFFFFF000000
00007FFFFE000000
00003FFFFE000000
00001FFFF8000000
00000FFFF0000000
000001FF80000000
0000000000000000
0000000000000000
0000000000000000
0000000000000000
000003FFC0000000
000003FFC0000000
000003FFE0000000
000007FFE0000000
000007FFE0000000
00000FFFF0000000
00000FFFF0000000
00000FFFF8000000
00001FFFF8000000
00001FFFF8000000
00003FFFFC000000
00003FFFFC000000
00003FE7FE000000
00007FE7FE000000
00007FE7FE000000
0000FFC3FF000000
0000FFC3FF000000
0000FFC1FF800000
0001FF81FF800000
0001FF81FF800000
0003FF80FFC00000
0003FF00FFC00000
0003FF00FFE00000
0007FF007FE00000
0007FE007FE00000
000FFE003FF00000
000FFC003FF00000
000FFC003FF80000
001FFC001FF80000
001FF8001FF80000
003FF8001FFC0000
003FF8000FFC0000
003FF0000FFE0000
007FF00007FE0000
007FE00007FE0000
00FFE00007FF0000
00FFFFFFFFFF0000
00FFFFFFFFFF8000
01FFFFFFFFFF8000
01FFFFFFFFFF8000
03FFFFFFFFFFC000
03FFFFFFFFFFC000
03FFFFFFFFFFE000
07FFFFFFFFFFE000
07FF000000FFE000
07FE0000007FF000
0FFE0000007FF000
0FFE0000003FF800
1FFC0000003FF800
1FFC0000003FF800
1FFC0000001FFC00
3FF80000001FFC00
3FF80000001FFE00
7FF00000000FFE00
7FF00000000FFE00
7FF000000007FF00
FFE000000007FF00
FFC000000003FF80
ENDCHAR
STARTCHAR 0103
ENCODING 259
SWIDTH 508 0
DWIDTH 41 0
BBX 35 59 2 -1
BITMAP
03F801FC00
03F801FC00
03F801FC00
03FC01FC00
01FE07FC00
01FFFFF800
00FFFFF800
00FFFFF000
007FFFE000
001FFF8000
0003FE0000
0000000000
0000000000
0000000000
0000000000
0000000000
0003FF0000
003FFFC000
00FFFFF000
03FFFFFC00
07FFFFFE00
1FFFFFFE00
3FFFFFFF00
3FFFFFFF80
1FFC07FF80
1FF003FFC0
0FC001FFC0
070000FFC0
000000FFC0
0000007FE0
0000007FE0
0000007FE0
0000007FE0
0000007FE0
0000007FE0
00007FFFE0
000FFFFFE0
007FFFFFE0
01FFFFFFE0
07FFFFFFE0
0FFFFFFFE0
1FFFC07FE0
3FFC007FE0
7FF0007FE0
7FE0007FE0
FFC0007FE0
FFC0007FE0
FFC0007FE0
FFC000FFE0
FFC001FFE0
FFE007FFE0
FFF01FFFE0
7FFFFFFFE0
7FFFFFBFE0
3FFFFF3FE0
1FFFFE1FE0
0FFFF81FE0
07FFF00FE0
00FF800000
ENDCHAR
STARTCHAR 0104
ENCODING 260
SWIDTH 695 0
DWIDTH 56 0
BBX 60 71 -1 -13
BITMAP
000001FFE0000000
000001FFE0000000
000001FFF0000000
000003FFF0000000
000003FFF0000000
000007FFF8000000
000007FFF8000000
000007FFFC000000
00000FFFFC000000
00000FFFFC000000
00001FFFFE000000
00001FFFFE000000
00001FF3FF000000
00003FF3FF000000
00003FF3FF000000
00007FE1FF800000
00007FE1FF800000
00007FE0FFC00000
0000FFC0FFC00000
0000FFC0FFC00000
0001FF807FE00000
0001FF807FE00000
0001FF803FF00000
0003FF003FF00000
0003FF003FF00000
0007FE001FF80000
0007FE001FF80000
0007FE001FFC0000
000FFC000FFC0000
000FFC000FFC0000
001FFC0007FE0000
001FF80007FE0000
001FF80007FF0000
003FF00003FF0000
003FF00003FF0000
007FFFFFFFFF8000
007FFFFFFFFF8000
007FFFFFFFFF8000
00FFFFFFFFFFC000
00FFFFFFFFFFC000
01FFFFFFFFFFE000
01FFFFFFFFFFE000
01FFFFFFFFFFE000
03FF8000007FF000
03FF0000003FF000
07FF0000003FF800
07FF0000003FF800
07FE0000001FF800
0FFE0000001FFC00
0FFE0000001FFC00
1FFC0000000FFE00
1FFC0000000FFE00
1FFC00000007FE00
3FF800000007FF00
3FF800000007FF00
7FF800000003FF80
7FF000000003FF80
FFE000000001FFC0
0000000000007E00
000000000001F800
000000000003F000
000000000007E000
000000000007E000
00000000000FE000
00000000000FF000
00000000000FFFC0
00000000000FFFE0
00000000000FFFE0
000000000007FFF0
000000000003FFE0
000000000000FF00
ENDCHAR
STARTCHAR 0105
ENCODING 261
SWIDTH 508 0
DWIDTH 41 0
BBX 39 55 2 -13
BITMAP
0003FE0000
003FFFC000
00FFFFF000
03FFFFFC00
07FFFFFE00
1FFFFFFE00
3FFFFFFF00
3FFFFFFF80
1FFC07FF80
0FF001FFC0
0FC000FFC0
000000FFC0
000000FFC0
0000007FC0
0000007FE0
0000007FE0
0000007FE0
0000007FE0
00007FFFE0
000FFFFFE0
007FFFFFE0
01FFFFFFE0
07FFFFFFE0
0FFFFFFFE0
1FFFC07FE0
3FFC007FE0
7FF0007FE0
7FE0007FE0
FFC0007FE0
FFC0007FE0
FFC0007FE0
FFC0007FE0
FFC000FFE0
FFC001FFE0
FFE007FFE0
7FF01FFFE0
7FFFFFFFE0
7FFFFFBFE0
3FFFFF3FE0
1FFFFE1FE0
0FFFFC1FE0
07FFF01FE0
00FF800FC0
0000001F80
0000003E00
0000007E00
000000FC00
000001FC00
000001FE00
000001FFF8
000001FFFC
000001FFFC
000000FFFE
0000007FFC
0000001FE0
ENDCHAR
STARTCHAR 0106
ENCODING 262
SWIDTH 670 0
DWIDTH 54 0
BBX 50 76 3 -1
BITMAP
000000003FFE00
00000000FFFC00
00000001FFF800
00000003FFE000
00000003FFC000
00000007FF8000
0000000FFF0000
0000001FFE0000
0000001FFC0000
0000003FF80000
0000007FE00000
000000FFC00000
000001FF800000
00000000000000
00000000000000
00000000000000
000001FFE00000
00001FFFFE0000
00007FFFFF8000
0001FFFFFFE000
0007FFFFFFF800
001FFFFFFFFE00
003FFFFFFFFF00
007FFFFFFFFF80
00FFFFFFFFFF00
01FFFF803FFE00
03FFFC0007FE00
03FFF00001FC00
07FFC00000F800
0FFF8000003000
0FFF0000000000
1FFE0000000000
1FFE0000000000
3FFC0000000000
3FFC0000000000
3FF80000000000
7FF80000000000
7FF00000000000
7FF00000000000
7FF00000000000
FFF00000000000
FFF00000000000
FFE00000000000
FFE00000000000
FFE00000000000
FFE00000000000
FFE00000000000
FFE00000000000
FFE00000000000
FFE00000000000
FFF00000000000
FFF00000000000
7FF00000000000
7FF00000000000
7FF00000000000
7FF80000000000
3FF80000000000
3FFC0000000000
3FFC0000000000
1FFE0000000000
1FFF0000000000
0FFF0000000000
0FFF8000003800
07FFE000007C00
07FFF00001FE00
03FFFC0003FF00
01FFFF801FFF80
00FFFFFFFFFFC0
007FFFFFFFFF00
003FFFFFFFFE00
001FFFFFFFFC00
000FFFFFFFF800
0003FFFFFFE000
0000FFFFFF8000
00001FFFFE0000
000003FFE00000
ENDCHAR
STARTCHAR 0107
ENCODING 263
SWIDTH 484 0
DWIDTH 39 0
BBX 35 60 3 -1
BITMAP
000007FF80
00000FFF00
00001FFE00
00001FFC00
00003FF800
00003FF000
00007FE000
0000FFC000
0000FF8000
0001FF0000
0001FE0000
0003FC0000
0000000000
0000000000
0000000000
0000000000
0000000000
0001FF8000
000FFFF000
007FFFFC00
00FFFFFE00
01FFFFFF80
07FFFFFFC0
07FFFFFFC0
0FFFFFFF80
1FFF80FF80
3FFE003F00
3FFC000E00
3FF8000000
7FF0000000
7FE0000000
7FE0000000
FFE0000000
FFC0000000
FFC0000000
FFC0000000
FFC0000000
FFC0000000
FFC0000000
FFC0000000
FFC0000000
FFC0000000
FFC0000000
FFC0000000
FFE0000000
7FE0000000
7FE0000000
7FF0000000
3FF8000600
3FFC000F00
3FFE003F80
1FFF80FFC0
0FFFFFFFE0
0FFFFFFFC0
07FFFFFF80
03FFFFFF00
00FFFFFE00
007FFFF800
001FFFE000
0003FF0000
ENDCHAR
STARTCHAR 0108
ENCODING 264
SWIDTH 670 0
DWIDTH 54 0
BBX 50 74 3 -1
BITMAP
0000007FE00000
000000FFF00000
000000FFF80000
000001FFFC0000
000003FFFE0000
000007F9FF0000
00000FF8FF8000
00001FF07FC000
00003FE07FC000
00007FC03FE000
0000FF801FF800
00000000000000
00000000000000
00000000000000
000001FFE00000
00001FFFFE0000
00007FFFFF8000
0001FFFFFFE000
0007FFFFFFF800
001FFFFFFFFE00
003FFFFFFFFF00
007FFFFFFFFF80
00FFFFFFFFFF00
01FFFF803FFE00
03FFFC0007FE00
03FFF00001FC00
07FFC00000F800
0FFF8000003000
0FFF0000000000
1FFE0000000000
1FFE0000000000
3FFC0000000000
3FFC0000000000
3FF80000000000
7FF80000000000
7FF00000000000
7FF00000000000
7FF00000000000
FFF00000000000
FFF00000000000
FFE00000000000
FFE00000000000
FFE00000000000
FFE00000000000
FFE00000000000
FFE00000000000
FFE00000000000
FFE00000000000
FFF00000000000
FFF00000000000
7FF00000000000
7FF00000000000
7FF00000000000
7FF80000000000
3FF80000000000
3FFC0000000000
3FFC0000000000
1FFE0000000000
1FFF0000000000
0FFF0000000000
0FFF8000003800
07FFE000007C00
07FFF00001FE00
03FFFC0003FF00
01FFFF801FFF80
00FFFFFFFFFFC0
007FFFFFFFFF00
003FFFFFFFFE00
001FFFFFFFFC00
000FFFFFFFF800
0003FFFFFFE000
0000FFFFFF8000
00001FFFFE0000
000003FFE00000
ENDCHAR
STARTCHAR 0109
ENCODING 265
SWIDTH 484 0
DWIDTH 39 0
BBX 35 59 3 -1
BITMAP
0003FF0000
0007FF8000
000FFFC000
000FFFE000
001FFFF000
003FEFF800
007FC7F800
00FF83FC00
01FF01FE00
03FE00FF00
07FC007F80
0000000000
0000000000
0000000000
0000000000
0000000000
0001FF8000
000FFFF000
007FFFFC00
00FFFFFE00
01FFFFFF80
07FFFFFFC0
07FFFFFFC0
0FFFFFFF80
1FFF80FF80
3FFE003F00
3FFC000E00
3FF8000000
7FF0000000
7FE0000000
7FE0000000
FFE0000000
FFC0000000
FFC0000000
FFC0000000
FFC0000000
FFC0000000
FFC0000000
FFC0000000
FFC0000000
FFC0000000
FFC0000000
FFC0000000
FFE0000000
7FE0000000
7FE0000000
7FF0000000
3FF8000600
3FFC000F00
3FFE003F80
1FFF80FFC0
0FFFFFFFE0
0FFFFFFFC0
07FFFFFF80
03FFFFFF00
00FFFFFE00
007FFFF800
001FFFE000
0003FF0000
ENDCHAR
STARTCHAR 010A
ENCODING 266
SWIDTH 670 0
DWIDTH 54 0
BBX 50 75 3 -1
BITMAP
0000000F000000
0000003FC00000
0000007FE00000
0000007FF00000
000000FFF00000
000000FFF00000
000000FFF00000
000000FFF00000
0000007FF00000
0000007FE00000
0000003FC00000
0000000F800000
00000000000000
00000000000000
00000000000000
000001FFE00000
00001FFFFE0000
00007FFFFF8000
0001FFFFFFE000
0007FFFFFFF800
001FFFFFFFFE00
003FFFFFFFFF00
007FFFFFFFFF80
00FFFFFFFFFF00
01FFFF803FFE00
03FFFC0007FE00
03FFF00001FC00
07FFC00000F800
0FFF8000003000
0FFF0000000000
1FFE0000000000
1FFE0000000000
3FFC0000000000
3FFC0000000000
3FF80000000000
7FF80000000000
7FF00000000000
7FF00000000000
7FF00000000000
FFF00000000000
FFF00000000000
FFE00000000000
FFE00000000000
FFE00000000000
FFE00000000000
FFE00000000000
FFE00000000000
FFE00000000000
FFE00000000000
FFF00000000000
FFF00000000000
7FF00000000000
7FF00000000000
7FF00000000000
7FF80000000000
3FF80000000000
3FFC0000000000
3FFC0000000000
1FFE0000000000
1FFF0000000000
0FFF0000000000
0FFF8000003800
07FFE000007C00
07FFF00001FE00
03FFFC0003FF00
01FFFF801FFF80
00FFFFFFFFFFC0
007FFFFFFFFF00
003FFFFFFFFE00
001FFFFFFFFC00
000FFFFFFFF800
0003FFFFFFE000
0000FFFFFF8000
00001FFFFE0000
000003FFE00000
ENDCHAR
STARTCHAR 010B
ENCODING 267
SWIDTH 484 0
DWIDTH 39 0
BBX 35 61 3 -1
BITMAP
00007C0000
0001FE0000
0003FF0000
0003FF8000
0007FF8000
0007FFC000
0007FFC000
0007FFC000
0007FF8000
0003FF8000
0003FF0000
0001FE0000
00007C0000
0000000000
0000000000
0000000000
0000000000
0000000000
0001FF8000
000FFFF000
007FFFFC00
00FFFFFE00
01FFFFFF80
07FFFFFFC0
07FFFFFFC0
0FFFFFFF80
1FFF80FF80
3FFE003F00
3FFC000E00
3FF8000000
7FF0000000
7FE0000000
7FE0000000
FFE0000000
FFC0000000
FFC0000000
FFC0000000
FFC0000000
FFC0000000
FFC0000000
FFC0000000
FFC0000000
FFC0000000
FFC0000000
FFC0000000
FFE0000000
7FE0000000
7FE0000000
7FF0000000
3FF8000600
3FFC000F00
3FFE003F80
1FFF80FFC0
0FFFFFFFE0
0FFFFFFFC0
07FFFFFF80
03FFFFFF00
00FFFFFE00
007FFFF800
001FFFE000
0003FF0000
ENDCHAR
STARTCHAR 010C
ENCODING 268
SWIDTH 670 0
DWIDTH 54 0
BBX 50 74 3 -1
BITMAP
0000FF801FF800
00007FC03FE000
00003FE07FC000
00001FF07FC000
00000FF0FF8000
000007F9FF0000
000003FFFE0000
000003FFFC0000
000001FFF80000
000000FFF00000
0000007FE00000
00000000000000
00000000000000
00000000000000
000001FFE00000
00001FFFFE0000
00007FFFFF8000
0001FFFFFFE000
0007FFFFFFF800
001FFFFFFFFE00
003FFFFFFFFF00
007FFFFFFFFF80
00FFFFFFFFFF00
01FFFF803FFE00
03FFFC0007FE00
03FFF00001FC00
07FFC00000F800
0FFF8000003000
0FFF0000000000
1FFE0000000000
1FFE0000000000
3FFC0000000000
3FFC0000000000
3FF80000000000
7FF80000000000
7FF00000000000
7FF00000000000
7FF00000000000
FFF00000000000
FFF00000000000
FFE00000000000
FFE00000000000
FFE00000000000
FFE00000000000
FFE00000000000
FFE00000000000
FFE00000000000
FFE00000000000
FFF00000000000
FFF00000000000
7FF00000000000
7FF00000000000
7FF00000000000
7FF80000000000
3FF80000000000
3FFC0000000000
3FFC0000000000
1FFE0000000000
1FFF0000000000
0FFF0000000000
0FFF8000003800
07FFE000007C00
07FFF00001FE00
03FFFC0003FF00
01FFFF801FFF80
00FFFFFFFFFFC0
007FFFFFFFFF00
003FFFFFFFFE00
001FFFFFFFFC00
000FFFFFFFF800
0003FFFFFFE000
0000FFFFFF8000
00001FFFFE0000
000003FFE00000
ENDCHAR
STARTCHAR 010D
ENCODING 269
SWIDTH 484 0
DWIDTH 39 0
BBX 35 59 3 -1
BITMAP
07FC007F80
01FE00FF00
01FF01FE00
00FF83FC00
007FC7F800
003FEFF800
001FFFF000
000FFFE000
000FFFC000
0007FF8000
0003FF0000
0000000000
0000000000
0000000000
0000000000
0000000000
0001FF8000
000FFFF000
007FFFFC00
00FFFFFE00
01FFFFFF80
07FFFFFFC0
07FFFFFFC0
0FFFFFFF80
1FFF80FF80
3FFE003F00
3FFC000E00
3FF8000000
7FF0000000
7FE0000000
7FE0000000
FFE0000000
FFC0000000
FFC0000000
FFC0000000
FFC0000000
FFC0000000
FFC0000000
FFC0000000
FFC0000000
FFC0000000
FFC0000000
FFC0000000
FFE0000000
7FE0000000
7FE0000000
7FF0000000
3FF8000600
3FFC000F00
3FFE003F80
1FFF80FFC0
0FFFFFFFE0
0FFFFFFFC0
07FFFFFF80
03FFFFFF00
00FFFFFE00
007FFFF800
001FFFE000
0003FF0000
ENDCHAR
STARTCHAR 010E
ENCODING 270
SWIDTH 769 0
DWIDTH 62 0
BBX 52 73 7 0
BITMAP
03FE007FE00000
01FF00FF800000
00FF81FF000000
007FC1FF000000
003FC3FE000000
001FE7FC000000
000FFFF8000000
000FFFF0000000
0007FFE0000000
0003FFC0000000
0001FF80000000
00000000000000
00000000000000
00000000000000
00000000000000
FFFFFFF0000000
FFFFFFFF000000
FFFFFFFFE00000
FFFFFFFFF80000
FFFFFFFFFE0000
FFFFFFFFFF0000
FFFFFFFFFF8000
FFFFFFFFFFE000
FFC0003FFFF000
FFC00003FFF800
FFC00000FFF800
FFC000007FFC00
FFC000003FFE00
FFC000001FFE00
FFC000000FFF00
FFC0000007FF80
FFC0000007FF80
FFC0000003FF80
FFC0000003FFC0
FFC0000001FFC0
FFC0000001FFC0
FFC0000001FFE0
FFC0000000FFE0
FFC0000000FFE0
FFC0000000FFE0
FFC0000000FFE0
FFC0000000FFE0
FFC0000000FFE0
FFC0000000FFF0
FFC0000000FFF0
FFC0000000FFE0
FFC0000000FFE0
FFC0000000FFE0
FFC0000000FFE0
FFC0000000FFE0
FFC0000000FFE0
FFC0000001FFE0
FFC0000001FFC0
FFC0000001FFC0
FFC0000003FFC0
FFC0000003FF80
FFC0000007FF80
FFC0000007FF80
FFC000000FFF00
FFC000001FFF00
FFC000003FFE00
FFC000007FFC00
FFC00000FFF800
FFC00003FFF800
FFC0003FFFF000
FFFFFFFFFFE000
FFFFFFFFFFC000
FFFFFFFFFF0000
FFFFFFFFFE0000
FFFFFFFFF80000
FFFFFFFFE00000
FFFFFFFF000000
FFFFFFF0000000
ENDCHAR
STARTCHAR 010F
ENCODING 271
SWIDTH 571 0
DWIDTH 46 0
BBX 52 61 3 -1
BITMAP
0000000FFC0FF0
0000000FFC1FF0
0000000FFC1FF0
0000000FFC1FF0
0000000FFC1FE0
0000000FFC1FE0
0000000FFC3FC0
0000000FFC3FC0
0000000FFC3FC0
0000000FFC3F80
0000000FFC3F80
0000000FFC3F00
0000000FFC7F00
0000000FFC7E00
0000000FFC0000
0000000FFC0000
0000000FFC0000
0000000FFC0000
0007FC0FFC0000
001FFF0FFC0000
007FFFCFFC0000
01FFFFEFFC0000
03FFFFFFFC0000
07FFFFFFFC0000
0FFFFFFFFC0000
0FFFFFFFFC0000
1FFF81FFFC0000
1FFE007FFC0000
3FFC001FFC0000
3FF8000FFC0000
7FF0000FFC0000
7FF0000FFC0000
7FE0000FFC0000
FFE0000FFC0000
FFE0000FFC0000
FFC0000FFC0000
FFC0000FFC0000
FFC0000FFC0000
FFC0000FFC0000
FFC0000FFC0000
FFC0000FFC0000
FFC0000FFC0000
FFC0000FFC0000
FFC0000FFC0000
FFC0000FFC0000
FFE0000FFC0000
FFE0000FFC0000
7FE0000FFC0000
7FF0000FFC0000
7FF0001FFC0000
7FF8003FFC0000
3FFC00FFFC0000
3FFF03FFFC0000
1FFFFFFFFC0000
1FFFFFFFFC0000
0FFFFFF7FC0000
07FFFFE7FC0000
03FFFF87FC0000
01FFFF07FC0000
007FFC03FC0000
001FE000000000
ENDCHAR
STARTCHAR 0110
ENCODING 272
SWIDTH 769 0
DWIDTH 62 0
BBX 59 58 0 0
BITMAP
01FFFFFFF0000000
01FFFFFFFF000000
01FFFFFFFFE00000
01FFFFFFFFF80000
01FFFFFFFFFC0000
01FFFFFFFFFF0000
01FFFFFFFFFF8000
01FFFFFFFFFFC000
01FFC0003FFFE000
01FFC00007FFF000
01FFC00001FFF800
01FFC000007FFC00
01FFC000003FFE00
01FFC000001FFE00
01FFC000000FFF00
01FFC0000007FF00
01FFC0000007FF80
01FFC0000003FF80
01FFC0000003FFC0
01FFC0000001FFC0
01FFC0000001FFC0
01FFC0000001FFC0
01FFC0000001FFE0
01FFC0000000FFE0
01FFC0000000FFE0
01FFC0000000FFE0
FFFFFFF80000FFE0
FFFFFFF80000FFE0
FFFFFFF80000FFE0
FFFFFFF80000FFE0
FFFFFFF80000FFE0
FFFFFFF80000FFE0
01FFC0000000FFE0
01FFC0000000FFE0
01FFC0000000FFE0
01FFC0000001FFE0
01FFC0000001FFC0
01FFC0000001FFC0
01FFC0000001FFC0
01FFC0000003FFC0
01FFC0000003FF80
01FFC0000007FF80
01FFC0000007FF00
01FFC000000FFF00
01FFC000001FFE00
01FFC000003FFE00
01FFC000007FFC00
01FFC00001FFF800
01FFC00007FFF000
01FFC0003FFFF000
01FFFFFFFFFFC000
01FFFFFFFFFF8000
01FFFFFFFFFF0000
01FFFFFFFFFE0000
01FFFFFFFFF80000
01FFFFFFFFE00000
01FFFFFFFF000000
01FFFFFFF0000000
ENDCHAR
STARTCHAR 0111
ENCODING 273
SWIDTH 571 0
DWIDTH 46 0
BBX 44 61 3 -1
BITMAP
0000000FFC00
0000000FFC00
0000000FFC00
0000000FFC00
0000000FFC00
0000000FFC00
0000000FFC00
0000000FFC00
0000000FFC00
00001FFFFFF0
00001FFFFFF0
00001FFFFFF0
00001FFFFFF0
00001FFFFFF0
00001FFFFFF0
0000000FFC00
0000000FFC00
0000000FFC00
0000000FFC00
0007FC0FFC00
001FFF0FFC00
007FFFCFFC00
01FFFFEFFC00
03FFFFFFFC00
07FFFFFFFC00
0FFFFFFFFC00
0FFFFFFFFC00
1FFF81FFFC00
3FFE003FFC00
3FF8001FFC00
3FF8000FFC00
7FF0000FFC00
7FE0000FFC00
7FE0000FFC00
FFE0000FFC00
FFE0000FFC00
FFC0000FFC00
FFC0000FFC00
FFC0000FFC00
FFC0000FFC00
FFC0000FFC00
FFC0000FFC00
FFC0000FFC00
FFC0000FFC00
FFC0000FFC00
FFE0000FFC00
FFE0000FFC00
7FE0000FFC00
7FE0000FFC00
7FF0001FFC00
7FF8003FFC00
3FFC00FFFC00
3FFF03FFFC00
1FFFFFFFFC00
1FFFFFFFFC00
0FFFFFF7FC00
07FFFFE7FC00
03FFFF87FC00
01FFFF03FC00
007FFC03FC00
001FE0000000
ENDCHAR
STARTCHAR 0112
ENCODING 274
SWIDTH 583 0
DWIDTH 47 0
BBX 36 69 7 0
BITMAP
03FFFFFC00
03FFFFFC00
03FFFFFC00
03FFFFFC00
03FFFFFC00
03FFFFFC00
0000000000
0000000000
0000000000
0000000000
0000000000
FFFFFFFFF0
FFFFFFFFF0
FFFFFFFFF0
FFFFFFFFF0
FFFFFFFFF0
FFFFFFFFF0
FFFFFFFFF0
FFFFFFFFF0
FFC0000000
FFC0000000
FFC0000000
FFC0000000
FFC0000000
FFC0000000
FFC0000000
FFC0000000
FFC0000000
FFC0000000
FFC0000000
FFC0000000
FFC0000000
FFC0000000
FFC0000000
FFC0000000
FFC0000000
FFFFFFFE00
FFFFFFFE00
FFFFFFFE00
FFFFFFFE00
FFFFFFFE00
FFFFFFFE00
FFFFFFFE00
FFFFFFFE00
FFC0000000
FFC0000000
FFC0000000
FFC0000000
FFC0000000
FFC0000000
FFC0000000
FFC0000000
FFC0000000
FFC0000000
FFC0000000
FFC0000000
FFC0000000
FFC0000000
FFC0000000
FFC0000000
FFC0000000
FFFFFFFFF0
FFFFFFFFF0
FFFFFFFFF0
FFFFFFFFF0
FFFFFFFFF0
FFFFFFFFF0
FFFFFFFFF0
FFFFFFFFF0
ENDCHAR
STARTCHAR 0113
ENCODING 275
SWIDTH 533 0
DWIDTH 43 0
BBX 38 56 3 -1
BITMAP
00FFFFFF00
00FFFFFF00
00FFFFFF00
00FFFFFF00
00FFFFFF00
00FFFFFF00
0000000000
0000000000
0000000000
0000000000
0000000000
0000000000
0000000000
0001FF0000
000FFFE000
007FFFF800
00FFFFFE00
01FFFFFF00
03FFFFFF80
07FFFFFFC0
0FFF81FFE0
1FFC007FE0
3FF8003FF0
3FF0001FF0
7FF0000FF0
7FE0000FF8
7FE0000FF8
FFC0000FF8
FFC00007F8
FFC00007FC
FFFFFFFFFC
FFFFFFFFFC
FFFFFFFFFC
FFFFFFFFFC
FFFFFFFFF8
FFFFFFFFF8
FFC0000000
FFC0000000
FFC0000000
FFC0000000
FFC0000000
7FE0000000
7FE0000000
7FF0000000
3FF8000080
3FFC0003C0
1FFE000FE0
1FFF807FF0
0FFFFFFFF8
07FFFFFFF8
03FFFFFFF0
01FFFFFFE0
00FFFFFF80
003FFFFF00
000FFFF800
0001FF8000
ENDCHAR
STARTCHAR 0114
ENCODING 276
SWIDTH 583 0
DWIDTH 47 0
BBX 36 73 7 0
BITMAP
07F000FF00
07F800FE00
07F801FE00
07FC01FE00
03FE07FE00
03FFFFFC00
01FFFFF800
00FFFFF800
007FFFE000
003FFFC000
0007FE0000
0000000000
0000000000
0000000000
0000000000
FFFFFFFFF0
FFFFFFFFF0
FFFFFFFFF0
FFFFFFFFF0
FFFFFFFFF0
FFFFFFFFF0
FFFFFFFFF0
FFFFFFFFF0
FFC0000000
FFC0000000
FFC0000000
FFC0000000
FFC0000000
FFC0000000
FFC0000000
FFC0000000
FFC0000000
FFC0000000
FFC0000000
FFC0000000
FFC0000000
FFC0000000
FFC0000000
FFC0000000
FFC0000000
FFFFFFFE00
FFFFFFFE00
FFFFFFFE00
FFFFFFFE00
FFFFFFFE00
FFFFFFFE00
FFFFFFFE00
FFFFFFFE00
FFC0000000
FFC0000000
FFC0000000
FFC0000000
FFC0000000
FFC0000000
FFC0000000
FFC0000000
FFC0000000
FFC0000000
FFC0000000
FFC0000000
FFC0000000
FFC0000000
FFC0000000
FFC0000000
FFC0000000
FFFFFFFFF0
FFFFFFFFF0
FFFFFFFFF0
FFFFFFFFF0
FFFFFFFFF0
FFFFFFFFF0
FFFFFFFFF0
FFFFFFFFF0
ENDCHAR
STARTCHAR 0115
ENCODING 277
SWIDTH 533 0
DWIDTH 43 0
BBX 38 59 3 -1
BITMAP
00FE007F00
00FE007F00
00FE007F00
00FF007F00
007F81FF00
007FFFFE00
003FFFFE00
003FFFFC00
001FFFF800
0007FFE000
0000FF8000
0000000000
0000000000
0000000000
0000000000
0000000000
0001FF0000
000FFFE000
007FFFF800
00FFFFFE00
01FFFFFF00
03FFFFFF80
07FFFFFFC0
0FFF81FFE0
1FFC007FE0
3FF8003FF0
3FF0001FF0
7FF0000FF0
7FE0000FF8
7FE0000FF8
FFC0000FF8
FFC00007F8
FFC00007FC
FFFFFFFFFC
FFFFFFFFFC
FFFFFFFFFC
FFFFFFFFFC
FFFFFFFFF8
FFFFFFFFF8
FFC0000000
FFC0000000
FFC0000000
FFC0000000
FFC0000000
7FE0000000
7FE0000000
7FF0000000
3FF8000080
3FFC0003C0
1FFE000FE0
1FFF807FF0
0FFFFFFFF8
07FFFFFFF8
03FFFFFFF0
01FFFFFFE0
00FFFFFF80
003FFFFF00
000FFFF800
0001FF8000
ENDCHAR
STARTCHAR 0116
ENCODING 278
SWIDTH 583 0
DWIDTH 47 0
BBX 36 74 7 0
BITMAP
0000F00000
0003FC0000
0007FE0000
0007FF0000
000FFF0000
000FFF0000
000FFF0000
000FFF0000
0007FF0000
0007FE0000
0003FC0000
0000F80000
0000000000
0000000000
0000000000
0000000000
FFFFFFFFF0
FFFFFFFFF0
FFFFFFFFF0
FFFFFFFFF0
FFFFFFFFF0
FFFFFFFFF0
FFFFFFFFF0
FFFFFFFFF0
FFC0000000
FFC0000000
FFC0000000
FFC0000000
FFC0000000
FFC0000000
FFC0000000
FFC0000000
FFC0000000
FFC0000000
FFC0000000
FFC0000000
FFC0000000
FFC0000000
FFC0000000
FFC0000000
FFC0000000
FFFFFFFE00
FFFFFFFE00
FFFFFFFE00
FFFFFFFE00
FFFFFFFE00
FFFFFFFE00
FFFFFFFE00
FFFFFFFE00
FFC0000000
FFC0000000
FFC0000000
FFC0000000
FFC0000000
FFC0000000
FFC0000000
FFC0000000
FFC0000000
FFC0000000
FFC0000000
FFC0000000
FFC0000000
FFC0000000
FFC0000000
FFC0000000
FFC0000000
FFFFFFFFF0
FFFFFFFFF0
FFFFFFFFF0
FFFFFFFFF0
FFFFFFFFF0
FFFFFFFFF0
FFFFFFFFF0
FFFFFFFFF0
ENDCHAR
STARTCHAR 0117
ENCODING 279
SWIDTH 533 0
DWIDTH 43 0
BBX 38 61 3 -1
BITMAP
00003E0000
0000FF0000
0001FF8000
0001FFC000
0003FFC000
0003FFE000
0003FFE000
0003FFE000
0003FFC000
0001FFC000
0001FF8000
0000FF0000
00003E0000
0000000000
0000000000
0000000000
0000000000
0000000000
0001FF0000
000FFFE000
007FFFF800
00FFFFFE00
01FFFFFF00
03FFFFFF80
07FFFFFFC0
0FFF81FFE0
1FFC007FE0
3FF8003FF0
3FF0001FF0
7FF0000FF0
7FE0000FF8
7FE0000FF8
FFC0000FF8
FFC00007F8
FFC00007FC
FFFFFFFFFC
FFFFFFFFFC
FFFFFFFFFC
FFFFFFFFFC
FFFFFFFFF8
FFFFFFFFF8
FFC0000000
FFC0000000
FFC0000000
FFC0000000
FFC0000000
7FE0000000
7FE0000000
7FF0000000
3FF8000080
3FFC0003C0
1FFE000FE0
1FFF807FF0
0FFFFFFFF8
07FFFFFFF8
03FFFFFFF0
01FFFFFFE0
00FFFFFF80
003FFFFF00
000FFFF800
0001FF8000
ENDCHAR
STARTCHAR 0118
ENCODING 280
SWIDTH 583 0
DWIDTH 47 0
BBX 37 71 7 -13
BITMAP
FFFFFFFFF0
FFFFFFFFF0
FFFFFFFFF0
FFFFFFFFF0
FFFFFFFFF0
FFFFFFFFF0
FFFFFFFFF0
FFFFFFFFF0
FFC0000000
FFC0000000
FFC0000000
FFC0000000
FFC0000000
FFC0000000
FFC0000000
FFC0000000
FFC0000000
FFC0000000
FFC0000000
FFC0000000
FFC0000000
FFC0000000
FFC0000000
FFC0000000
FFFFFFFE00
FFFFFFFE00
FFFFFFFE00
FFFFFFFE00
FFFFFFFE00
FFFFFFFE00
FFFFFFFE00
FFFFFFFE00
FFC0000000
FFC0000000
FFC0000000
FFC0000000
FFC0000000
FFC0000000
FFC0000000
FFC0000000
FFC0000000
FFC0000000
FFC0000000
FFC0000000
FFC0000000
FFC0000000
FFC0000000
FFC0000000
FFC0000000
FFC0000000
FFFFFFFFF0
FFFFFFFFF0
FFFFFFFFF0
FFFFFFFFF0
FFFFFFFFF0
FFFFFFFFF0
FFFFFFFFF0
FFFFFFFFF0
0000003F00
000000FC00
000001F800
000003F800
000003F000
000007F800
000007F800
000007FFE0
000007FFF0
000007FFF0
000003FFF8
000001FFF0
0000007F80
ENDCHAR
STARTCHAR 0119
ENCODING 281
SWIDTH 533 0
DWIDTH 43 0
BBX 38 55 3 -13
BITMAP
0001FF0000
000FFFF000
003FFFFC00
00FFFFFE00
01FFFFFF00
03FFFFFF80
07FFFFFFC0
0FFF01FFE0
1FFC007FE0
1FF8003FF0
3FF0001FF0
3FE0000FF8
7FE0000FF8
7FC0000FF8
FFC00007F8
FFC00007FC
FFFFFFFFFC
FFFFFFFFFC
FFFFFFFFFC
FFFFFFFFFC
FFFFFFFFFC
FFFFFFFFF8
FFC0000000
FFC0000000
FFC0000000
FFC0000000
FFC0000000
FFE0000000
7FE0000000
7FE0000000
7FF0000000
3FF80001C0
3FFC0007E0
1FFE000FE0
1FFF807FF0
0FFFFFFFF8
07FFFFFFF8
03FFFFFFF0
01FFFFFFC0
00FFFFFF80
007FFFFC00
001FFFE000
0003FF0000
00003E0000
0000FC0000
0001F80000
0001F80000
0003F80000
0003FC0000
0003FFF000
0003FFF800
0003FFF800
0001FFFC00
0000FFF000
00003FC000
ENDCHAR
STARTCHAR 011A
ENCODING 282
SWIDTH 583 0
DWIDTH 47 0
BBX 36 73 7 0
BITMAP
0FF801FF80
07FC03FE00
03FE07FC00
01FF07FC00
00FF0FF800
007F9FF000
003FFFE000
003FFFC000
001FFF8000
000FFF0000
0007FE0000
0000000000
0000000000
0000000000
0000000000
FFFFFFFFF0
FFFFFFFFF0
FFFFFFFFF0
FFFFFFFFF0
FFFFFFFFF0
FFFFFFFFF0
FFFFFFFFF0
FFFFFFFFF0
FFC0000000
FFC0000000
FFC0000000
FFC0000000
FFC0000000
FFC0000000
FFC0000000
FFC0000000
FFC0000000
FFC0000000
FFC0000000
FFC0000000
FFC0000000
FFC0000000
FFC0000000
FFC0000000
FFC0000000
FFFFFFFE00
FFFFFFFE00
FFFFFFFE00
FFFFFFFE00
FFFFFFFE00
FFFFFFFE00
FFFFFFFE00
FFFFFFFE00
FFC0000000
FFC0000000
FFC0000000
FFC0000000
FFC0000000
FFC0000000
FFC0000000
FFC0000000
FFC0000000
FFC0000000
FFC0000000
FFC0000000
FFC0000000
FFC0000000
FFC0000000
FFC0000000
FFC0000000
FFFFFFFFF0
FFFFFFFFF0
FFFFFFFFF0
FFFFFFFFF0
FFFFFFFFF0
FFFFFFFFF0
FFFFFFFFF0
FFFFFFFFF0
ENDCHAR
STARTCHAR 011B
ENCODING 283
SWIDTH 533 0
DWIDTH 43 0
BBX 38 59 3 -1
BITMAP
03FE003FC0
00FF007F80
00FF80FF00
007FC1FE00
003FE3FC00
001FF7FC00
000FFFF800
0007FFF000
0007FFE000
0003FFC000
0001FF8000
0000000000
0000000000
0000000000
0000000000
0000000000
0001FF0000
000FFFE000
007FFFF800
00FFFFFE00
01FFFFFF00
03FFFFFF80
07FFFFFFC0
0FFF81FFE0
1FFC007FE0
3FF8003FF0
3FF0001FF0
7FF0000FF0
7FE0000FF8
7FE0000FF8
FFC0000FF8
FFC00007F8
FFC00007FC
FFFFFFFFFC
FFFFFFFFFC
FFFFFFFFFC
FFFFFFFFFC
FFFFFFFFF8
FFFFFFFFF8
FFC0000000
FFC0000000
FFC0000000
FFC0000000
FFC0000000
7FE0000000
7FE0000000
7FF0000000
3FF8000080
3FFC0003C0
1FFE000FE0
1FFF807FF0
0FFFFFFFF8
07FFFFFFF8
03FFFFFFF0
01FFFFFFE0
00FFFFFF80
003FFFFF00
000FFFF800
0001FF8000
ENDCHAR
STARTCHAR 011C
ENCODING 284
SWIDTH 732 0
DWIDTH 59 0
BBX 52 74 3 -1
BITMAP
0000007FE00000
000000FFF00000
000000FFF80000
000001FFFC0000
000003FFFE0000
000007F9FF0000
00000FF8FF8000
00001FF07FC000
00003FE07FC000
00007FC03FE000
0000FF801FF800
00000000000000
00000000000000
00000000000000
000000FFF80000
00000FFFFF8000
00007FFFFFF000
0001FFFFFFFC00
0007FFFFFFFF00
000FFFFFFFFF80
003FFFFFFFFFE0
007FFFFFFFFFF0
00FFFFFFFFFFE0
01FFFF801FFFC0
03FFFC0001FFC0
03FFF000007F80
07FFE000001F80
0FFFC000000600
0FFF8000000000
1FFF0000000000
1FFE0000000000
3FFC0000000000
3FFC0000000000
3FF80000000000
7FF80000000000
7FF80000000000
7FF00000000000
7FF00000000000
FFF00000000000
FFF00000000000
FFE00000000000
FFE00000000000
FFE00000000000
FFE00000000000
FFE00000FFFFF0
FFE00000FFFFF0
FFE00000FFFFF0
FFE00000FFFFF0
FFE00000FFFFF0
FFF00000FFFFF0
7FF00000FFFFF0
7FF000007FFFF0
7FF00000003FF0
7FF80000003FF0
3FF80000003FF0
3FF80000003FF0
3FFC0000003FF0
1FFE0000003FF0
1FFE0000003FF0
0FFF0000003FF0
0FFF8000003FF0
07FFC000003FF0
03FFE000003FF0
01FFF800003FF0
00FFFE0001FFF0
007FFFC00FFFF0
003FFFFFFFFFF0
001FFFFFFFFFF0
000FFFFFFFFFE0
0003FFFFFFFFC0
0000FFFFFFFF00
00003FFFFFFC00
000007FFFFE000
0000007FFC0000
ENDCHAR
STARTCHAR 011D
ENCODING 285
SWIDTH 533 0
DWIDTH 43 0
BBX 39 72 2 -14
BITMAP
0003FF0000
0007FF8000
000FFFC000
000FFFE000
001FFFF000
003FEFF800
007FC7F800
00FF83FC00
01FF01FE00
03FE00FF00
07FC007F80
0000000000
0000000000
0000000000
0000000000
0000000000
0007FE0000
003FFFC000
00FFFFFFFE
03FFFFFFFE
07FFFFFFFE
0FFFFFFFFE
0FFFFFFFFE
1FFE03FFFE
3FF801FFE0
3FF000FFC0
3FE0007FC0
3FE0007FC0
3FE0007FC0
3FE0007FC0
3FE0007FC0
3FE0007FC0
3FE0007FC0
3FF000FFC0
1FF801FF80
1FFE07FF80
0FFFFFFF00
07FFFFFE00
03FFFFFC00
00FFFFF000
01FFFFC000
03FFFE0000
07F0000000
0FF0000000
0FF0000000
1FF0000000
1FFC000000
1FFFFFF000
1FFFFFFF00
1FFFFFFFC0
0FFFFFFFF0
07FFFFFFF8
03FFFFFFF8
07FFFFFFFC
0FFFFFFFFC
3FE0007FFC
7FC0000FFE
7F800007FE
FF800007FE
FF800007FC
FF800007FC
FF800007FC
FFC0000FF8
FFE0001FF8
7FFC00FFF0
7FFFFFFFE0
3FFFFFFFE0
1FFFFFFF80
0FFFFFFF00
03FFFFFC00
00FFFFF000
000FFF0000
ENDCHAR
STARTCHAR 011E
ENCODING 286
SWIDTH 732 0
DWIDTH 59 0
BBX 52 74 3 -1
BITMAP
00007F000FF000
00007F800FE000
00007F801FE000
00007FC01FE000
00003FE07FE000
00003FFFFFC000
00001FFFFF8000
00000FFFFF8000
000007FFFE0000
000003FFFC0000
0000007FE00000
00000000000000
00000000000000
00000000000000
000000FFF80000
00000FFFFF8000
00007FFFFFF000
0001FFFFFFFC00
0007FFFFFFFF00
000FFFFFFFFF80
003FFFFFFFFFE0
007FFFFFFFFFF0
00FFFFFFFFFFE0
01FFFF801FFFC0
03FFFC0001FFC0
03FFF000007F80
07FFE000001F80
0FFFC000000600
0FFF8000000000
1FFF0000000000
1FFE0000000000
3FFC0000000000
3FFC0000000000
3FF80000000000
7FF80000000000
7FF80000000000
7FF00000000000
7FF00000000000
FFF00000000000
FFF00000000000
FFE00000000000
FFE00000000000
FFE00000000000
FFE00000000000
FFE00000FFFFF0
FFE00000FFFFF0
FFE00000FFFFF0
FFE00000FFFFF0
FFE00000FFFFF0
FFF00000FFFFF0
7FF00000FFFFF0
7FF000007FFFF0
7FF00000003FF0
7FF80000003FF0
3FF80000003FF0
3FF80000003FF0
3FFC0000003FF0
1FFE0000003FF0
1FFE0000003FF0
0FFF0000003FF0
0FFF8000003FF0
07FFC000003FF0
03FFE000003FF0
01FFF800003FF0
00FFFE0001FFF0
007FFFC00FFFF0
003FFFFFFFFFF0
001FFFFFFFFFF0
000FFFFFFFFFE0
0003FFFFFFFFC0
0000FFFFFFFF00
00003FFFFFFC00
000007FFFFE000
0000007FFC0000
ENDCHAR
STARTCHAR 011F
ENCODING 287
SWIDTH 533 0
DWIDTH 43 0
BBX 39 72 2 -14
BITMAP
01FC00FE00
01FC00FE00
01FC00FE00
01FE00FE00
00FF03FE00
00FFFFFC00
007FFFFC00
007FFFF800
003FFFF000
000FFFC000
0001FF0000
0000000000
0000000000
0000000000
0000000000
0000000000
0007FE0000
003FFFC000
00FFFFFFFE
03FFFFFFFE
07FFFFFFFE
0FFFFFFFFE
0FFFFFFFFE
1FFE03FFFE
3FF801FFE0
3FF000FFC0
3FE0007FC0
3FE0007FC0
3FE0007FC0
3FE0007FC0
3FE0007FC0
3FE0007FC0
3FE0007FC0
3FF000FFC0
1FF801FF80
1FFE07FF80
0FFFFFFF00
07FFFFFE00
03FFFFFC00
00FFFFF000
01FFFFC000
03FFFE0000
07F0000000
0FF0000000
0FF0000000
1FF0000000
1FFC000000
1FFFFFF000
1FFFFFFF00
1FFFFFFFC0
0FFFFFFFF0
07FFFFFFF8
03FFFFFFF8
07FFFFFFFC
0FFFFFFFFC
3FE0007FFC
7FC0000FFE
7F800007FE
FF800007FE
FF800007FC
FF800007FC
FF800007FC
FFC0000FF8
FFE0001FF8
7FFC00FFF0
7FFFFFFFE0
3FFFFFFFE0
1FFFFFFF80
0FFFFFFF00
03FFFFFC00
00FFFFF000
000FFF0000
ENDCHAR
STARTCHAR 0120
ENCODING 288
SWIDTH 732 0
DWIDTH 59 0
BBX 52 75 3 -1
BITMAP
0000000F000000
0000003FC00000
0000007FE00000
0000007FF00000
000000FFF00000
000000FFF00000
000000FFF00000
000000FFF00000
0000007FF00000
0000007FE00000
0000003FC00000
0000000F800000
00000000000000
00000000000000
00000000000000
000000FFF80000
00000FFFFF8000
00007FFFFFF000
0001FFFFFFFC00
0007FFFFFFFF00
000FFFFFFFFF80
003FFFFFFFFFE0
007FFFFFFFFFF0
00FFFFFFFFFFE0
01FFFF801FFFC0
03FFFC0001FFC0
03FFF000007F80
07FFE000001F80
0FFFC000000600
0FFF8000000000
1FFF0000000000
1FFE0000000000
3FFC0000000000
3FFC0000000000
3FF80000000000
7FF80000000000
7FF80000000000
7FF00000000000
7FF00000000000
FFF00000000000
FFF00000000000
FFE00000000000
FFE00000000000
FFE00000000000
FFE00000000000
FFE00000FFFFF0
FFE00000FFFFF0
FFE00000FFFFF0
FFE00000FFFFF0
FFE00000FFFFF0
FFF00000FFFFF0
7FF00000FFFFF0
7FF000007FFFF0
7FF00000003FF0
7FF80000003FF0
3FF80000003FF0
3FF80000003FF0
3FFC0000003FF0
1FFE0000003FF0
1FFE0000003FF0
0FFF0000003FF0
0FFF8000003FF0
07FFC000003FF0
03FFE000003FF0
01FFF800003FF0
00FFFE0001FFF0
007FFFC00FFFF0
003FFFFFFFFFF0
001FFFFFFFFFF0
000FFFFFFFFFE0
0003FFFFFFFFC0
0000FFFFFFFF00
00003FFFFFFC00
000007FFFFE000
0000007FFC0000
ENDCHAR
STARTCHAR 0121
ENCODING 289
SWIDTH 533 0
DWIDTH 43 0
BBX 39 74 2 -14
BITMAP
00007C0000
0001FE0000
0003FF0000
0003FF8000
0007FF8000
0007FFC000
0007FFC000
0007FFC000
0007FF8000
0003FF8000
0003FF0000
0001FE0000
00007C0000
0000000000
0000000000
0000000000
0000000000
0000000000
0007FE0000
003FFFC000
00FFFFFFFE
03FFFFFFFE
07FFFFFFFE
0FFFFFFFFE
0FFFFFFFFE
1FFE03FFFE
3FF801FFE0
3FF000FFC0
3FE0007FC0
3FE0007FC0
3FE0007FC0
3FE0007FC0
3FE0007FC0
3FE0007FC0
3FE0007FC0
3FF000FFC0
1FF801FF80
1FFE07FF80
0FFFFFFF00
07FFFFFE00
03FFFFFC00
00FFFFF000
01FFFFC000
03FFFE0000
07F0000000
0FF0000000
0FF0000000
1FF0000000
1FFC000000
1FFFFFF000
1FFFFFFF00
1FFFFFFFC0
0FFFFFFFF0
07FFFFFFF8
03FFFFFFF8
07FFFFFFFC
0FFFFFFFFC
3FE0007FFC
7FC0000FFE
7F800007FE
FF800007FE
FF800007FC
FF800007FC
FF800007FC
FFC0000FF8
FFE0001FF8
7FFC00FFF0
7FFFFFFFE0
3FFFFFFFE0
1FFFFFFF80
0FFFFFFF00
03FFFFFC00
00FFFFF000
000FFF0000
ENDCHAR
STARTCHAR 0122
ENCODING 290
SWIDTH 732 0
DWIDTH 59 0
BBX 52 75 3 -16
BITMAP
000000FFF80000
00000FFFFF8000
00007FFFFFF000
0001FFFFFFFC00
0007FFFFFFFF00
000FFFFFFFFF80
003FFFFFFFFFE0
007FFFFFFFFFF0
00FFFFFFFFFFE0
01FFFF801FFFC0
03FFFC0001FFC0
03FFF000007F80
07FFE000001F80
0FFFC000000600
0FFF8000000000
1FFF0000000000
1FFE0000000000
3FFC0000000000
3FFC0000000000
3FF80000000000
7FF80000000000
7FF80000000000
7FF00000000000
7FF00000000000
FFF00000000000
FFF00000000000
FFE00000000000
FFE00000000000
FFE00000000000
FFE00000000000
FFE00000FFFFF0
FFE00000FFFFF0
FFE00000FFFFF0
FFE00000FFFFF0
FFE00000FFFFF0
FFF00000FFFFF0
7FF00000FFFFF0
7FF000007FFFF0
7FF00000003FF0
7FF80000003FF0
3FF80000003FF0
3FF80000003FF0
3FFC0000003FF0
1FFE0000003FF0
1FFE0000003FF0
0FFF0000003FF0
0FFF8000003FF0
07FFC000003FF0
03FFE000003FF0
01FFF800003FF0
00FFFE0001FFF0
007FFFC00FFFF0
003FFFFFFFFFF0
001FFFFFFFFFF0
000FFFFFFFFFE0
0003FFFFFFFFC0
0000FFFFFFFF00
00003FFFFFFC00
000007FFFFE000
0000007FFC0000
00000000000000
00000000000000
00000000000000
000001FE000000
000001FE000000
000001FE000000
000001FE000000
000001FE000000
000003FC000000
000003FC000000
000003F8000000
000003F8000000
000003F8000000
000003F0000000
000007E0000000
ENDCHAR
STARTCHAR 0123
ENCODING 291
SWIDTH 533 0
DWIDTH 43 0
BBX 39 72 2 -14
BITMAP
00001FC000
00001F8000
00003F8000
00003F8000
00007F8000
00007F0000
00007F0000
0000FF0000
0000FF0000
0001FF0000
0001FF0000
0000000000
0000000000
0000000000
0000000000
0000000000
0007FE0000
003FFFC000
00FFFFFFFE
03FFFFFFFE
07FFFFFFFE
0FFFFFFFFE
0FFFFFFFFE
1FFE03FFFE
3FF801FFE0
3FF000FFC0
3FE0007FC0
3FE0007FC0
3FE0007FC0
3FE0007FC0
3FE0007FC0
3FE0007FC0
3FE0007FC0
3FF000FFC0
1FF801FF80
1FFE07FF80
0FFFFFFF00
07FFFFFE00
03FFFFFC00
00FFFFF000
01FFFFC000
03FFFE0000
07F0000000
0FF0000000
0FF0000000
1FF0000000
1FFC000000
1FFFFFF000
1FFFFFFF00
1FFFFFFFC0
0FFFFFFFF0
07FFFFFFF8
03FFFFFFF8
07FFFFFFFC
0FFFFFFFFC
3FE0007FFC
7FC0000FFE
7F800007FE
FF800007FE
FF800007FC
FF800007FC
FF800007FC
FFC0000FF8
FFE0001FF8
7FFC00FFF0
7FFFFFFFE0
3FFFFFFFE0
1FFFFFFF80
0FFFFFFF00
03FFFFFC00
00FFFFF000
000FFF0000
ENDCHAR
STARTCHAR 0124
ENCODING 292
SWIDTH 769 0
DWIDTH 62 0
BBX 49 73 7 0
BITMAP
00001FF8000000
00003FFC000000
00003FFE000000
00007FFF000000
0000FFFF800000
0001FE7FC00000
0003FE3FE00000
0007FC1FF00000
000FF81FF00000
001FF00FF80000
003FE007FE0000
00000000000000
00000000000000
00000000000000
00000000000000
FFC0000003FF80
FFC0000003FF80
FFC0000003FF80
FFC0000003FF80
FFC0000003FF80
FFC0000003FF80
FFC0000003FF80
FFC0000003FF80
FFC0000003FF80
FFC0000003FF80
FFC0000003FF80
FFC0000003FF80
FFC0000003FF80
FFC0000003FF80
FFC0000003FF80
FFC0000003FF80
FFC0000003FF80
FFC0000003FF80
FFC0000003FF80
FFC0000003FF80
FFC0000003FF80
FFC0000003FF80
FFC0000003FF80
FFC0000003FF80
FFC0000003FF80
FFFFFFFFFFFF80
FFFFFFFFFFFF80
FFFFFFFFFFFF80
FFFFFFFFFFFF80
FFFFFFFFFFFF80
FFFFFFFFFFFF80
FFFFFFFFFFFF80
FFFFFFFFFFFF80
FFC0000003FF80
FFC0000003FF80
FFC0000003FF80
FFC0000003FF80
FFC0000003FF80
FFC0000003FF80
FFC0000003FF80
FFC0000003FF80
FFC0000003FF80
FFC0000003FF80
FFC0000003FF80
FFC0000003FF80
FFC0000003FF80
FFC0000003FF80
FFC0000003FF80
FFC0000003FF80
FFC0000003FF80
FFC0000003FF80
FFC0000003FF80
FFC0000003FF80
FFC0000003FF80
FFC0000003FF80
FFC0000003FF80
FFC0000003FF80
FFC0000003FF80
ENDCHAR
STARTCHAR 0125
ENCODING 293
SWIDTH 571 0
DWIDTH 46 0
BBX 45 73 -4 0
BITMAP
007FE0000000
00FFF0000000
00FFF8000000
01FFFC000000
03FFFE000000
07F9FF000000
0FF8FF800000
1FF07FC00000
3FE07FC00000
7FC03FE00000
FF801FF80000
000000000000
000000000000
007FE0000000
007FE0000000
007FE0000000
007FE0000000
007FE0000000
007FE0000000
007FE0000000
007FE0000000
007FE0000000
007FE0000000
007FE0000000
007FE0000000
007FE0000000
007FE0000000
007FE0000000
007FE0000000
007FE0000000
007FE0000000
007FE01FE000
007FE0FFFC00
007FE3FFFE00
007FE7FFFF80
007FEFFFFFC0
007FFFFFFFC0
007FFFFFFFE0
007FFFFFFFE0
007FFF81FFF0
007FFE007FF0
007FF8003FF8
007FF0003FF8
007FE0001FF8
007FE0001FF8
007FE0001FF8
007FE0001FF8
007FE0001FF8
007FE0001FF8
007FE0001FF8
007FE0001FF8
007FE0001FF8
007FE0001FF8
007FE0001FF8
007FE0001FF8
007FE0001FF8
007FE0001FF8
007FE0001FF8
007FE0001FF8
007FE0001FF8
007FE0001FF8
007FE0001FF8
007FE0001FF8
007FE0001FF8
007FE0001FF8
007FE0001FF8
007FE0001FF8
007FE0001FF8
007FE0001FF8
007FE0001FF8
007FE0001FF8
007FE0001FF8
007FE0001FF8
ENDCHAR
STARTCHAR 0126
ENCODING 294
SWIDTH 782 0
DWIDTH 63 0
BBX 61 58 1 0
BITMAP
03FF8000000FFE00
03FF8000000FFE00
03FF8000000FFE00
03FF8000000FFE00
03FF8000000FFE00
03FF8000000FFE00
03FF8000000FFE00
03FF8000000FFE00
03FF8000000FFE00
03FF8000000FFE00
FFFFFFFFFFFFFFF8
FFFFFFFFFFFFFFF8
FFFFFFFFFFFFFFF8
FFFFFFFFFFFFFFF8
FFFFFFFFFFFFFFF8
FFFFFFFFFFFFFFF8
03FF8000000FFE00
03FF8000000FFE00
03FF8000000FFE00
03FF8000000FFE00
03FF8000000FFE00
03FF8000000FFE00
03FF8000000FFE00
03FF8000000FFE00
03FF8000000FFE00
03FFFFFFFFFFFE00
03FFFFFFFFFFFE00
03FFFFFFFFFFFE00
03FFFFFFFFFFFE00
03FFFFFFFFFFFE00
03FFFFFFFFFFFE00
03FFFFFFFFFFFE00
03FFFFFFFFFFFE00
03FF8000000FFE00
03FF8000000FFE00
03FF8000000FFE00
03FF8000000FFE00
03FF8000000FFE00
03FF8000000FFE00
03FF8000000FFE00
03FF8000000FFE00
03FF8000000FFE00
03FF8000000FFE00
03FF8000000FFE00
03FF8000000FFE00
03FF8000000FFE00
03FF8000000FFE00
03FF8000000FFE00
03FF8000000FFE00
03FF8000000FFE00
03FF8000000FFE00
03FF8000000FFE00
03FF8000000FFE00
03FF8000000FFE00
03FF8000000FFE00
03FF8000000FFE00
03FF8000000FFE00
03FF8000000FFE00
ENDCHAR
STARTCHAR 0127
ENCODING 295
SWIDTH 571 0
DWIDTH 46 0
BBX 42 60 -1 0
BITMAP
03FF00000000
03FF00000000
03FF00000000
03FF00000000
03FF00000000
03FF00000000
03FF00000000
03FF00000000
FFFFFFE00000
FFFFFFE00000
FFFFFFE00000
FFFFFFE00000
FFFFFFE00000
FFFFFFE00000
03FF00000000
03FF00000000
03FF00000000
03FF00000000
03FF00000000
03FF00FF0000
03FF07FFE000
03FF1FFFF000
03FF3FFFFC00
03FF7FFFFE00
03FFFFFFFE00
03FFFFFFFF00
03FFFFFFFF00
03FFFC0FFF80
03FFF003FF80
03FFC001FF80
03FF8001FFC0
03FF0000FFC0
03FF0000FFC0
03FF0000FFC0
03FF0000FFC0
03FF0000FFC0
03FF0000FFC0
03FF0000FFC0
03FF0000FFC0
03FF0000FFC0
03FF0000FFC0
03FF0000FFC0
03FF0000FFC0
03FF0000FFC0
03FF0000FFC0
03FF0000FFC0
03FF0000FFC0
03FF0000FFC0
03FF0000FFC0
03FF0000FFC0
03FF0000FFC0
03FF0000FFC0
03FF0000FFC0
03FF0000FFC0
03FF0000FFC0
03FF0000FFC0
03FF0000FFC0
03FF0000FFC0
03FF0000FFC0
03FF0000FFC0
ENDCHAR
STARTCHAR 0128
ENCODING 296
SWIDTH 297 0
DWIDTH 24 0
BBX 29 72 -2 0
BITMAP
03F001F8
0FFC01F8
1FFF03F8
3FFF87F0
7FFFFFF0
7FFFFFF0
7F0FFFE0
FE07FFC0
FC01FF80
FC007E00
00000000
00000000
00000000
00000000
007FE000
007FE000
007FE000
007FE000
007FE000
007FE000
007FE000
007FE000
007FE000
007FE000
007FE000
007FE000
007FE000
007FE000
007FE000
007FE000
007FE000
007FE000
007FE000
007FE000
007FE000
007FE000
007FE000
007FE000
007FE000
007FE000
007FE000
007FE000
007FE000
007FE000
007FE000
007FE000
007FE000
007FE000
007FE000
007FE000
007FE000
007FE000
007FE000
007FE000
007FE000
007FE000
007FE000
007FE000
007FE000
007FE000
007FE000
007FE000
007FE000
007FE000
007FE000
007FE000
007FE000
007FE000
007FE000
007FE000
007FE000
007FE000
ENDCHAR
STARTCHAR 0129
ENCODING 297
SWIDTH 260 0
DWIDTH 21 0
BBX 26 58 -3 0
BITMAP
03E00FC0
0FFC0FC0
1FFF1FC0
3FFFFFC0
3FFFFF80
7FFFFF80
7FFFFF00
7E1FFF00
FE07FE00
FE01F800
00000000
00000000
00000000
00000000
00000000
00000000
00000000
00FFC000
00FFC000
00FFC000
00FFC000
00FFC000
00FFC000
00FFC000
00FFC000
00FFC000
00FFC000
00FFC000
00FFC000
00FFC000
00FFC000
00FFC000
00FFC000
00FFC000
00FFC000
00FFC000
00FFC000
00FFC000
00FFC000
00FFC000
00FFC000
00FFC000
00FFC000
00FFC000
00FFC000
00FFC000
00FFC000
00FFC000
00FFC000
00FFC000
00FFC000
00FFC000
00FFC000
00FFC000
00FFC000
00FFC000
00FFC000
00FFC000
ENDCHAR
STARTCHAR 012A
ENCODING 298
SWIDTH 297 0
DWIDTH 24 0
BBX 24 69 0 0
BITMAP
FFFFFF
FFFFFF
FFFFFF
FFFFFF
FFFFFF
FFFFFF
000000
000000
000000
000000
000000
01FF80
01FF80
01FF80
01FF80
01FF80
01FF80
01FF80
01FF80
01FF80
01FF80
01FF80
01FF80
01FF80
01FF80
01FF80
01FF80
01FF80
01FF80
01FF80
01FF80
01FF80
01FF80
01FF80
01FF80
01FF80
01FF80
01FF80
01FF80
01FF80
01FF80
01FF80
01FF80
01FF80
01FF80
01FF80
01FF80
01FF80
01FF80
01FF80
01FF80
01FF80
01FF80
01FF80
01FF80
01FF80
01FF80
01FF80
01FF80
01FF80
01FF80
01FF80
01FF80
01FF80
01FF80
01FF80
01FF80
01FF80
01FF80
ENDCHAR
STARTCHAR 012B
ENCODING 299
SWIDTH 260 0
DWIDTH 21 0
BBX 24 55 -2 0
BITMAP
FFFFFF
FFFFFF
FFFFFF
FFFFFF
FFFFFF
FFFFFF
000000
000000
000000
000000
000000
000000
000000
000000
01FF80
01FF80
01FF80
01FF80
01FF80
01FF80
01FF80
01FF80
01FF80
01FF80
01FF80
01FF80
01FF80
01FF80
01FF80
01FF80
01FF80
01FF80
01FF80
01FF80
01FF80
01FF80
01FF80
01FF80
01FF80
01FF80
01FF80
01FF80
01FF80
01FF80
01FF80
01FF80
01FF80
01FF80
01FF80
01FF80
01FF80
01FF80
01FF80
01FF80
01FF80
ENDCHAR
STARTCHAR 012C
ENCODING 300
SWIDTH 297 0
DWIDTH 24 0
BBX 27 73 -1 0
BITMAP
FE001FE0
FF001FC0
FF003FC0
FF803FC0
7FC0FFC0
7FFFFF80
3FFFFF00
1FFFFF00
0FFFFC00
07FFF800
00FFC000
00000000
00000000
00000000
00000000
00FFC000
00FFC000
00FFC000
00FFC000
00FFC000
00FFC000
00FFC000
00FFC000
00FFC000
00FFC000
00FFC000
00FFC000
00FFC000
00FFC000
00FFC000
00FFC000
00FFC000
00FFC000
00FFC000
00FFC000
00FFC000
00FFC000
00FFC000
00FFC000
00FFC000
00FFC000
00FFC000
00FFC000
00FFC000
00FFC000
00FFC000
00FFC000
00FFC000
00FFC000
00FFC000
00FFC000
00FFC000
00FFC000
00FFC000
00FFC000
00FFC000
00FFC000
00FFC000
00FFC000
00FFC000
00FFC000
00FFC000
00FFC000
00FFC000
00FFC000
00FFC000
00FFC000
00FFC000
00FFC000
00FFC000
00FFC000
00FFC000
00FFC000
ENDCHAR
STARTCHAR 012D
ENCODING 301
SWIDTH 260 0
DWIDTH 21 0
BBX 24 58 -2 0
BITMAP
FE007F
FE007F
FE007F
FF007F
7F81FF
7FFFFE
3FFFFE
3FFFFC
1FFFF8
07FFE0
00FF80
000000
000000
000000
000000
000000
000000
01FF80
01FF80
01FF80
01FF80
01FF80
01FF80
01FF80
01FF80
01FF80
01FF80
01FF80
01FF80
01FF80
01FF80
01FF80
01FF80
01FF80
01FF80
01FF80
01FF80
01FF80
01FF80
01FF80
01FF80
01FF80
01FF80
01FF80
01FF80
01FF80
01FF80
01FF80
01FF80
01FF80
01FF80
01FF80
01FF80
01FF80
01FF80
01FF80
01FF80
01FF80
ENDCHAR
STARTCHAR 012E
ENCODING 302
SWIDTH 297 0
DWIDTH 24 0
BBX 16 71 4 -13
BITMAP
1FF8
1FF8
1FF8
1FF8
1FF8
1FF8
1FF8
1FF8
1FF8
1FF8
1FF8
1FF8
1FF8
1FF8
1FF8
1FF8
1FF8
1FF8
1FF8
1FF8
1FF8
1FF8
1FF8
1FF8
1FF8
1FF8
1FF8
1FF8
1FF8
1FF8
1FF8
1FF8
1FF8
1FF8
1FF8
1FF8
1FF8
1FF8
1FF8
1FF8
1FF8
1FF8
1FF8
1FF8
1FF8
1FF8
1FF8
1FF8
1FF8
1FF8
1FF8
1FF8
1FF8
1FF8
1FF8
1FF8
1FF8
1FF8
07E0
0F80
3F00
3F00
7F00
FF00
FF80
FFFE
FFFE
7FFE
7FFF
3FFE
07F0
ENDCHAR
STARTCHAR 012F
ENCODING 303
SWIDTH 260 0
DWIDTH 21 0
BBX 16 73 3 -13
BITMAP
07C0
1FE0
3FF0
3FF8
7FF8
7FFC
7FFC
7FFC
7FF8
3FF8
3FF0
1FE0
07C0
0000
0000
0000
0000
0000
0000
3FF0
3FF0
3FF0
3FF0
3FF0
3FF0
3FF0
3FF0
3FF0
3FF0
3FF0
3FF0
3FF0
3FF0
3FF0
3FF0
3FF0
3FF0
3FF0
3FF0
3FF0
3FF0
3FF0
3FF0
3FF0
3FF0
3FF0
3FF0
3FF0
3FF0
3FF0
3FF0
3FF0
3FF0
3FF0
3FF0
3FF0
3FF0
3FF0
3FF0
3FF0
07C0
1F80
3F00
7E00
FE00
FE00
FF00
FFFC
FFFE
FFFE
7FFF
3FFC
0FF0
ENDCHAR
STARTCHAR 0130
ENCODING 304
SWIDTH 297 0
DWIDTH 24 0
BBX 12 74 6 0
BITMAP
0F00
3FC0
7FE0
7FF0
FFF0
FFF0
FFF0
FFF0
7FF0
7FE0
3FC0
0F80
0000
0000
0000
0000
7FE0
7FE0
7FE0
7FE0
7FE0
7FE0
7FE0
7FE0
7FE0
7FE0
7FE0
7FE0
7FE0
7FE0
7FE0
7FE0
7FE0
7FE0
7FE0
7FE0
7FE0
7FE0
7FE0
7FE0
7FE0
7FE0
7FE0
7FE0
7FE0
7FE0
7FE0
7FE0
7FE0
7FE0
7FE0
7FE0
7FE0
7FE0
7FE0
7FE0
7FE0
7FE0
7FE0
7FE0
7FE0
7FE0
7FE0
7FE0
7FE0
7FE0
7FE0
7FE0
7FE0
7FE0
7FE0
7FE0
7FE0
7FE0
ENDCHAR
STARTCHAR 0131
ENCODING 305
SWIDTH 260 0
DWIDTH 21 0
BBX 10 41 5 0
BITMAP
FFC0
FFC0
FFC0
FFC0
FFC0
FFC0
FFC0
FFC0
FFC0
FFC0
FFC0
FFC0
FFC0
FFC0
FFC0
FFC0
FFC0
FFC0
FFC0
FFC0
FFC0
FFC0
FFC0
FFC0
FFC0
FFC0
FFC0
FFC0
FFC0
FFC0
FFC0
FFC0
FFC0
FFC0
FFC0
FFC0
FFC0
FFC0
FFC0
FFC0
FFC0
ENDCHAR
STARTCHAR 0132
ENCODING 306
SWIDTH 744 0
DWIDTH 60 0
BBX 47 59 7 -1
BITMAP
FFC000000FFE
FFC000000FFE
FFC000000FFE
FFC000000FFE
FFC000000FFE
FFC000000FFE
FFC000000FFE
FFC000000FFE
FFC000000FFE
FFC000000FFE
FFC000000FFE
FFC000000FFE
FFC000000FFE
FFC000000FFE
FFC000000FFE
FFC000000FFE
FFC000000FFE
FFC000000FFE
FFC000000FFE
FFC000000FFE
FFC000000FFE
FFC000000FFE
FFC000000FFE
FFC000000FFE
FFC000000FFE
FFC000000FFE
FFC000000FFE
FFC000000FFE
FFC000000FFE
FFC000000FFE
FFC000000FFE
FFC000000FFE
FFC000000FFE
FFC000000FFE
FFC000000FFE
FFC000000FFE
FFC000000FFE
FFC000000FFE
FFC000000FFE
FFC000000FFE
FFC000000FFE
FFC000000FFE
FFC000000FFE
FFC000001FFC
FFC000001FFC
FFC000001FFC
FFC000003FFC
FFC000007FF8
FFC00000FFF8
FFC00403FFF0
FFC00FFFFFF0
FFC01FFFFFE0
FFC01FFFFFE0
FFC01FFFFFC0
FFC01FFFFF80
FFC01FFFFF00
FFC01FFFFC00
FFC01FFFF000
000003FF8000
ENDCHAR
STARTCHAR 0133
ENCODING 307
SWIDTH 521 0
DWIDTH 42 0
BBX 35 74 4 -14
BITMAP
0F80003E00
3FC000FF00
7FE001FF80
7FF001FFC0
FFF003FFC0
FFF803FFE0
FFF803FFE0
FFF803FFE0
FFF003FFC0
7FF001FFC0
7FE001FF80
3FC000FF00
0F80003E00
0000000000
0000000000
0000000000
0000000000
0000000000
0000000000
7FE001FF80
7FE001FF80
7FE001FF80
7FE001FF80
7FE001FF80
7FE001FF80
7FE001FF80
7FE001FF80
7FE001FF80
7FE001FF80
7FE001FF80
7FE001FF80
7FE001FF80
7FE001FF80
7FE001FF80
7FE001FF80
7FE001FF80
7FE001FF80
7FE001FF80
7FE001FF80
7FE001FF80
7FE001FF80
7FE001FF80
7FE001FF80
7FE001FF80
7FE001FF80
7FE001FF80
7FE001FF80
7FE001FF80
7FE001FF80
7FE001FF80
7FE001FF80
7FE001FF80
7FE001FF80
7FE001FF80
7FE001FF80
7FE001FF80
7FE001FF80
7FE001FF80
7FE001FF80
7FE001FF80
000001FF80
000001FF80
000001FF80
000001FF80
000003FF80
000007FF80
0000FFFF00
0001FFFF00
0001FFFF00
0001FFFE00
0001FFFC00
0001FFF800
0001FFE000
0000FF8000
ENDCHAR
STARTCHAR 0134
ENCODING 308
SWIDTH 434 0
DWIDTH 35 0
BBX 37 74 1 -1
BITMAP
00007FE000
0000FFF000
0000FFF800
0001FFFC00
0003FFFE00
0007F9FF00
000FF8FF80
001FF07FC0
003FE07FC0
007FC03FE0
00FF801FF8
0000000000
0000000000
0000000000
0000000000
00007FF000
00007FF000
00007FF000
00007FF000
00007FF000
00007FF000
00007FF000
00007FF000
00007FF000
00007FF000
00007FF000
00007FF000
00007FF000
00007FF000
00007FF000
00007FF000
00007FF000
00007FF000
00007FF000
00007FF000
00007FF000
00007FF000
00007FF000
00007FF000
00007FF000
00007FF000
00007FF000
00007FF000
00007FF000
00007FF000
00007FF000
00007FF000
00007FF000
00007FF000
00007FF000
00007FF000
00007FF000
00007FF000
00007FF000
00007FF000
00007FF000
00007FF000
00007FF000
0000FFE000
0000FFE000
0000FFE000
0001FFE000
0003FFC000
0007FFC000
201FFF8000
7FFFFF8000
FFFFFF0000
FFFFFF0000
FFFFFE0000
FFFFFC0000
FFFFF80000
FFFFE00000
FFFF800000
1FFC000000
ENDCHAR
STARTCHAR 0135
ENCODING 309
SWIDTH 260 0
DWIDTH 21 0
BBX 28 72 -4 -14
BITMAP
007FE000
00FFF000
01FFF800
01FFFC00
03FFFE00
07FDFF00
0FF8FF00
1FF07F80
3FE03FC0
7FC01FE0
FF800FF0
00000000
00000000
00000000
00000000
00000000
00000000
007FE000
007FE000
007FE000
007FE000
007FE000
007FE000
007FE000
007FE000
007FE000
007FE000
007FE000
007FE000
007FE000
007FE000
007FE000
007FE000
007FE000
007FE000
007FE000
007FE000
007FE000
007FE000
007FE000
007FE000
007FE000
007FE000
007FE000
007FE000
007FE000
007FE000
007FE000
007FE000
007FE000
007FE000
007FE000
007FE000
007FE000
007FE000
007FE000
007FE000
007FE000
007FE000
007FE000
007FE000
007FE000
00FFE000
01FFE000
3FFFC000
7FFFC000
7FFFC000
7FFF8000
7FFF0000
7FFE0000
7FF80000
3FE00000
ENDCHAR
STARTCHAR 0136
ENCODING 310
SWIDTH 695 0
DWIDTH 56 0
BBX 49 74 7 -16
BITMAP
FFC000000FFF00
FFC000003FFE00
FFC000007FFC00
FFC00000FFF800
FFC00000FFF000
FFC00001FFE000
FFC00003FFC000
FFC00007FFC000
FFC0000FFF8000
FFC0000FFF0000
FFC0001FFE0000
FFC0003FFC0000
FFC0007FF80000
FFC000FFF80000
FFC000FFF00000
FFC001FFE00000
FFC003FFC00000
FFC007FF800000
FFC00FFF000000
FFC01FFF000000
FFC01FFE000000
FFC03FFC000000
FFC07FF8000000
FFC0FFF0000000
FFFFFFE0000000
FFFFFFC0000000
FFFFFF80000000
FFFFFFC0000000
FFFFFFE0000000
FFFFFFF0000000
FFFFFFF8000000
FFFFFFFC000000
FFC07FFC000000
FFC03FFE000000
FFC01FFF000000
FFC00FFF800000
FFC00FFF800000
FFC007FFC00000
FFC003FFE00000
FFC001FFF00000
FFC001FFF00000
FFC000FFF80000
FFC0007FFC0000
FFC0003FFC0000
FFC0001FFE0000
FFC0001FFF0000
FFC0000FFF8000
FFC00007FF8000
FFC00003FFC000
FFC00003FFE000
FFC00001FFF000
FFC00000FFF000
FFC000007FF800
FFC000007FFC00
FFC000003FFE00
FFC000001FFE00
FFC000000FFF00
FFC0000007FF80
00000000000000
00000000000000
00000000000000
00000000000000
00007F80000000
00007F80000000
00007F80000000
00007F80000000
00007F80000000
0000FF00000000
0000FF00000000
0000FE00000000
0000FE00000000
0000FE00000000
0000FC00000000
0001F800000000
ENDCHAR
STARTCHAR 0137
ENCODING 311
SWIDTH 533 0
DWIDTH 43 0
BBX 38 76 5 -16
BITMAP
FFC0000000
FFC0000000
FFC0000000
FFC0000000
FFC0000000
FFC0000000
FFC0000000
FFC0000000
FFC0000000
FFC0000000
FFC0000000
FFC0000000
FFC0000000
FFC0000000
FFC0000000
FFC0000000
FFC0000000
FFC0000000
FFC0000000
FFC0003FFC
FFC0007FF0
FFC000FFE0
FFC001FFE0
FFC003FFC0
FFC003FF80
FFC007FF00
FFC00FFE00
FFC01FFC00
FFC03FF800
FFC07FF000
FFC07FF000
FFC0FFE000
FFC1FFC000
FFC3FF8000
FFFFFF0000
FFFFFE0000
FFFFFC0000
FFFFFE0000
FFFFFF0000
FFFFFF0000
FFFFFF8000
FFC3FFC000
FFC1FFC000
FFC0FFE000
FFC07FF000
FFC07FF000
FFC03FF800
FFC01FFC00
FFC01FFC00
FFC00FFE00
FFC007FF00
FFC007FF00
FFC003FF80
FFC001FFC0
FFC001FFE0
FFC000FFE0
FFC0007FF0
FFC0007FF8
FFC0003FF8
FFC0001FFC
0000000000
0000000000
0000000000
0000000000
0003FC0000
0003FC0000
0003FC0000
0003FC0000
0003FC0000
0007F80000
0007F80000
0007F00000
0007F00000
0007F00000
0007E00000
000FC00000
ENDCHAR
STARTCHAR 0138
ENCODING 312
SWIDTH 533 0
DWIDTH 43 0
BBX 38 41 5 0
BITMAP
FFC0003FFC
FFC0007FF0
FFC000FFE0
FFC001FFE0
FFC003FFC0
FFC003FF80
FFC007FF00
FFC00FFE00
FFC01FFC00
FFC03FF800
FFC07FF000
FFC07FF000
FFC0FFE000
FFC1FFC000
FFC3FF8000
FFFFFF0000
FFFFFE0000
FFFFFC0000
FFFFFE0000
FFFFFF0000
FFFFFF0000
FFFFFF8000
FFC3FFC000
FFC1FFC000
FFC0FFE000
FFC07FF000
FFC07FF000
FFC03FF800
FFC01FFC00
FFC01FFC00
FFC00FFE00
FFC007FF00
FFC007FF00
FFC003FF80
FFC001FFC0
FFC001FFE0
FFC000FFE0
FFC0007FF0
FFC0007FF8
FFC0003FF8
FFC0001FFC
ENDCHAR
STARTCHAR 0139
ENCODING 313
SWIDTH 521 0
DWIDTH 42 0
BBX 35 75 6 0
BITMAP
001FFF0000
007FFE0000
00FFFC0000
01FFF00000
01FFE00000
03FFC00000
07FF800000
0FFF000000
0FFE000000
1FFC000000
3FF0000000
7FE0000000
FFC0000000
0000000000
0000000000
0000000000
0000000000
7FE0000000
7FE0000000
7FE0000000
7FE0000000
7FE0000000
7FE0000000
7FE0000000
7FE0000000
7FE0000000
7FE0000000
7FE0000000
7FE0000000
7FE0000000
7FE0000000
7FE0000000
7FE0000000
7FE0000000
7FE0000000
7FE0000000
7FE0000000
7FE0000000
7FE0000000
7FE0000000
7FE0000000
7FE0000000
7FE0000000
7FE0000000
7FE0000000
7FE0000000
7FE0000000
7FE0000000
7FE0000000
7FE0000000
7FE0000000
7FE0000000
7FE0000000
7FE0000000
7FE0000000
7FE0000000
7FE0000000
7FE0000000
7FE0000000
7FE0000000
7FE0000000
7FE0000000
7FE0000000
7FE0000000
7FE0000000
7FE0000000
7FFFFFFFE0
7FFFFFFFE0
7FFFFFFFE0
7FFFFFFFE0
7FFFFFFFE0
7FFFFFFFE0
7FFFFFFFE0
7FFFFFFFE0
7FFFFFFFE0
ENDCHAR
STARTCHAR 013A
ENCODING 314
SWIDTH 248 0
DWIDTH 20 0
BBX 24 75 3 0
BITMAP
001FFF
007FFE
00FFFC
01FFF0
01FFE0
03FFC0
07FF80
0FFF00
0FFE00
1FFC00
3FF000
7FE000
FFC000
000000
000000
3FF000
3FF000
3FF000
3FF000
3FF000
3FF000
3FF000
3FF000
3FF000
3FF000
3FF000
3FF000
3FF000
3FF000
3FF000
3FF000
3FF000
3FF000
3FF000
3FF000
3FF000
3FF000
3FF000
3FF000
3FF000
3FF000
3FF000
3FF000
3FF000
3FF000
3FF000
3FF000
3FF000
3FF000
3FF000
3FF000
3FF000
3FF000
3FF000
3FF000
3FF000
3FF000
3FF000
3FF000
3FF000
3FF000
3FF000
3FF000
3FF000
3FF000
3FF000
3FF000
3FF000
3FF000
3FF000
3FF000
3FF000
3FF000
3FF000
3FF000
ENDCHAR
STARTCHAR 013B
ENCODING 315
SWIDTH 521 0
DWIDTH 42 0
BBX 34 74 7 -16
BITMAP
FFC0000000
FFC0000000
FFC0000000
FFC0000000
FFC0000000
FFC0000000
FFC0000000
FFC0000000
FFC0000000
FFC0000000
FFC0000000
FFC0000000
FFC0000000
FFC0000000
FFC0000000
FFC0000000
FFC0000000
FFC0000000
FFC0000000
FFC0000000
FFC0000000
FFC0000000
FFC0000000
FFC0000000
FFC0000000
FFC0000000
FFC0000000
FFC0000000
FFC0000000
FFC0000000
FFC0000000
FFC0000000
FFC0000000
FFC0000000
FFC0000000
FFC0000000
FFC0000000
FFC0000000
FFC0000000
FFC0000000
FFC0000000
FFC0000000
FFC0000000
FFC0000000
FFC0000000
FFC0000000
FFC0000000
FFC0000000
FFC0000000
FFFFFFFFC0
FFFFFFFFC0
FFFFFFFFC0
FFFFFFFFC0
FFFFFFFFC0
FFFFFFFFC0
FFFFFFFFC0
FFFFFFFFC0
FFFFFFFFC0
0000000000
0000000000
0000000000
0000000000
000FF00000
000FF00000
000FF00000
000FF00000
000FF00000
001FE00000
001FE00000
001FC00000
001FC00000
001FC00000
001F800000
003F000000
ENDCHAR
STARTCHAR 013C
ENCODING 316
SWIDTH 248 0
DWIDTH 20 0
BBX 10 76 5 -16
BITMAP
FFC0
FFC0
FFC0
FFC0
FFC0
FFC0
FFC0
FFC0
FFC0
FFC0
FFC0
FFC0
FFC0
FFC0
FFC0
FFC0
FFC0
FFC0
FFC0
FFC0
FFC0
FFC0
FFC0
FFC0
FFC0
FFC0
FFC0
FFC0
FFC0
FFC0
FFC0
FFC0
FFC0
FFC0
FFC0
FFC0
FFC0
FFC0
FFC0
FFC0
FFC0
FFC0
FFC0
FFC0
FFC0
FFC0
FFC0
FFC0
FFC0
FFC0
FFC0
FFC0
FFC0
FFC0
FFC0
FFC0
FFC0
FFC0
FFC0
FFC0
0000
0000
0000
0000
3FC0
3FC0
3FC0
3FC0
3FC0
7F80
7F80
7F00
7F00
7F00
7E00
FC00
ENDCHAR
STARTCHAR 013D
ENCODING 317
SWIDTH 521 0
DWIDTH 42 0
BBX 34 60 7 0
BITMAP
00001FE000
00003FE000
FFC03FE000
FFC03FE000
FFC03FC000
FFC03FC000
FFC07F8000
FFC07F8000
FFC07F8000
FFC07F0000
FFC07F0000
FFC07E0000
FFC0FE0000
FFC0FC0000
FFC0000000
FFC0000000
FFC0000000
FFC0000000
FFC0000000
FFC0000000
FFC0000000
FFC0000000
FFC0000000
FFC0000000
FFC0000000
FFC0000000
FFC0000000
FFC0000000
FFC0000000
FFC0000000
FFC0000000
FFC0000000
FFC0000000
FFC0000000
FFC0000000
FFC0000000
FFC0000000
FFC0000000
FFC0000000
FFC0000000
FFC0000000
FFC0000000
FFC0000000
FFC0000000
FFC0000000
FFC0000000
FFC0000000
FFC0000000
FFC0000000
FFC0000000
FFC0000000
FFFFFFFFC0
FFFFFFFFC0
FFFFFFFFC0
FFFFFFFFC0
FFFFFFFFC0
FFFFFFFFC0
FFFFFFFFC0
FFFFFFFFC0
FFFFFFFFC0
ENDCHAR
STARTCHAR 013E
ENCODING 318
SWIDTH 248 0
DWIDTH 20 0
BBX 25 60 5 0
BITMAP
FFC07F80
FFC0FF80
FFC0FF80
FFC0FF80
FFC0FF00
FFC0FF00
FFC1FE00
FFC1FE00
FFC1FE00
FFC1FC00
FFC1FC00
FFC1F800
FFC3F800
FFC3F000
FFC00000
FFC00000
FFC00000
FFC00000
FFC00000
FFC00000
FFC00000
FFC00000
FFC00000
FFC00000
FFC00000
FFC00000
FFC00000
FFC00000
FFC00000
FFC00000
FFC00000
FFC00000
FFC00000
FFC00000
FFC00000
FFC00000
FFC00000
FFC00000
FFC00000
FFC00000
FFC00000
FFC00000
FFC00000
FFC00000
FFC00000
FFC00000
FFC00000
FFC00000
FFC00000
FFC00000
FFC00000
FFC00000
FFC00000
FFC00000
FFC00000
FFC00000
FFC00000
FFC00000
FFC00000
FFC00000
ENDCHAR
STARTCHAR 013F
ENCODING 319
SWIDTH 546 0
DWIDTH 44 0
BBX 34 58 7 0
BITMAP
FFC0000000
FFC0000000
FFC0000000
FFC0000000
FFC0000000
FFC0000000
FFC0000000
FFC0000000
FFC0000000
FFC0000000
FFC0000000
FFC0000000
FFC0000000
FFC0000000
FFC0000000
FFC0000000
FFC0000000
FFC0000000
FFC0000000
FFC0000000
FFC000F800
FFC003FC00
FFC007FE00
FFC007FF00
FFC00FFF00
FFC00FFF80
FFC00FFF80
FFC00FFF80
FFC00FFF00
FFC007FF00
FFC007FE00
FFC003FC00
FFC000F800
FFC0000000
FFC0000000
FFC0000000
FFC0000000
FFC0000000
FFC0000000
FFC0000000
FFC0000000
FFC0000000
FFC0000000
FFC0000000
FFC0000000
FFC0000000
FFC0000000
FFC0000000
FFC0000000
FFFFFFFFC0
FFFFFFFFC0
FFFFFFFFC0
FFFFFFFFC0
FFFFFFFFC0
FFFFFFFFC0
FFFFFFFFC0
FFFFFFFFC0
FFFFFFFFC0
ENDCHAR
STARTCHAR 0140
ENCODING 320
SWIDTH 397 0
DWIDTH 32 0
BBX 28 60 5 0
BITMAP
FFC00000
FFC00000
FFC00000
FFC00000
FFC00000
FFC00000
FFC00000
FFC00000
FFC00000
FFC00000
FFC00000
FFC00000
FFC00000
FFC00000
FFC00000
FFC00000
FFC00000
FFC00000
FFC00000
FFC00000
FFC00000
FFC00000
FFC00000
FFC00000
FFC01F00
FFC07FC0
FFC07FE0
FFC0FFE0
FFC0FFF0
FFC1FFF0
FFC1FFF0
FFC0FFF0
FFC0FFE0
FFC07FE0
FFC07FC0
FFC01F00
FFC00000
FFC00000
FFC00000
FFC00000
FFC00000
FFC00000
FFC00000
FFC00000
FFC00000
FFC00000
FFC00000
FFC00000
FFC00000
FFC00000
FFC00000
FFC00000
FFC00000
FFC00000
FFC00000
FFC00000
FFC00000
FFC00000
FFC00000
FFC00000
ENDCHAR
STARTCHAR 0141
ENCODING 321
SWIDTH 533 0
DWIDTH 43 0
BBX 41 58 1 0
BITMAP
01FFC0000000
01FFC0000000
01FFC0000000
01FFC0000000
01FFC0000000
01FFC0000000
01FFC0000000
01FFC0000000
01FFC0000000
01FFC0000000
01FFC0000000
01FFC0000000
01FFC0000000
01FFC0000000
01FFC0000000
01FFC0000000
01FFC0010000
01FFC0030000
01FFC01F0000
01FFC07F0000
01FFC1FF0000
01FFC7FF0000
01FFDFFF0000
01FFFFFF0000
01FFFFFF0000
01FFFFFE0000
01FFFFF80000
01FFFFE00000
03FFFF800000
0FFFFE000000
3FFFF8000000
FFFFE0000000
FFFFC0000000
FFFFC0000000
FFFFC0000000
FFFFC0000000
FFFFC0000000
FDFFC0000000
F1FFC0000000
C1FFC0000000
01FFC0000000
01FFC0000000
01FFC0000000
01FFC0000000
01FFC0000000
01FFC0000000
01FFC0000000
01FFC0000000
01FFC0000000
01FFFFFFFF80
01FFFFFFFF80
01FFFFFFFF80
01FFFFFFFF80
01FFFFFFFF80
01FFFFFFFF80
01FFFFFFFF80
01FFFFFFFF80
01FFFFFFFF80
ENDCHAR
STARTCHAR 0142
ENCODING 322
SWIDTH 335 0
DWIDTH 27 0
BBX 24 60 2 0
BITMAP
03FF00
03FF00
03FF00
03FF00
03FF00
03FF00
03FF00
03FF00
03FF00
03FF00
03FF00
03FF00
03FF00
03FF00
03FF00
03FF00
03FF00
03FF00
03FF01
03FF07
03FF3F
03FFFF
03FFFF
03FFFF
03FFFF
07FFFE
3FFFFC
FFFFE0
FFFF80
FFFF00
FFFF00
FFFF00
FFFF00
E3FF00
83FF00
03FF00
03FF00
03FF00
03FF00
03FF00
03FF00
03FF00
03FF00
03FF00
03FF00
03FF00
03FF00
03FF00
03FF00
03FF00
03FF00
03FF00
03FF00
03FF00
03FF00
03FF00
03FF00
03FF00
03FF00
03FF00
ENDCHAR
STARTCHAR 0143
ENCODING 323
SWIDTH 769 0
DWIDTH 62 0
BBX 49 75 7 0
BITMAP
00000007FFC000
0000001FFF8000
0000003FFF0000
0000007FFC0000
0000007FF80000
000000FFF00000
000001FFE00000
000003FFC00000
000003FF800000
000007FF000000
00000FFC000000
00001FF8000000
00003FF0000000
00000000000000
00000000000000
00000000000000
00000000000000
FF00000001FF80
FF80000001FF80
FF80000001FF80
FFC0000001FF80
FFE0000001FF80
FFF0000001FF80
FFF8000001FF80
FFF8000001FF80
FFFC000001FF80
FFFE000001FF80
FFFF000001FF80
FFFF800001FF80
FFFF800001FF80
FFFFC00001FF80
FFFFE00001FF80
FFFFF00001FF80
FFFFF00001FF80
FFFFF80001FF80
FFFFFC0001FF80
FFBFFE0001FF80
FF9FFF0001FF80
FF8FFF0001FF80
FF87FF8001FF80
FF87FFC001FF80
FF83FFE001FF80
FF81FFE001FF80
FF80FFF001FF80
FF807FF801FF80
FF807FFC01FF80
FF803FFE01FF80
FF801FFE01FF80
FF800FFF01FF80
FF8007FF81FF80
FF8007FFC1FF80
FF8003FFE1FF80
FF8001FFE1FF80
FF8000FFF1FF80
FF80007FF9FF80
FF80007FFDFF80
FF80003FFDFF80
FF80001FFEFF80
FF80000FFFFF80
FF800007FFFF80
FF800007FFFF80
FF800003FFFF80
FF800001FFFF80
FF800000FFFF80
FF8000007FFF80
FF8000007FFF80
FF8000003FFF80
FF8000001FFF80
FF8000000FFF80
FF80000007FF80
FF80000007FF80
FF80000003FF80
FF80000001FF80
FF80000000FF80
FF800000007F80
ENDCHAR
STARTCHAR 0144
ENCODING 324
SWIDTH 571 0
DWIDTH 46 0
BBX 36 59 5 0
BITMAP
00000FFF00
00001FFE00
00003FFC00
00003FF800
00007FF000
00007FE000
0000FFC000
0001FF8000
0001FF0000
0003FE0000
0003FC0000
0007F80000
0000000000
0000000000
0000000000
0000000000
0000000000
00001FC000
FF00FFF800
FF03FFFC00
FF8FFFFF00
FF9FFFFF80
FFBFFFFF80
FFFFFFFFC0
FFFFFFFFC0
FFFF03FFE0
FFFC00FFE0
FFF0007FF0
FFE0007FF0
FFC0003FF0
FFC0003FF0
FFC0003FF0
FFC0003FF0
FFC0003FF0
FFC0003FF0
FFC0003FF0
FFC0003FF0
FFC0003FF0
FFC0003FF0
FFC0003FF0
FFC0003FF0
FFC0003FF0
FFC0003FF0
FFC0003FF0
FFC0003FF0
FFC0003FF0
FFC0003FF0
FFC0003FF0
FFC0003FF0
FFC0003FF0
FFC0003FF0
FFC0003FF0
FFC0003FF0
FFC0003FF0
FFC0003FF0
FFC0003FF0
FFC0003FF0
FFC0003FF0
FFC0003FF0
ENDCHAR
STARTCHAR 0145
ENCODING 325
SWIDTH 769 0
DWIDTH 62 0
BBX 49 74 7 -16
BITMAP
FF00000001FF80
FF80000001FF80
FF80000001FF80
FFC0000001FF80
FFE0000001FF80
FFF0000001FF80
FFF8000001FF80
FFF8000001FF80
FFFC000001FF80
FFFE000001FF80
FFFF000001FF80
FFFF800001FF80
FFFF800001FF80
FFFFC00001FF80
FFFFE00001FF80
FFFFF00001FF80
FFFFF00001FF80
FFFFF80001FF80
FFFFFC0001FF80
FFBFFE0001FF80
FF9FFF0001FF80
FF8FFF0001FF80
FF87FF8001FF80
FF87FFC001FF80
FF83FFE001FF80
FF81FFE001FF80
FF80FFF001FF80
FF807FF801FF80
FF807FFC01FF80
FF803FFE01FF80
FF801FFE01FF80
FF800FFF01FF80
FF8007FF81FF80
FF8007FFC1FF80
FF8003FFE1FF80
FF8001FFE1FF80
FF8000FFF1FF80
FF80007FF9FF80
FF80007FFDFF80
FF80003FFDFF80
FF80001FFEFF80
FF80000FFFFF80
FF800007FFFF80
FF800007FFFF80
FF800003FFFF80
FF800001FFFF80
FF800000FFFF80
FF8000007FFF80
FF8000007FFF80
FF8000003FFF80
FF8000001FFF80
FF8000000FFF80
FF80000007FF80
FF80000007FF80
FF80000003FF80
FF80000001FF80
FF80000000FF80
FF800000007F80
00000000000000
00000000000000
00000000000000
00000000000000
000007F8000000
000007F8000000
000007F8000000
000007F8000000
000007F8000000
00000FF0000000
00000FF0000000
00000FE0000000
00000FE0000000
00000FE0000000
00000FC0000000
00001F80000000
ENDCHAR
STARTCHAR 0146
ENCODING 326
SWIDTH 571 0
DWIDTH 46 0
BBX 36 58 5 -16
BITMAP
00001FC000
FF00FFF800
FF03FFFC00
FF8FFFFF00
FF9FFFFF80
FFBFFFFF80
FFFFFFFFC0
FFFFFFFFC0
FFFF03FFE0
FFFC00FFE0
FFF0007FF0
FFE0007FF0
FFC0003FF0
FFC0003FF0
FFC0003FF0
FFC0003FF0
FFC0003FF0
FFC0003FF0
FFC0003FF0
FFC0003FF0
FFC0003FF0
FFC0003FF0
FFC0003FF0
FFC0003FF0
FFC0003FF0
FFC0003FF0
FFC0003FF0
FFC0003FF0
FFC0003FF0
FFC0003FF0
FFC0003FF0
FFC0003FF0
FFC0003FF0
FFC0003FF0
FFC0003FF0
FFC0003FF0
FFC0003FF0
FFC0003FF0
FFC0003FF0
FFC0003FF0
FFC0003FF0
FFC0003FF0
0000000000
0000000000
0000000000
0000000000
0001FE0000
0001FE0000
0001FE0000
0001FE0000
0001FE0000
0003FC0000
0003FC0000
0003F80000
0003F80000
0003F80000
0003F00000
0007E00000
ENDCHAR
ENDFONT
